<svg xmlns="http://www.w3.org/2000/svg" width="640" height="640" viewBox="0 0 640 640">
  <title>icon</title>
  <g>
    <path d="M393.724,143.779a10.074,10.074,0,0,0,2.378,1.558c5.1,2.328,10.433,2.259,15.883,1.748,4.78-.449,9.575-1.234,14.409-.46a16.2,16.2,0,0,0,4.8.527c4.854-.62,5.933.526,5.627,5.523a14.237,14.237,0,0,1-.27,2.847,6.95,6.95,0,0,0,.8,5.237c1.652,3.2,1.141,4.348-2.3,5.576a15.661,15.661,0,0,0-1.487.836c-2.569,1.256-4.8,3.181-7.328,4.353-4.369,2.026-8.9,3.7-13.316,5.688-7.654,3.458-10.64,10.252-11.492,17.445-.7,5.938-1.187,12.2-.087,18.314a43.669,43.669,0,0,1,.442,9.976c-.09,1.734,1.212,3.186.59,5.031-2.3,6.83-.215,13.8-.511,20.706a3.434,3.434,0,0,0,.3,1.1c1.415,4.408,4.184,8.1,6.481,12.032.876,1.5,1.816,3.3,3.746,3.779,3.426.841,6.869,1.707,10.462,1.2,4.9-.692,5.427-.1,4.153,4.557a2.176,2.176,0,0,0-.048.283c-.9,6.65-2.954,13.115-2.725,19.964.077,2.291-.6,4.69-.744,7.071a5.539,5.539,0,0,1-1.719,3.845c-3.965,3.548-7.176,7.887-11.559,10.995a22.6,22.6,0,0,0-3.61,2.8c-1.236,1.331-2.429,3.041-1.082,4.851,1.236,1.66,2.879,3.616,5.244,2.494,3.267-1.549,6.666-3.31,8.849-6.2,3.134-4.15,6.821-7.855,9.449-12.447a23.035,23.035,0,0,0,3.394-11.307,65.63,65.63,0,0,1,1.878-14.63,13.818,13.818,0,0,0,.488-5.07c-.577-4.945,1.829-7.429,6.775-7.919,2.867-.285,5.359,1.167,8.159,1.21,4.055.063,4.738,1.286,3.576,5.287-1.043,3.59-1.932,7.282-.336,10.854,1.068,2.391,1.07,4.8,1.216,7.619.281,1.528-.074,3.418.11,5.339.436,4.553,3.992,7.37,5.7,11.21,2.933,6.581,9.88,9.544,14.446,14.718a2.313,2.313,0,0,0,1.462.812c1.378.01,1.735,1.122,2.56,1.825,4.994,4.249,4.471,5.939,9.008-.3,1.269-1.745.959-2.459-.423-3.968-3.861-4.217-9.045-6.586-13.407-10.1-4.853-3.911-7.129-9.547-10.982-14.073a3.358,3.358,0,0,1-.365-1.647c-.619-4.952.153-10-1.253-14.916-1.137-3.977.463-7.9.762-11.849.078-1.033.979-1.266,1.7-1.742,1.667-1.1,3.65-.205,5.281-.875,3.349-1.375,6.764-2.528,10.167-3.74a9.383,9.383,0,0,0,6.287-7.513c.616-3.338,1.446-6.624,1.907-10.007.628-4.611,2.444-8.831.918-13.912-1.284-4.275.172-9.129-1.814-13.739-.87-2.02.059-4.812-.754-7.569-1.041-3.528-.885-7.629-1.761-11.371-.923-3.943-1.224-8.123-4.278-11.395-2.192-2.348-3.922-5.005-6.711-6.91-3.118-2.13-6.572-2.887-10.033-3.77-3.185-.813-3.885-1.5-3.563-4.785a2.108,2.108,0,0,0-1.557-2.414,14.672,14.672,0,0,0-4.38-1.23c-2.2-.046-3.7-2.053-6-2.2-.653-.042-.54-2.23-.744-3.384-.7-3.96-1.838-7.861-1.238-12.04.345-2.4,1.706-2.659,3.31-2.433,9.027,1.272,18.028,2.18,27.18,1.124,2.365-.273,4.6-1.482,7.012-1.051,3.244.579,6.132-1.2,9.274-1.253a1.862,1.862,0,0,0,1.514-1.186c1.052-2.011,2.347-4.083.783-6.3-1.229-1.744-6.064-2.781-7.872-1.773a14.1,14.1,0,0,1-7.126,1.5,7.283,7.283,0,0,0-3.087.283c-3.636,1.815-7.49,1.47-11.3,1.322-8.134-.316-16.2-2.15-24.331-1.782-6.473.292-12.89-.589-19.345-.187-1.943.121-3.587,1.076-5.558,1.187-6.685.376-13.339-.092-20-.3-1.477-.046-2.847-.1-3.593,1.6C391.292,142.119,392.685,142.876,393.724,143.779Zm85.107,98.094c-.721,1.773-.6,3.545-.721,5.347-.225,3.386-1.522,6.474-5.32,7.555-6.271,1.784-12.709,2.419-17.354,3.385-5.277.392-8.669-1.019-12.248-.707-5.3.462-10.61,1.158-15.933.639-3.434-.335-7.25.292-10.186-1.556-3.09-1.945-5.011-5.31-6.005-8.906-.283-1.023-.266-2.22-.466-3.342-.583-3.274.783-5.059,4.089-4.771,9.959.865,19.7-.947,29.515-2.008a38.239,38.239,0,0,1,8.861.052,34.4,34.4,0,0,0,8.461.04c4.995-.633,9.872.71,14.841.477C479.325,237.938,479.966,239.082,478.831,241.874Zm.484-23.334a25.666,25.666,0,0,0,.919,5.339c.888,3.434.023,5.064-3.412,4.358a6.838,6.838,0,0,0-1.43,0c-4.735.013-9.417-1.171-14.191-.5-5.587.787-11.167-.444-16.7-.29a27.316,27.316,0,0,0-8.948,2.363,6.892,6.892,0,0,1-2.432.62c-6.28.161-12.561.286-18.841.455-2.406.065-3.523-.533-3.417-3.442.127-3.478.946-6.99-.04-10.526a2.571,2.571,0,0,1,2.351-3.311c9.729-1.44,19.285-4.248,29.264-3.749a4.974,4.974,0,0,0,1.989-.165c4.572-1.78,8.743.163,13.037,1.24,2.759.692,5.711.258,8.438,1.305a46.07,46.07,0,0,0,10.555,2.254C478.8,214.812,479.236,216.757,479.315,218.539Zm-39.908-38.5a3.952,3.952,0,0,0,4.019,1.681c6.766-1.514,12.849,1.127,19.084,2.895.366.1.795.453,1.066.35,3.758-1.422,5.748,1.836,8.3,3.293,2.965,1.7,2.356,5.388,3.44,8.148.545,1.388.249,3.112.814,4.486,1.112,2.706-.954,3.442-2.513,3.706a10.3,10.3,0,0,1-5.882-.54,22.77,22.77,0,0,0-8.875-1.971c-1.92-.112-3.36-1.889-5.933-1.251-5.918-.988-12.444-.416-18.8.414-6.455.844-13.04,1.4-19.33,3.377-3.924,1.236-5.335.044-5.093-4,.313-5.234,1.231-10.128,5.142-14.1a15.311,15.311,0,0,1,6.1-3.564c4.741-1.662,9.62-2.93,14.441-4.363A3.525,3.525,0,0,1,439.407,180.035Z" fill="#94070a" stroke="#94070a" stroke-linejoin="bevel" stroke-width="2"/>
    <path d="M147.384,239.426c1.519-.826,2.1-3.6,1.012-5.643a4.661,4.661,0,0,1-.614-2.735c.869-8.452-.421-16.915.183-25.754-.684-2.82.556-5.854.864-8.973a7.3,7.3,0,0,1,2.994-5.009,31.769,31.769,0,0,1,13.43-6.394c3.613-.808,4.323-.2,4.978,3.352.541,2.929-1.375,5.778-.073,8.622,1.466,3.2.319,7.087,2.7,10.071.328.412.042,1.294.088,1.954.288,4.077-1.213,8.1-.291,12.215.313,1.4-.677,2.31-1.951,2.8s-2.6.891-2.461,2.678.961,3.282,2.645,3.725a2.485,2.485,0,0,1,2.1,2.892c-.239,4.463-.382,8.944-.939,13.371-.254,2.017-1.507,3.909-1.647,6.014a53.525,53.525,0,0,1-2.54,14.285c-1,2.847.2,5.718-.736,8.482-2.031,6.024-4.008,12.067-6.054,18.086-.212.625-.774,1.189-.281,1.845,1.872,2.493,1.1,4.5-.778,6.668a10,10,0,0,0-1.931,5.922,18.084,18.084,0,0,1-.835,3.574c-1.721,6.294-6.032,11.58-6.818,18.278-.465,3.967.426,6.006,4.123,7.3,2.253.79,3.563-.049,4.153-2.132,1.239-4.372,2.43-8.76,3.516-13.173.778-3.162,1.159-6.264,3.055-9.251,1.688-2.66,3.476-6.09,2.8-9.41a8.425,8.425,0,0,1,1.008-5.869,24.908,24.908,0,0,0,1.395-3.932c1.095-3.315,1.933-6.7,2.937-10.033,1.591-5.273,3.594-10.62,3.741-15.986.3-11.01,5.061-21.35,4.292-32.434-.019-.277.152-.566.139-.846-.084-1.87.886-2.388,2.641-2.5,5.493-.353,11-.7,16.454-1.388,4.833-.608,7.28.956,6.648,5.714-.761,5.736,1.385,11.052,1.61,16.659.231,5.753-1,11.871,1.83,17.424.129.254-.207.714-.242,1.087-.357,3.737-1.43,7.55,1.389,10.918.36.431.263,1.278.3,1.937.307,5,2.152,9.635,4.379,13.929,1.454,2.8,1.884,6.352,4.845,8.352.388.262.465,1.025.629,1.572a98.4,98.4,0,0,0,3.663,9.3c1.083,2.617,2.743,4.892,3.764,7.587,1.124,2.97,2.714,6.178,6.584,6.948a3.151,3.151,0,0,1,2.379,3.252c-.218,2.669,1.735,4.118,2.775,6.02a4.554,4.554,0,0,0,4.279,2.462c1.753-.156,1.815-1.979,2.349-3.269a7.3,7.3,0,0,1,.682-1.25c1.223-1.831,1.039-3.42-.836-4.664a10.856,10.856,0,0,1-4.05-4.307c-.441-.9-1.114-2.191-2.84-1.84-2.06.419-2.124-.882-1.172-2.117,1.109-1.438.482-2.362-.381-3.529-1.406-1.9-3.887-3.1-4.354-5.554-.833-4.366-4.081-7.558-5.166-11.907-1.015-4.068-3.346-7.878-5.481-11.581-4.035-7-4.415-14.941-5.617-22.534a100.517,100.517,0,0,1-1.56-18.459c.132-4.7-.976-9.3-1.267-13.95-.181-2.887-.962-6.175,1.6-8.6,2.057-1.947,1.9-7.26-.657-8.435a3.7,3.7,0,0,1-2.232-4.157c.417-4.933.385-9.873.562-14.809.116-3.23.869-6.669.016-9.634-.79-2.745.962-4.519.976-6.8a.968.968,0,0,1,1.363-.691c2.8,1.4,5.973.618,8.926,1.724a14.522,14.522,0,0,0,8.026,1.047,2.984,2.984,0,0,1,3.622,2.085c1.783,4.471,3.348,9.164,3.365,13.91.015,4.064,1.355,7.744,1.758,11.635.473,4.565,2.455,9.052.769,13.759-.47,1.312.278,2.09,1.469,2.7.973.5,2.479,1.111,2.159,2.359-.77,3.009.89,5.364,1.815,7.853a7.484,7.484,0,0,0,5.259,4.451c1.035.3,1.813.068,2.086-.871.827-2.847,2.286-5.579.919-8.765a6.972,6.972,0,0,1-.645-4.981c1.149-3.642-2.339-6.074-2.646-9.369-.009-.1-.328-.164-.491-.262a2.159,2.159,0,0,1-.9-1.7,80.742,80.742,0,0,0-1.653-8.858c-2.535-8.676-2.327-17.94-6.691-26.313-2.475-4.749-7.31-7.456-11.584-6.174-.938.281-2.087.555-2.744-.137-2.229-2.346-5.24-1.886-7.954-2.487-3.576-.793-7.3-.312-10.806-2.233-2.485-1.362-5.636-1.782-8.541-2.035-3.324-.289-6.34-2.021-6.371-5.17-.049-4.893-1.551-9.5-2.084-14.281-.342-3.066.937-4.2,4.038-4.007a56.468,56.468,0,0,0,10.175.222c3.377-.391,6.81-.565,10.241-.642,3.329-.075,6.612.268,9.91.217,3.109-.048,4-1.707,4.323-6.023.23-3.045-1.857-3.065-3.784-3.494-3.37-.749-6.795.04-10.131.11-7.374.156-14.679,1.458-22.15.456-4.249-.57-8.617.071-12.96.438-8.043.681-16.239-.215-24.288-1.645a57.118,57.118,0,0,1-5.837-1.249,10.487,10.487,0,0,0-5.4-.166,6.641,6.641,0,0,0-4.626,3.886c-.914,2.255,1.14,3.754,2.64,4.543a21.906,21.906,0,0,0,8.558,2.89c4.18.287,8.364-.3,12.535-.423,5.373-.163,10.564.728,15.839,1.087,2.139.145,2.667,1.418,2.85,3.223.6,5.926-.123,12,2.012,17.754.487,1.312-.059,1.847-1.324,2.256-5.062,1.633-10.351.937-15.513,1.569-3.745.458-7.124,1.926-10.7,2.817-3.971.991-7.537,3.109-11.285,4.715-5.074,2.175-7.465,6.443-8.811,11.06-1.006,3.452-.916,7.342-1,11.085-.144,6.039.622,12.1-1.129,18.144-.781,2.695-1.734,5.9-.034,8.878a33.98,33.98,0,0,1,2.91,6.2C142.208,238.875,145.871,240.248,147.384,239.426Zm33.3-56.3A13.13,13.13,0,0,0,187,181.575a4.477,4.477,0,0,1,4.609.04,5.562,5.562,0,0,0,5.692-.128,9.119,9.119,0,0,1,5.317-.776c3.92.391,5.48,2.5,4.823,6.406a16.914,16.914,0,0,0-.068,6.5,12.467,12.467,0,0,1-.371,5.305c-.755,3.2-.177,6.594-.18,9.893,0,3.669-.906,7.176-1.119,10.785-.087,1.461-1.5,1.575-2.631,1.7-4.829.539-9.664,1.032-14.5,1.554a19.615,19.615,0,0,0-2.535.372c-3.431.835-4.225.313-4.667-3.265-.164-1.325-.21-2.665-.309-4l.09,0c-.04-3.121.133-6.263-.177-9.358-.361-3.614-1.24-7.173-1.713-10.78-.455-3.473-.75-6.972-.972-10.468A2.016,2.016,0,0,1,180.685,183.129Z" fill="#94070a" stroke="#94070a" stroke-linejoin="bevel" stroke-width="2"/>
    <path d="M473.941,406.9c4.359-7.487,2.778-13.31-3.856-19.579-3.165-2.99-7.143-4.476-11.157-5.951-2.578-.947-4.057-.2-4.146,2.615-.135,4.288,2.574,6.587,6.01,8.237a17.8,17.8,0,0,1,6.611,6.173,3.25,3.25,0,0,1,.11,3.99,12.7,12.7,0,0,1-5.05,4.05c-1.959.882-3.74.092-5.578.2-4.615.28-9.2.75-13.8,1.194-3.767.364-7.574.283-11.351.571A35.053,35.053,0,0,1,419,407.1c-2.955-.874-5.4-5.041-5.2-9.408.15-3.168,3.032-3.65,5.37-4.307,3.472-.976,7.175-.829,10.622-2.011,2.022-.693,3.911-1.834,6.2-1.537,3.986.517,6.584-1.879,6.74-5.91.186-4.828.469-9.655.824-14.474.311-4.221,1.051-4.642,5.446-4.236,3.012.279,6.319,1.054,9.022.168,4.506-1.478,8.975-.812,13.442-1.111a23.621,23.621,0,0,0,6.689-1.24c2.413-.887,4.686-1.609,7.456-.915,2.116.53,4.578.062,6.81-.361,2.411-.457,4.887-5.134,4.213-7.429a1.915,1.915,0,0,0-2.075-1.6c-6.008.393-12.187-.713-17.931,2.069a4.644,4.644,0,0,1-2.213.419c-4.57-.277-9.117.633-13.56,1.14a58.9,58.9,0,0,1-13.854.021c-3.244-.382-3.8-2.025-3.619-4.561.2-2.917.455-5.842.9-8.729.693-4.475.015-8.857-.575-13.258a2.3,2.3,0,0,0-2.372-2.039,9.206,9.206,0,0,1-2.238-.177c-2.9-.951-4.493.287-4.563,3.41-.057,2.575-.086,5.153-.216,7.724-.173,3.424-.3,6.7,1.109,10.087,1.4,3.348.992,6.853-4.835,7.181-5.6.315-11.234.353-16.8,1.1a30.8,30.8,0,0,1-9.939.185c-7.253-1.342-13.634,1.335-19.6,5.1-1.827,1.153-1.8,3.193-.772,4.862s2.553,1.156,4.009.286a9.019,9.019,0,0,0,2.5-1.881,2.506,2.506,0,0,1,1.919-1.006c3.052-.213,6.09.285,9.1.173,3.156-.117,6.079,1.164,9.23.893,5.192-.446,10.417-.464,15.587-1.243a20.847,20.847,0,0,1,5.947-.535c1.048.142,2.355.218,2.586,1.409.726,3.734,1.708,7.486,1.226,11.319-.219,1.743-1.512,3.693-3.19,3.532-2.395-.23-4.235.887-6.239,1.488-6.574,1.972-12.92,4.412-18.1,9.271-3.93,3.688-4.716,7.112-2.1,11.744a4.909,4.909,0,0,1,.607,1.595,20.941,20.941,0,0,0,3.073,7.342,9.282,9.282,0,0,0,9,4.489c3.734-.247,7.288.843,10.986.592,2.337-.159,3.516,1.216,2.5,3.675a3.828,3.828,0,0,0-.329,2.766c2.4,7.391,1.688,15.016,1.541,22.572-.1,4.928-.5,9.844-.11,14.781a6.292,6.292,0,0,1-.424,3.611,11.058,11.058,0,0,0-1.05,7.731,168.518,168.518,0,0,1,3.157,21.449c-1.177,2.939.441,5.685.991,8.48.511,2.6.536,5.53,2.686,7.675,1.237,1.234,3.12,1.713,3.569.293.844-2.668,2.575-5.139,1.589-8.453-1.2-4.044-3.388-8.282-.575-12.632.257-.4.019-1.111.024-1.678.046-4.49-2.313-8.424-2.782-12.916-.543-5.208-1.09-10.183.571-15.226a5.877,5.877,0,0,0,.271-3.673c-1.027-3.017-.294-6.074-.424-9.107-.153-3.583.441-7.121.581-10.667.163-4.144-1.018-8.229-1.97-12.288-.891-3.8,1.584-6.808,5.378-7.346,5.838-.827,11.724.059,17.6-1.108A16.579,16.579,0,0,0,473.941,406.9Z" fill="#94070a" stroke="#94070a" stroke-linejoin="bevel" stroke-width="2"/>
    <path d="M261.347,490.853c-3.753.332-7.49,1.189-11.233-.376a6.378,6.378,0,0,0-3.684-.073,8.779,8.779,0,0,1-4.735-.433,41,41,0,0,0-14.113-1.629c-7.019.432-13.956-1.35-21.034.092-6.227,1.269-12.373-2.083-18.725-1.526-1.427.111-2.854.239-4.283.328-1.61.1-2.61-.533-2.532-2.291.193-4.35-3.5-8.266-1.424-12.822-2.776-3.343-.5-7.467-1.7-11.084-.506-1.521.037-2.516,2.018-2.926,3.681-.762,7.409-.548,11.093-1.012,1.374-.173,2.713-1.039,4.195-.314,2.655,1.3,5.491,1.389,8.4,1.331a22.818,22.818,0,0,1,6.211.65c7.351,1.941,14.758.834,21.984-.119,4.289-.566,8.423.239,12.6-.258,1.828-.217,3.172,1.26,4.8,1.575,1.318.256,3.626.331,3.914-.858.671-2.772,3.836-4.914,2.323-8.176-.767-1.653-2.451-1.895-3.968-1.366-.97.338-3.073.1-2.176,2.38a.876.876,0,0,1-.729,1.275,1.014,1.014,0,0,1-1.1-1.08c-.026-2.724-2.029-2.541-3.794-2.554-1.029-.008-2.025.4-3.1-.028a11.916,11.916,0,0,0-7.825.031c-4.639,1.34-9.393.733-14.055,1.354-3.841.512-7.559-.336-11.306-.935a92.406,92.406,0,0,0-27.258-.017c-2.2.3-3.191-.663-3.1-2.919.062-1.616-.163-3.24-.171-4.862-.033-6.408-2.128-12.533-2.507-18.908-.4-6.71.956-13.29,1.242-19.948.136-3.154,1.162-6.447.463-9.541a34.219,34.219,0,0,1-.186-11.016c.239-2.449-.034-5.549,2.562-7.418a22.936,22.936,0,0,1,7.555-3.788,43.517,43.517,0,0,0,7.759-2.382c4.882-2.333,9.613-5.871,15.595-3.728,2.039.73,3.221-.306,3.743-2,.569-1.847.365-3.627-1.887-4.454a14.164,14.164,0,0,1-2.562-1.286c-3.548-2.2-12.761-2.079-16.079.528a17.025,17.025,0,0,1-5.4,3.107c-3.927,1.206-6.99,4.3-11.135,4.949a7.305,7.305,0,0,0-6.179,5.963c-.72,3.821-1.8,7.581-2.375,11.42a49,49,0,0,0-.487,11.238c.4,4.6,1.795,8.942-.225,13.581-1.652,3.794.2,7.92-.26,11.929-.585,5.082-.89,10.236,1.7,15.024a3.1,3.1,0,0,1,.384,2.191c-.982,2.757-.165,5.515.177,8.14.878,6.746.345,13.494.362,20.219a29.96,29.96,0,0,0,1.158,8.883,71.141,71.141,0,0,1,1.873,7.789c.634,3.432-.555,4.271-3.962,4.2a63.217,63.217,0,0,0-10.45.949c-4.855.716-9.656,1.829-14.521,2.443-2.168.274-4.077.5-4.489,2.954-.3,1.783,2.987,4.388,5,4.513,4.457.276,8.644-1.285,12.993-1.679,6.031-.547,12.116-2.978,18.039.576a3.439,3.439,0,0,0,2.488-.064c5.551-1.2,11.088-2.675,16.86-1.283a30.326,30.326,0,0,0,5.621.831c9.666.463,19.337.155,29.007.085a15.679,15.679,0,0,1,3.07.429c4.256.809,8.1,3.661,12.86,2.157,2.779-.878,5.749.409,8.723.248,2.223-.12,4.739-.473,7.042.323,2.232.771,3.541-.016,3.892-2.348a8.739,8.739,0,0,1,.3-1.952C265.839,492.051,264.7,490.557,261.347,490.853Z" fill="#94070a" stroke="#94070a" stroke-linejoin="bevel" stroke-width="2"/>
    <path d="M353.746,383.054c2.766-3.3,3.4-7.207,3.683-11.168a120.225,120.225,0,0,1,4.269-24.613c.436-1.522.128-2.78-1.459-3.174-1.641-.407-3.495-.346-3.911,1.764a7.822,7.822,0,0,1-2.6,4.321,5.4,5.4,0,0,0-1.654,4.44c.833,6.88-2.491,13.114-2.77,19.81-.1,2.483-1.777,3.789-4.527,3.684-2.277-.087-4.39-.927-6.783-.7-4.3.4-8.277,2.1-12.573,2.545-4.921.5-6.311-.592-5.348-5.314a12.2,12.2,0,0,1,.761-3.039,114.142,114.142,0,0,0,8.207-20.336,97.8,97.8,0,0,0,3.249-16.1c.245-2.294-1.355-3.475-3.23-4.191-1.455-.555-2.255.593-2.516,1.688-.631,2.653-2.661,5.22-2.781,7.4-.195,3.534-2.132,6.482-2.121,9.92.007,2.036-1,3.8-1.906,5.612-1.642,3.282-3.44,6.52-5,9.781-2.35,4.919-3.217,10.533-4.886,15.8-.926,2.92.273,5.674.231,8.51a35.468,35.468,0,0,0,1.936,12.628c2.592,7.143,5.665,14.113,8.544,21.152.22.538.5,1.068.028,1.588s-1.012.175-1.574.109a13.829,13.829,0,0,0-11.452,3.675c-2.156,2-4,4.334-6.12,6.382a15.9,15.9,0,0,0-4.37,10.793c-.143,5.872-2.347,11.462-1.685,17.347.545,4.845-2.527,9.684-.114,14.576a1.241,1.241,0,0,1-.286,1.026,5.407,5.407,0,0,0-.941,4.376,25.326,25.326,0,0,1-1.319,10.991,80.061,80.061,0,0,0-3.14,16.067c-.279,2.856,1.868,2.6,3.048,3.237a2.407,2.407,0,0,0,3.219-1.6c1.468-5.312,3.765-10.426,3.989-16.053a5.192,5.192,0,0,1,1.307-3.713c2.558-2.218,1.768-5.189,2.21-7.9.473-2.9-1.587-5.7-.959-8.284,1.385-5.689.218-11.424,1.025-17.107.3-2.124,1.835-4.105,1-6.249-.334-3.8,1-7.235,1.6-10.745.35-2.047,2.817-3.235,4.338-4.807,2.09-2.159,4.674-3.626,7.031-5.373,3.192-2.366,6.622-.891,7.742,2.958,1.008,3.466,2.792,6.619,3.785,10.115,1.973,6.94,4.5,13.735,3.954,21.146-.188,2.537-.651,5.026-.106,7.658.38,1.833-1.523,3.535-1.035,5.75.636,2.886-1.295,5.125-2.295,7.667-1.281,3.257-6.956,5.237-3.447,10.1.077.106-.01.391-.1.547-.937,1.624-.233,3.6-1.506,5.308-1.171,1.571-.377,3.314,1.6,4.127,1.319.543,2.837,2.049,3.969.039,1.245-2.212,2.718-4.31,3.124-7,.4-2.668.839-5.516,3.548-7.143.546-.328.57-.977.565-1.55a3.01,3.01,0,0,1,1.732-2.763c.5-.284,1.206-.469,1.1-1.143-.535-3.352,1.624-6.706-.051-10.053a4.665,4.665,0,0,1-.121-3.621,35.94,35.94,0,0,0,1.173-8.164,54.228,54.228,0,0,0-3.537-23.152c-1.55-4.27-3.292-8.506-4.906-12.773-.338-.894-.692-1.749.1-2.669,1.674-1.954.6-3.292-1.139-4.387-.7-.441-1.691-.409-2.039-1.4-1.663-4.761-4.631-8.929-6.18-13.753-1.586-4.94-4.074-9.561-4.6-14.878-.336-3.372-.007-4.14,3.263-4.432,3.961-.353,7.915-.8,11.86-1.291a47.03,47.03,0,0,1,10.424-.151A13.067,13.067,0,0,0,353.746,383.054Z" fill="#94070a" stroke="#94070a" stroke-linejoin="bevel" stroke-width="2"/>
    <path d="M549.243,473.209a17.9,17.9,0,0,0,.247-3.654c-.1-3.973-1.194-7.864-.812-11.878.161-1.691.746-3.278.578-5.083-.334-3.59-.825-7.379-.241-10.789a69.4,69.4,0,0,0,.839-10.942c.058-5.183-.217-10.4.109-15.579.2-3.176-1.36-5.991-1.042-9.219.537-5.458.55-10.974.628-16.468.062-4.386-.127-8.772.834-13.1a14.8,14.8,0,0,0,.635-4.8,180.347,180.347,0,0,1-1.4-22.164,46.937,46.937,0,0,0-1.217-11.987,85.914,85.914,0,0,1-1.589-9.618c-.906-6.853.673-13.805-.551-20.8a41.293,41.293,0,0,1-.807-11.7c.257-2.306-.82-4.762-.561-7.067.408-3.624-.138-7.16-.469-10.684a136.163,136.163,0,0,1-.362-16.855c.132-4.438.989-8.8,1.062-13.277.033-2.027-.861-4.109-.016-6.19a31.438,31.438,0,0,0,1.735-9.669c.317-4.333-.713-8.756.561-13.019,1.089-3.643,1.665-7.068-1.3-10.168a3.608,3.608,0,0,1-.537-1.878,3.475,3.475,0,0,0-1.358-2.38,13.719,13.719,0,0,1,.23-3.541c1.3-6.074,1.789-12.095,2.875-18.161A102.768,102.768,0,0,0,548.26,158c-.176-2.806.55-5.565-.541-8.55a17.518,17.518,0,0,0,1.826-9.721c-.227-2.536.112-5.186-.976-7.623-3.067-6.871-3.329-14.025-2.09-21.31.671-3.945-1.054-5.853-5.059-5.358a9.271,9.271,0,0,1-4.8-.22c-6.857-2.811-14.1-1.437-21.167-1.906a3.958,3.958,0,0,0-4.049,2.671c-.314.827-.81,1.552-1.64,1-1.867-1.25-4.064-.783-6.067-1.282-1.831-.456-3.721-1.737-5.638-1.139-5.323,1.66-10.679,3.055-16.289,2.348-1.992-.251-3.914.264-5.952-.218a51.164,51.164,0,0,0-16.645-.742c-3.636.349-7.189,1.531-10.959,1.3s-7.735.48-11.332-.388c-7.35-1.774-14.587-.486-21.88-.344-4.671.091-9.252,1.332-13.964.849-4.322-.443-8.714-1.264-12.985-.89-6.56.574-12.641-2.827-19.159-1.719-.086.015-.184-.059-.278-.063-5.482-.226-10.859-1.674-16.415-1.2-3.871.333-7.758.847-11.608.949-5.2.138-10.2,1.518-15.412,1.791-5.056.265-10.234.3-15.3,1.144-3.663.613-7.242-1.412-10.788-.841-3.9.629-7.517-.395-11.266-.683a91.687,91.687,0,0,0-14.667-.411c-5.642.477-11.08,2.643-16.875,2.431-1.744-.064-3.643.868-4.769-1.356a.688.688,0,0,0-1.2-.113c-1.09,1.8-2.718,1.1-4.133.869-3.31-.542-6.641-.6-9.973-.809-4.624-.292-9.22-1.078-13.844-1.289-5.7-.261-11.342-1.34-17.094-.967-2.727.177-5.493-.319-8.245-.412-5.346-.182-10.224-2.862-15.583-2.887a10.774,10.774,0,0,1-5.485-1.306c-3.415-2.091-6.721-1.431-10.214-.6-3.042.72-6.17,1.785-9.277.845a21.843,21.843,0,0,0-5.337-.745,78.481,78.481,0,0,0-12.668.8c-5.234.572-10.48-.04-15.709-.182-4.054-.11-8.148-.461-12.2-.856-3.984-.388-9.943.135-11.088.635-2.548,1.111-7.241,11.41-6.854,14.251.27,1.98.684,3.941,1.049,5.907.58,3.122-8.487,17.638-5.293,23.642.992,1.864,2.029,4.12,1.6,5.594-.817,2.8-.043,5.23.17,7.824a152.356,152.356,0,0,1,.69,17.7c-.089,2.614.858,5.049,1.186,7.6.7,5.459-.9,10.8-.35,16.217a10.413,10.413,0,0,1,.168,3.107,72.652,72.652,0,0,0-1.854,13.44c-.1,3.978-1.06,7.974-.328,11.919a73.8,73.8,0,0,1,.778,13.8c-.023,6.554-1.071,13.108,1.114,19.53a4.585,4.585,0,0,1-.054,3.114c-.822,2.132-.56,4.311-.543,6.5.034,4.263.224,8.482-.546,12.779a28.071,28.071,0,0,0,.454,13.3c.707,2.29,1.156,4.885.433,6.967-1.176,3.385.009,6.356.315,9.529.4,4.144,1.412,8.271.974,12.452-.221,2.11.04,4.217-.179,6.269-.663,6.237,1.966,12.425.17,18.654-.1.332.133.745.141,1.122.109,5.127-.319,10.23.4,15.4a63.776,63.776,0,0,1,.291,6.94,5.839,5.839,0,0,0-.2.872c-.634,4.189.544,8.342.133,12.624-.4,4.156,1.068,8.467.676,12.723a3.278,3.278,0,0,0,.58,2.522,5.174,5.174,0,0,0-.815,4.841c.523,1.762.871,3.657,1.441,5.287,1.347,3.853-.945,2.721-2.665,2.4-2.187-.4-2.756.94-2.866,2.566-.286,4.227,1.23,8.269,1.175,12.569a29.427,29.427,0,0,0,.879,6.382,3,3,0,0,0-.428,1.2,49.33,49.33,0,0,0,.905,20.565c.453,1.6,1.162,3.254-.14,4.577-.971.986.517,5.766.889,6.662-3.233,2.408-3.08,6.028-3.482,9.523-.594,5.163.713,10.224.649,15.313a134.143,134.143,0,0,0,1.012,18.189c.148,1.2-.091,2.649,1.156,3.39s1.113,1.824,1.139,2.981c.11,4.966.224,9.934.432,14.9s3.686,7.1,8.119,5.058a24.309,24.309,0,0,1,3-.81c4.486-1.438,8.743-.208,13.079.688,3.468.717,6.922,1.754,10.339-.759a7.7,7.7,0,0,1,3.846-1.712c5.411-.328,10.891-1.056,16.207.23,5.279,1.277,10.715,1.493,15.964,3,5.866,1.684,11.955.346,17.941.448,4.73.081,9.47-.463,14.208-.679,3.833-.175,7.531,1.479,11.37.992,2.77-.351,5.458.255,8.185.314,3.4.073,6.385,2.028,9.669,2.2,8.77.472,17.4-1.8,26.182-1.586,2.839.068,5.922-1.733,8.409-.577,4.714,2.192,9.6,2.665,14.545,2.7,6.488.042,12.96.493,19.461.37,5.484-.1,10.973.246,16.487.1,4.631-.123,9.211-1.057,13.948-.362a74.962,74.962,0,0,0,17.345.156c3.847-.334,7.768.036,11.582-.468,3.46-.457,6.553.947,9.854,1.1,2.651.121,5.523,1.027,7.9.3,4.969-1.52,9.873-2.693,15.023-1.769,3.855.692,7.355-.2,10.87-1.559a23.589,23.589,0,0,1,11.519-1.523c2.866.379,5.66.313,8.491.427,2.714.109,5.493.088,8.118.338a34.917,34.917,0,0,0,8.075.334c1.6-.211,3.11-.721,4.748-.853,3.858-.31,7.825,1.03,11.573-.64a16.677,16.677,0,0,1,7.87-1.087c1.622.083,3.247-.328,4.84-.365,5.884-.137,11.737-2.015,17.672.834a5.413,5.413,0,0,0,6.608-1.534c5.934.305,11.721-.06,17.63.1a102.77,102.77,0,0,0,24.4-2.72c2.734-.589,5.553-.292,8.328-1.786,2.3-.513,4.6-1.029,6.912-1.516a2.255,2.255,0,0,0,1.886-1.577c.3-2.3,2.727-4.112,2.083-6.354-1.432-4.987-.209-9.71.649-14.514a2.658,2.658,0,0,0-.069-.566c-.259-4.648-.382-9.223.937-13.837,1.024-3.581,1.674-7.281-.009-11.141C548.4,479.676,548.672,476.373,549.243,473.209ZM93.526,467.685c-.117.359-.154.86-.409,1.039-.041.029-.075.06-.115.089-.007-.027-.007-.037-.016-.072-.692-2.668.084-2.932,1.179-2.681A7.481,7.481,0,0,0,93.526,467.685Zm426.88,60.052a2.222,2.222,0,0,1,1.9-1.39c.816-.141,1.87-.194,2.233.588C523.159,527.2,521.781,527.469,520.406,527.738Zm21.8-144.514c1.1,4.423.511,8.9.327,13.339-.238,5.778-1.345,11.529-.081,17.337.274,1.257.85,2.535.525,3.934a26.251,26.251,0,0,0-.106,11.59c.744,3.381-1.278,6.24-.859,9.548.693,5.478.145,11.006-.079,16.522-.094,2.318-1.841,4.445-.949,6.614,1.539,3.745,1.268,7.517,1.237,11.4-.034,4.349-1.337,8.754-.245,13.014,1.446,5.641-.167,10.731-1.785,15.943-.581,1.871-2.909,3.026-1.844,6.159.246.552-.48,1.181-1.382,2.1a71.238,71.238,0,0,0-7.72,8.786c-2.291,3.274-5.3,5.381-8.989,4.853-3.12-.446-4.624-.833-5.4,3-.089.441-.162.846-.211,1.23-3.107.088-6.272-.522-9.315.261-2.7.7-5.477.436-8.19.721-3.379.355-6.361-1.235-9.641-1a51.3,51.3,0,0,0-7.638,1.156l.389,3.53a3.755,3.755,0,0,1-1.321.076c-1.483-.146-1.249-1.112-1.156-2.082a1.368,1.368,0,0,0-.866-1.623c-.4-.136-.66.141-.883.509-1.753,2.892-4.75.613-6.984,1.618-.292.131-.756-.363-.8-.968-.157-2.154-.151-2.088-1.879-1.1-2.647,1.508-5.284,2.992-8.344.691a3.5,3.5,0,0,0-3.454-.17c.04,1.084,1.736,1.414.876,2.587a1.611,1.611,0,0,1-1.589.447c-1.222-.143-1.63-.7-1.145-1.954.288-.744-.5-.778-.843-.548-1.659,1.127-3.724.511-5.569,1.244,1.047.659,2.834-.273,2.965,1.288.1,1.136-1.638,1.349-2.255,1.122-3.29-1.209-6.489-.284-9.709.41-.087-1.3,1.219-1.569,1.052-2.654-.988-.176-2-.418-3.025-.521-.937-.095-2.073.3-1.648,1.327,1.267,3.068-.94,2.874-2.694,3.142-1.413.215-3.3.608-3.628-1.174-.3-1.666,1.964-.762,3.175-2.025-2.056-.116-3.714-.259-5.375-.281-.75-.01-1.85-1.08-2.194.142-.351,1.251,1.366.6,2.054,1.223-3.3,1.958-6.523.6-9.67.57-.654-.005-.975-.53-.616-1.233.224-.439,1.132-.769.442-1.36-.527-.452-1.253-.168-1.919,0-4.322,1.095-8.537,4.316-13.124.662-.458-.365-1.075.156-1.622.285-2.7.641-5.185,1.878-8.2,1.641-1.706-.134-3.692-1.144-5.462.018.084.967,1.955.942,1.154,2.034-.678.926-1.714.481-2.53-.159a1.157,1.157,0,0,0-.231-.169c-1.758-.761-3.538-3.327-5.265.066a.821.821,0,0,1-.779.162c-2.554-1.47-5.068.254-7.581.056-3.985-.313-7.952-1.028-11.936-1.113-1.81-.038-4.208-1.373-5.517.679-1.419,2.225-3.908,2.115-4.714,1.036-1.671-2.236-3.667-1.649-5.444-1.417a26.731,26.731,0,0,1-8.226-.467,4.231,4.231,0,0,0-1.97.116,9.529,9.529,0,0,1-6.131-.247,19.286,19.286,0,0,0-6.751-.967c-.6.021-1.288-.073-1.591.844-.656,1.982-1.93,2.231-3.223.731-.948-1.1-4.521-1.329-5.446-.05-1.575,2.178-4.073,2.122-6.173,2.982a2.093,2.093,0,0,1-2.651-.355c-.872-1.175,1.471-1.081.8-2.452-2.95,1.092-7.007-2.174-9.205,2.784-.827-1.158-.292-2.9-2.243-2.844-4.145.117-8.335.321-12.378-.754-4.381-1.165-9.483.61-13.209-3.253-.524-.543-1.274.012-1.889-.017-3.369-.16-6.576,1.152-9.839,1.195a121.934,121.934,0,0,0-13.029.78c-3.588.432-7.473,1.371-10.753.749-6.1-1.157-12.256-1.507-18.346-2.451a101.244,101.244,0,0,0-24.362-.364c-2.945.254-6.568-.526-8.689.918-3.393,2.31-5.07-.877-7.549-.991a2.621,2.621,0,0,0-.285.032c-5.009.334-9.758-1.3-14.623-2.02-5.508-.813-10.974-2.089-16.425-3.1a25.413,25.413,0,0,0-13.908.942c-4.852,1.885-9.815.608-13.975-2.646-5.116-4-6.087-10.653-9.675-15.655a3.411,3.411,0,0,1-.5-2.482c.978-4.048-1.409-7.66-1.284-11.677.137-4.37-1.017-8.764-1.319-13.167-.293-4.273-.545-8.578.944-12.766a2.5,2.5,0,0,0-.381-2.6,2.865,2.865,0,0,0,1.191-2.248c.634-4.189-.544-8.342-.133-12.624a28.493,28.493,0,0,0-.325-6.234,2.4,2.4,0,0,0,1.052-2.019,49.328,49.328,0,0,0-2.6-20.42c-.584-1.561-1.427-3.147-.238-4.573a6.871,6.871,0,0,0,1.318-4.25c.069-.861-.075-1.9.752-2.347,2.7-1.463,1.858-4.821,3.706-6.724.169-.174.064-.745-.073-1.063a4.831,4.831,0,0,0-1.922-1.783,3.122,3.122,0,0,0,.352-1.083,49.328,49.328,0,0,0-.905-20.565c-.175-.619-.385-1.244-.506-1.855a3.123,3.123,0,0,0,2.169-2.462c1.052-3.458,1.325-6.573-.747-9.677a1.869,1.869,0,0,1-.087-1.128c.685-6-.276-11.991-.091-17.991.078-2.53-.761-5.325-.507-7.48a40.357,40.357,0,0,0,.234-6.48c-.351-8.147.264-16.37-1.076-24.428-1.153-6.936.2-13.9-.978-20.82-.763-4.484,1.212-8.961.719-13.547-.846-7.88,2.1-16-1.464-23.733-.212-.46.072-1.131.061-1.7-.114-5.708.549-11.4.055-17.129-.5-5.858-1.18-11.8-.664-17.61.329-3.7,1.437-7.459,1.96-11.234A99.694,99.694,0,0,0,99,178.448a70.159,70.159,0,0,1-.321-16.818c.415-3.2,1.949-6.15,2.477-9.214,1.08-6.256,2.837-12.328,4.25-18.486.993-4.326,3.326-8.213,4.635-12.5A10.867,10.867,0,0,1,115.457,115c2.267-1.1,4.926-2.5,7.217-2.219,4.243.529,7.8-1.3,11.332-2.556,5.854-2.088,11.595-3.287,17.744-2.386,3.5.513,7.089,1,10.532.212a27.378,27.378,0,0,1,12.762-.1c6.4,1.53,12.789,3.333,19.291,4.193a144.4,144.4,0,0,0,20.313,1.029c8.222-.082,16.208,2.333,24.428,1.9a17.763,17.763,0,0,1,3.924.417c3.054.518,6.382,1.959,8.987,1.7,4.377-.429,8.846-.967,13.253-1.621,6.972-1.034,13.654-3.616,21.048-1.277,5.587,1.768,11.767.3,17.6,1.26a51.1,51.1,0,0,0,17.39-.15c7.561-1.332,15.224-2.075,22.8-3.248,6.881-1.065,13.646-.192,20.421.023,8.389.266,16.576,3.017,25.087,2.724,1.19-.041,2.411.764,3.6.709,7.326-.336,14.646-.815,21.968-1.228,4.979-.28,10.378-1.867,14.842-.474,6.538,2.04,12.913,1,19.33,1.56,5.363.469,10.4-2.061,15.833-1.416,5.28.627,10.767.038,15.909,1.152,4.936,1.069,9.359,1.212,13.819-1.166a2.009,2.009,0,0,1,1.654-.032,12.692,12.692,0,0,0,5.768,1.224c5.671.339,11.281,1.839,17.022.814,6.574-1.174,13.551,3.3,16.4,8.812,1.65,3.188.593,6.626,1.733,9.739,1.359,3.711-.023,7.782,1.771,11.411,0,1.908,0,3.824,1.168,5.488.132.188.256.389.378.591.012.945.007,1.87-.029,2.768-.192,4.727.236,9.6.341,14.342.085,3.836-1.658,7.555-1.261,11.405.286,2.777-.385,5.481-.507,8.206-.152,3.394-2.168,6.106-2.422,9.385a51.294,51.294,0,0,0,.006,7.725l1.52.06c-.734,1.1-1.284,2.271-.273,3.651,2.213,3.021,2.721,6.078,2.368,9.972-.735,8.1-1.519,16.208-2.065,24.323-.4,5.955-1.156,11.829-1.9,17.734-.558,4.424.793,8.9.982,13.306.185,4.313-.065,8.686.228,13.042.26,3.868.157,7.76.413,11.628.277,4.183.892,8.345,1.167,12.528.582,8.867-.687,17.92,2.748,26.494a2.394,2.394,0,0,1,.12,1.123c-1.193,10.245,1.869,20.365.866,30.614-.381,3.892,1.418,7.938-.805,11.727A1.637,1.637,0,0,0,542.208,383.224Z" fill="#94070a" stroke="#94070a" stroke-linejoin="bevel" stroke-width="2"/>
    <path d="M366.527,311.906c.573-11.767-1.174-23.414-1.959-35.084-.481-7.149-.156-14.362-1.378-21.506-1.2-7.045-1.057-14.236-.784-21.389.133-3.479-1.276-7.1-.941-10.241.708-6.655-.226-13.125-.39-19.672-.089-3.537-1.621-7-1.4-10.4.691-10.708-1.051-21.205-1.817-31.793-.228-3.155-.634-6.343-.69-9.553-.063-3.623,1.147-6.919,1.51-11,.92-2.545-1.89-3.233-3.556-3.67-1.716-.449-3.156,1.219-3.272,3.18-.2,3.368-1.952,6.355-1.532,10.023.3,2.615.8,5.544.24,8.2-1.224,5.8,2.169,11.426.363,17.187a1.722,1.722,0,0,0,.266,1.095,11.609,11.609,0,0,1,.759,6.641c-.8,5.984.79,11.686,1,17.5.24,6.806,1.493,13.54,1.235,20.351a55.344,55.344,0,0,0,.015,6.455,102.786,102.786,0,0,1,.133,10.572c-.059,2.83-.143,5.623-.045,8.475.224,6.514,2.011,12.9,1.318,19.489-.5,4.79,1.044,9.431,1.782,14.106.465,2.947-1.175,5.555-.481,8.469a69.35,69.35,0,0,1,1.346,20.129c-.317,5.485.975,10.764,1.168,16.169.078,2.195,2.349,3.724,4.75,3.821s2.748-1.884,3.127-3.73a19.352,19.352,0,0,0,.239-6.525C367.206,316.764,366.41,314.31,366.527,311.906Z" fill="#94070a" stroke="#94070a" stroke-linejoin="bevel" stroke-width="2"/>
    <path d="M292.08,256.926c1.474-2.641,2.746-5.4,2.065-8.642a52.055,52.055,0,0,1-.951-6.479c-.26-3.2,2.071-6.618-.88-9.607-.26-.263-.163-.923-.159-1.4.072-8.249-2.074-16.249-3.472-24.25-1.248-7.141-.908-14.334-2.26-21.416-1.113-5.833-.338-11.855-.823-17.791-.205-2.516-1.937-4.624-1.428-6.88a12.916,12.916,0,0,0-.057-2.6,50.964,50.964,0,0,1-1.042-19.13c.246-1.867-1.559-2.217-2.723-2.887-.913-.526-2.346-.822-2.882.194-1.625,3.079-3.944,6.047-3.305,9.831.711,4.214-.692,8.818,2.291,12.635a2.372,2.372,0,0,1,.155,1.406c-.344,7.074,1.687,14.062.933,21.117-.509,4.762,1.877,9.169,1.258,13.855a18.622,18.622,0,0,0,.356,7.31c1.152,4.309.637,8.957,2.772,13.067.718,1.382.533,2.975.633,4.5.155,2.364-.164,4.753.525,7.1.994,3.38,1.742,6.733,1,10.378a12.121,12.121,0,0,0,.543,7.072,8.489,8.489,0,0,1,.037,6.969c-.834,1.881-.07,3.46.879,4.821C287.294,258.612,290.9,259.036,292.08,256.926Z" fill="#94070a" stroke="#94070a" stroke-linejoin="bevel" stroke-width="2"/>
    <path d="M313.687,161.732c-.288,9.763-1.285,19.507-.6,29.308.44,6.257.012,12.576.5,18.827.426,5.475,1.056,10.937,1.248,16.432.215,6.327,1.451,12.6.907,18.977a10.61,10.61,0,0,0,1.17,5.845,5.206,5.206,0,0,0,4.365,2.763c1.744.134,2-1.608,2.833-2.747,1.786-2.448,0-4.741.208-6.955.561-5.972-1.99-11.751-.678-17.7a4.757,4.757,0,0,0-.478-2.209,17.52,17.52,0,0,1-.719-4.476c-.26-4.465.481-9.066-.326-13.355-1.572-8.356-1.347-16.773-1.234-25.089.108-8-.369-16.081.732-24.068.679-4.923-.19-10.063,2.365-14.746.731-1.34.171-2.833-1.875-3.013a5.7,5.7,0,0,1-1.837-.694c-1.669-.8-3.443-.921-4.811.282-1.461,1.284-2.366,3-1.489,5.134.692,1.687,1.37,3.609.872,5.277C313.638,153.554,313.806,157.682,313.687,161.732Z" fill="#94070a" stroke="#94070a" stroke-linejoin="bevel" stroke-width="2"/>
    <path d="M363.048,446.7c-.016-1.233-.061-2.466-.042-3.7.067-4.331-1.291-8.383-2.294-12.524a213.432,213.432,0,0,0-5.991-20.739,1.769,1.769,0,0,0-1.763-1.163,4.048,4.048,0,0,0-4.523,5.048c.557,2.65,1.133,5.3,1.76,7.931.8,3.364,1.65,6.792,2.64,10.015,1.233,4.013,2.484,8.083,2.424,12.086a214.135,214.135,0,0,0,1.193,21.547c.687,8.031,1.667,16.324-3.186,23.716a3.509,3.509,0,0,0-.483,1.624c-.353,5.022-1,9.97-3.327,14.54-.253.5-.8,1.277-.265,1.535,1.729.831.484,1.3-.07,1.962-1.637,1.944-.54,3.337,1.032,4.538,1.651,1.262,2.877,1.148,4.247-.756,1.963-2.729,1.92-5.942,2.863-8.907.746-2.346,1.109-4.613-.019-6.952-.633-1.314-.356-2.294,1.169-2.956,3.263-1.415,4.676-4.3,5.141-7.57.641-4.517,1.075-9.068,1.441-13.617.287-3.572.584-7.391-.1-10.7A87.449,87.449,0,0,1,363.048,446.7Z" fill="#94070a" stroke="#94070a" stroke-linejoin="bevel" stroke-width="2"/>
    <path d="M292.86,414.781c.578,2.653,4.234,4.664,5.543,3.124,1.167-1.374,2.657-2.406,3.164-4.664.5-2.227-1.142-2.826-1.5-4.254a130.138,130.138,0,0,0-3.756-13.086c-.741-2.014-1.465-4.177-.739-6.428a2.148,2.148,0,0,0-.523-2.39c-.943-.8-.908-1.78-.983-2.841-.431-6.026,1.519-11.851,1.238-17.943-.189-4.093,2.11-8.07,3.524-12.046,1.147-3.223,2.848-6.16,4.215-9.248,1.353-3.056,1.4-6.662,4.123-9.248,1.141-1.085.488-2.9-1.344-3.647-2.106-.857-4.875-.3-5.415,1.148-.12.324-.19.867-.011,1.071,2.23,2.54-.36,2.51-1.635,2.877-1.485.428-3.255.521-3.66,2.268a155.734,155.734,0,0,1-5.394,17.274c-1.684,4.705-4.137,9.7-2.33,15.129A1.83,1.83,0,0,1,287.3,373c-1.764,4.715.292,9.928-2.071,14.2.757,2.889.313,5.593,1.379,7.992,1.793,4.031,1.752,8.635,4.257,12.487C292.194,409.718,292.333,412.361,292.86,414.781Z" fill="#94070a" stroke="#94070a" stroke-linejoin="bevel" stroke-width="2"/>
    <path d="M498.794,497.749c-2.169-1-3.207-3.105-4.879-4.575-1.78-1.565-3.767-3.133-4.913-5.13a34.416,34.416,0,0,0-7.355-8.886,9.3,9.3,0,0,1-3.151-7.315c-.076-4.353-.413-8.726-2.52-12.733-.348-.661-1.146-1.454-.419-2.362a5.271,5.271,0,0,0,.8-4.357c-.661-3.72,1.031-7.788-1.641-11.211-.316-.4,0-.886.19-1.338,2.117-4.983,1.073-10.564,2.961-15.107-.1-1.683-.183-2.812-1.86-2.811-1.355,0-3.093-1.665-3.891.638-1.427,4.122-3.46,8.166-3.674,12.54a130.13,130.13,0,0,0,.422,15.7c.194,2.684-.827,5.389.02,7.971,1.631,4.972,1.561,10.149,2.083,15.245a20.224,20.224,0,0,0,4.781,10.938c2.8,3.43,6.537,6.122,8.633,10.069a19.4,19.4,0,0,0,4.525,5.427,44.364,44.364,0,0,1,4.339,4.06c1.066,1.231,2.623,3.378,4.749,2.306,2.666-1.345,1.33-4.666,2.652-6.855C501.182,499.08,499.636,498.139,498.794,497.749Z" fill="#94070a" stroke="#94070a" stroke-linejoin="bevel" stroke-width="2"/>
    <path d="M406.216,429.065c.431-3.024-1.686-3.25-3.36-3.56a2.882,2.882,0,0,0-3.264,2.852c.524,4.124-.564,8.392,1.076,12.386a9.737,9.737,0,0,1,.545,3.877c0,4.145-.2,8.418.721,12.4.852,3.678-.022,7.264-.895,10.238a155.045,155.045,0,0,1-5.353,16.387c-1.4,3.35-2.736,6.524-5.1,9.405-1.595,1.946-2.084,4.8-3.067,7.246a1.92,1.92,0,0,0,1.7,2.078c1.452.348,2.971,1.364,4.232-.192a35.911,35.911,0,0,0,3.828-5.339c4.847-8.953,7.924-18.643,10.765-28.327,2.721-9.273.957-18.84.03-28.275C407.71,436.462,405.671,432.887,406.216,429.065Z" fill="#94070a" stroke="#94070a" stroke-linejoin="bevel" stroke-width="2"/>
  </g>
</svg>
