<svg xmlns="http://www.w3.org/2000/svg" viewBox="0 0 492.832 474.083"><title>patterns</title><g id="7ca7e25f-c74d-4d7d-9c5c-accee4b1c3ed" data-name="contents"><path d="M120.057,218.993a5.735,5.735,0,0,1-3.3-1.237c-7.265-6.5-14.437-13.1-21.626-19.683a14.119,14.119,0,0,1-1.151-1.375c8.309-7.791,16.48-15.512,24.74-23.137a5.273,5.273,0,0,0,1.848-4.315Q120.5,119,120.542,68.763c0-1.039.093-2.078.152-3.307h8.62V54.827h-8.78c0-2.135-.109-3.965.03-5.776.141-1.83-.432-2.485-2.355-2.441-5.33.122-10.664.042-16,.042H95.261v8.055H61.574V46.867h-25.3v7.972h-8.45v10.7h8.484v3.5q0,50.242-.053,100.484a5.877,5.877,0,0,0,2.192,4.921c3.449,3.014,6.763,6.183,10.126,9.295q7.133,6.6,14.257,13.212a5.086,5.086,0,0,1-.519.787c-7.193,6.823-14.371,13.662-21.627,20.417a4.4,4.4,0,0,1-2.689.853c-3.382.1-6.769.039-10.19.039V229.6a6.346,6.346,0,0,0,1.069.2c9.5.014,19,.054,28.495-.04a4.757,4.757,0,0,0,2.77-1.336c4.2-3.8,8.3-7.709,12.454-11.565,1.991-1.85,4.01-3.669,6.084-5.564,6.4,5.827,12.6,11.5,18.853,17.125a4.493,4.493,0,0,0,2.514,1.336q13.871.144,27.744.006c.562,0,1.579-.785,1.6-1.241.144-3.058.075-6.126.075-9.474C126.044,219.051,123.042,219.163,120.057,218.993ZM78.419,182.579c-5.461-5.027-10.859-9.96-16.19-14.967a3.024,3.024,0,0,1-.634-2.02q-.036-49.465,0-98.93a7.174,7.174,0,0,1,.156-.953H95.161c.044.87.12,1.679.12,2.488q.009,48.091.035,96.182a4.766,4.766,0,0,1-1.647,3.9C88.58,172.946,83.585,177.717,78.419,182.579Z" fill="#cb081a"/><path d="M198.048,120.09c.577-1.356.946-2.27,1.351-3.167,8.052-17.814,15.948-35.7,24.268-53.39,2.329-4.951,1.7-9.814,1.9-14.94h-86.8V59.084h58.564c-.216.711-.276,1.033-.408,1.323q-13.239,29.072-26.454,58.156c-.622,1.375-1.493,1.508-2.739,1.5-8.75-.029-17.5-.016-26.249-.015h-2.683V130.98h42.662v88.1H139.436v10.552H208.8V130.859h23.746V120.09Z" fill="#cb081a"/><path d="M260.882,28.543V39.126h86.73a20.331,20.331,0,0,1-.011,2.308c-1.065,8.171-2.123,16.343-3.248,24.506-.473,3.433-.541,3.425-4.093,3.425H267.724V209.624H458.889V69.311H369.982l3.968-30.333h91.786V28.543ZM432.95,198.822H293.737V145.063H432.95Zm.038-118.637v54.1H293.721v-54.1Z" fill="#fff"/><path d="M394.26,261.516h71.364V250.705H296.738v-8.167H270.919v19.115H367.76v37.214H277.69V373.95h-16.76V384.8H367.985V427H394.15V384.715h71.492V373.858H394.214V309.314h71.473V298.729H394.26ZM367.79,373.707H303.9c-.04-.863-.11-1.67-.11-2.477q-.009-29.625-.034-59.249c0-1.8.289-2.679,2.421-2.671,19.833.075,39.666.043,59.5.053.65,0,1.3.111,2.117.186Z" fill="#fff"/><path d="M225.25,366.156v-2.783H33.809v82.108h2.843q92.724,0,185.448.058c2.518,0,3.218-.6,3.208-3.155C225.212,416.976,225.25,391.566,225.25,366.156Zm-26.224,68.392H59.808c-.049-.958-.126-1.772-.126-2.587-.007-18.409.04-36.818-.06-55.226-.013-2.461.764-3.019,3.112-3.016q66.721.1,133.442.048h2.85Z" fill="#fff"/><path d="M64.97,315.9c1.677-13.04,3.387-26.076,4.961-39.128.214-1.777.874-2.153,2.493-2.151q57.1.052,114.2,0c1.55,0,2.232.453,2.422,2.014,1.157,9.5,2.373,18.99,3.579,28.483.585,4.6,1.193,9.207,1.8,13.873h37.388V308.519c-3.272,0-6.426-.038-9.577.017-1.383.024-2.061-.331-2.249-1.9-1.275-10.658-2.65-21.3-4.015-31.95-.45-3.513-.965-7.018-1.47-10.666H48.046c-.583,0-1.17.046-1.749-.006-1.421-.127-2.022.383-2.208,1.914-1.628,13.381-3.371,26.748-5.017,40.127-.22,1.789-.8,2.621-2.78,2.509-3.034-.172-6.085-.045-9.174-.045v10.434h37.34C64.644,317.861,64.843,316.884,64.97,315.9Z" fill="#fff"/><path d="M27.1,344.879H231.875V334.721H27.1Z" fill="#fff"/></g></svg>