<svg xmlns="http://www.w3.org/2000/svg" width="56" height="56" viewBox="0 0 56 56">
  <title>pattern</title>
  <g>
    <g>
      <path d="M-13.986,49.948s0,1.386,14.014,1.386,14.014-1.386,14.014-1.386" fill="none" stroke="#fff" stroke-linecap="round" stroke-miterlimit="10" stroke-width="0.2"/>
      <path d="M14.043,49.948s0,1.386,14.014,1.386,14.014-1.386,14.014-1.386" fill="none" stroke="#fff" stroke-linecap="round" stroke-miterlimit="10" stroke-width="0.2"/>
      <path d="M42.014,49.948s0,1.386,14.014,1.386,14.014-1.386,14.014-1.386" fill="none" stroke="#fff" stroke-linecap="round" stroke-miterlimit="10" stroke-width="0.2"/>
    </g>
    <g>
      <path d="M-.028,54.614S-.028,56,13.986,56,28,54.614,28,54.614" fill="none" stroke="#fff" stroke-linecap="round" stroke-miterlimit="10" stroke-width="0.2"/>
      <path d="M28,54.614S28,56,42.014,56s14.014-1.386,14.014-1.386" fill="none" stroke="#fff" stroke-linecap="round" stroke-miterlimit="10" stroke-width="0.2"/>
      <path d="M55.972,54.614S55.972,56,69.986,56,84,54.614,84,54.614" fill="none" stroke="#fff" stroke-linecap="round" stroke-miterlimit="10" stroke-width="0.2"/>
    </g>
    <g>
      <path d="M-13.986,40.614S-13.986,42,.028,42s14.014-1.386,14.014-1.386" fill="none" stroke="#fff" stroke-linecap="round" stroke-miterlimit="10" stroke-width="0.2"/>
      <path d="M14.043,40.614S14.043,42,28.057,42s14.014-1.386,14.014-1.386" fill="none" stroke="#fff" stroke-linecap="round" stroke-miterlimit="10" stroke-width="0.2"/>
      <path d="M42.014,40.614S42.014,42,56.028,42s14.014-1.386,14.014-1.386" fill="none" stroke="#fff" stroke-linecap="round" stroke-miterlimit="10" stroke-width="0.2"/>
    </g>
    <g>
      <path d="M-.028,45.281s0,1.386,14.014,1.386S28,45.281,28,45.281" fill="none" stroke="#fff" stroke-linecap="round" stroke-miterlimit="10" stroke-width="0.2"/>
      <path d="M28,45.281s0,1.386,14.014,1.386,14.014-1.386,14.014-1.386" fill="none" stroke="#fff" stroke-linecap="round" stroke-miterlimit="10" stroke-width="0.2"/>
      <path d="M55.972,45.281s0,1.386,14.014,1.386S84,45.281,84,45.281" fill="none" stroke="#fff" stroke-linecap="round" stroke-miterlimit="10" stroke-width="0.2"/>
    </g>
    <g>
      <path d="M-13.986,31.281s0,1.386,14.014,1.386,14.014-1.386,14.014-1.386" fill="none" stroke="#fff" stroke-linecap="round" stroke-miterlimit="10" stroke-width="0.2"/>
      <path d="M14.043,31.281s0,1.386,14.014,1.386,14.014-1.386,14.014-1.386" fill="none" stroke="#fff" stroke-linecap="round" stroke-miterlimit="10" stroke-width="0.2"/>
      <path d="M42.014,31.281s0,1.386,14.014,1.386,14.014-1.386,14.014-1.386" fill="none" stroke="#fff" stroke-linecap="round" stroke-miterlimit="10" stroke-width="0.2"/>
    </g>
    <g>
      <path d="M-.028,35.948s0,1.386,14.014,1.386S28,35.948,28,35.948" fill="none" stroke="#fff" stroke-linecap="round" stroke-miterlimit="10" stroke-width="0.2"/>
      <path d="M28,35.948s0,1.386,14.014,1.386,14.014-1.386,14.014-1.386" fill="none" stroke="#fff" stroke-linecap="round" stroke-miterlimit="10" stroke-width="0.2"/>
      <path d="M55.972,35.948s0,1.386,14.014,1.386S84,35.948,84,35.948" fill="none" stroke="#fff" stroke-linecap="round" stroke-miterlimit="10" stroke-width="0.2"/>
    </g>
    <g>
      <path d="M-13.986,21.948s0,1.386,14.014,1.386,14.014-1.386,14.014-1.386" fill="none" stroke="#fff" stroke-linecap="round" stroke-miterlimit="10" stroke-width="0.2"/>
      <path d="M14.043,21.948s0,1.386,14.014,1.386,14.014-1.386,14.014-1.386" fill="none" stroke="#fff" stroke-linecap="round" stroke-miterlimit="10" stroke-width="0.2"/>
      <path d="M42.014,21.948s0,1.386,14.014,1.386,14.014-1.386,14.014-1.386" fill="none" stroke="#fff" stroke-linecap="round" stroke-miterlimit="10" stroke-width="0.2"/>
    </g>
    <g>
      <path d="M-.028,26.614S-.028,28,13.986,28,28,26.614,28,26.614" fill="none" stroke="#fff" stroke-linecap="round" stroke-miterlimit="10" stroke-width="0.2"/>
      <path d="M28,26.614S28,28,42.014,28s14.014-1.386,14.014-1.386" fill="none" stroke="#fff" stroke-linecap="round" stroke-miterlimit="10" stroke-width="0.2"/>
      <path d="M55.972,26.614S55.972,28,69.986,28,84,26.614,84,26.614" fill="none" stroke="#fff" stroke-linecap="round" stroke-miterlimit="10" stroke-width="0.2"/>
    </g>
    <g>
      <path d="M-13.986,12.614S-13.986,14,.028,14s14.014-1.386,14.014-1.386" fill="none" stroke="#fff" stroke-linecap="round" stroke-miterlimit="10" stroke-width="0.2"/>
      <path d="M14.043,12.614S14.043,14,28.057,14s14.014-1.386,14.014-1.386" fill="none" stroke="#fff" stroke-linecap="round" stroke-miterlimit="10" stroke-width="0.2"/>
      <path d="M42.014,12.614S42.014,14,56.028,14s14.014-1.386,14.014-1.386" fill="none" stroke="#fff" stroke-linecap="round" stroke-miterlimit="10" stroke-width="0.2"/>
    </g>
    <g>
      <path d="M-.028,17.281s0,1.386,14.014,1.386S28,17.281,28,17.281" fill="none" stroke="#fff" stroke-linecap="round" stroke-miterlimit="10" stroke-width="0.2"/>
      <path d="M28,17.281s0,1.386,14.014,1.386,14.014-1.386,14.014-1.386" fill="none" stroke="#fff" stroke-linecap="round" stroke-miterlimit="10" stroke-width="0.2"/>
      <path d="M55.972,17.281s0,1.386,14.014,1.386S84,17.281,84,17.281" fill="none" stroke="#fff" stroke-linecap="round" stroke-miterlimit="10" stroke-width="0.2"/>
    </g>
    <g>
      <path d="M-.028,7.948s0,1.386,14.014,1.386S28,7.948,28,7.948" fill="none" stroke="#fff" stroke-linecap="round" stroke-miterlimit="10" stroke-width="0.2"/>
      <path d="M28,7.948s0,1.386,14.014,1.386S56.028,7.948,56.028,7.948" fill="none" stroke="#fff" stroke-linecap="round" stroke-miterlimit="10" stroke-width="0.2"/>
      <path d="M55.972,7.948s0,1.386,14.014,1.386S84,7.948,84,7.948" fill="none" stroke="#fff" stroke-linecap="round" stroke-miterlimit="10" stroke-width="0.2"/>
    </g>
    <g>
      <path d="M-15.263,3.281s0,1.386,14.014,1.386S12.765,3.281,12.765,3.281" fill="none" stroke="#fff" stroke-linecap="round" stroke-miterlimit="10" stroke-width="0.2"/>
      <path d="M12.765,3.281s0,1.386,14.014,1.386S40.794,3.281,40.794,3.281" fill="none" stroke="#fff" stroke-linecap="round" stroke-miterlimit="10" stroke-width="0.2"/>
      <path d="M40.737,3.281s0,1.386,14.014,1.386S68.765,3.281,68.765,3.281" fill="none" stroke="#fff" stroke-linecap="round" stroke-miterlimit="10" stroke-width="0.2"/>
    </g>
    <g>
      <path d="M0-1.386S0,0,14.014,0,28.028-1.386,28.028-1.386" fill="none" stroke="#fff" stroke-linecap="round" stroke-miterlimit="10" stroke-width="0.2"/>
      <path d="M28.028-1.386S28.028,0,42.043,0,56.057-1.386,56.057-1.386" fill="none" stroke="#fff" stroke-linecap="round" stroke-miterlimit="10" stroke-width="0.2"/>
      <path d="M56-1.386S56,0,70.014,0,84.028-1.386,84.028-1.386" fill="none" stroke="#fff" stroke-linecap="round" stroke-miterlimit="10" stroke-width="0.2"/>
    </g>
  </g>
</svg>
