<?xml version="1.0" encoding="utf-8"?>
<!-- Generator: Adobe Illustrator 21.1.0, SVG Export Plug-In . SVG Version: 6.00 Build 0)  -->
<svg version="1.1" id="Layer_1" xmlns="http://www.w3.org/2000/svg" xmlns:xlink="http://www.w3.org/1999/xlink" x="0px" y="0px"
	 viewBox="0 0 200 200" style="enable-background:new 0 0 200 200;" xml:space="preserve">
<style type="text/css">
	.st0{fill:#8FB6D9;}
	.st1{fill:#F2F2F2;}
</style>
<title>icon</title>
<rect class="st0" width="200" height="200"/>
<g>
	<rect x="18.8" y="43.8" class="st1" width="75" height="12.5"/>
	<rect x="31.2" y="68.8" class="st1" width="12.5" height="37.5"/>
	<rect x="68.8" y="68.8" class="st1" width="12.5" height="37.5"/>
	<rect x="31.2" y="68.8" class="st1" width="50" height="12.5"/>
	<rect x="31.2" y="93.8" class="st1" width="50" height="12.5"/>
	<rect x="31.2" y="118.8" class="st1" width="50" height="12.5"/>
	<rect x="18.8" y="143.8" class="st1" width="75" height="12.5"/>
	<path class="st1" d="M56.2,137.5l-31.2,50h62.5L56.2,137.5z M56.2,162.5l7.8,12.5H48.4L56.2,162.5z"/>
	<rect x="93.8" y="18.8" class="st1" width="87.5" height="12.5"/>
	<rect x="106.2" y="43.8" class="st1" width="62.5" height="12.5"/>
	<rect x="131.2" y="12.5" class="st1" width="12.5" height="37.5"/>
	<rect x="106.2" y="68.8" class="st1" width="12.5" height="118.8"/>
	<rect x="156.2" y="68.8" class="st1" width="12.5" height="118.8"/>
	<rect x="112.5" y="68.8" class="st1" width="43.8" height="12.5"/>
	<rect x="118.8" y="131.2" class="st1" width="37.5" height="12.5"/>
	<rect x="118.8" y="156.2" class="st1" width="37.5" height="12.5"/>
	<rect x="93.8" y="106.2" class="st1" width="87.5" height="12.5"/>
	<rect x="131.2" y="75" class="st1" width="12.5" height="31.2"/>
	
		<rect x="47.2" y="6.3" transform="matrix(0.3539 -0.9353 0.9353 0.3539 11.1203 66.1343)" class="st1" width="12.5" height="37.5"/>
</g>
</svg>
