<svg width="1334" height="1334" viewBox="0 0 1334 1334" fill="none" xmlns="http://www.w3.org/2000/svg">
<g id="zaojing4" clip-path="url(#clip0_4117_2300)">
<g id="ring5">
<path id="path1" d="M396.841 932.771L221.625 1133.59C221.625 1133.59 224.961 1181.25 298.352 1227.97C371.75 1274.68 378.425 1317.57 378.425 1317.57C378.425 1317.57 428.94 1286.12 502.329 1306.14C575.748 1326.16 647.226 1321.38 662.477 1293.74L659.624 1041.13L396.841 932.771Z" fill="#C77964"/>
<path id="path3" d="M402.261 936.322L234.393 1128.71C234.393 1128.71 237.597 1174.37 307.897 1219.12C378.234 1263.86 384.605 1304.95 384.605 1304.95C384.605 1304.95 432.998 1274.82 503.337 1293.99C573.637 1313.18 642.13 1308.6 656.742 1282.12L654.555 1040.33L402.261 936.322Z" fill="#E8DBD4"/>
<path id="path19" d="M911.026 921.124L1095.39 1113.59C1095.39 1113.59 1094.26 1161.36 1023.12 1211.44C951.976 1261.5 947.307 1304.66 947.307 1304.66C947.307 1304.66 895.376 1275.58 822.975 1299C750.583 1322.41 678.963 1320.96 662.447 1294.05L659.623 1041.13L911.026 921.124Z" fill="#C77964"/>
<path id="path21" d="M905.787 924.931L1082.4 1109.3C1082.4 1109.3 1081.32 1155.07 1013.16 1203.02C944.997 1251 940.528 1292.35 940.528 1292.35C940.528 1292.35 890.773 1264.49 821.435 1286.91C752.085 1309.34 683.44 1307.96 667.629 1282.18L664.635 1040.09L905.787 924.931Z" fill="#E8DBD4"/>
<path id="path33" d="M286.209 685.286L17.8935 706.72C17.8935 706.72 -13.3492 743.524 6.73214 829.07C26.7921 914.611 1.34148 950.336 1.34148 950.336C1.34148 950.336 60.0508 963.232 98.9375 1029.51C137.852 1095.78 192.853 1142.77 223.392 1133.57L395.329 944.631L286.209 685.286Z" fill="#C77964"/>
<path id="path35" d="M287.618 691.679L30.5482 712.217C30.5482 712.217 0.64691 747.471 19.8816 829.418C39.1056 911.378 14.7189 945.563 14.7189 945.563C14.7189 945.563 70.9376 957.951 108.227 1021.43C145.487 1084.92 198.198 1129.94 227.443 1121.12L392.22 940.482L287.618 691.679Z" fill="#E8DBD4"/>
<path id="path47" d="M390.88 426.682L187.368 254.592C187.368 254.592 139.754 258.675 94.1831 332.788C48.6418 406.915 5.83909 414.25 5.83909 414.25C5.83909 414.25 38.0791 464.27 19.1871 537.968C0.324449 611.682 -6.01822 695.854 21.8591 710.686L286.628 691.134L390.88 426.682Z" fill="#C77964"/>
<path id="path49" d="M387.41 432.158L188.481 263.334C188.481 263.334 142.882 267.261 99.2222 338.254C55.5916 409.263 14.5849 416.285 14.5849 416.285C14.5849 416.285 45.4662 464.203 27.4009 534.811C9.29958 605.421 2.71023 686.597 29.4169 700.783L283.377 682.095L387.41 432.158Z" fill="#E8DBD4"/>
<path id="path65" d="M910.627 425.117L1077.66 208.489C1077.66 208.489 1077.3 149.923 996.252 105.017C915.248 60.0985 905.388 14.9412 905.388 14.9412C905.388 14.9412 853.724 51.6265 774.42 35.0745C695.116 18.5412 619.435 28.2292 604.992 58.5865L624.331 326.889L910.627 425.117Z" fill="#C77964"/>
<path id="path67" d="M904.656 421.709L1064.38 214.513C1064.38 214.513 1064.31 158.061 986.679 115.029C909.059 72.0076 899.645 28.7423 899.645 28.7423C899.645 28.7423 850.129 63.8823 774.125 48.0423C698.177 32.193 625.663 41.473 611.857 70.561L629.769 327.412L904.656 421.709Z" fill="#E8DBD4"/>
<path id="path83" d="M1023.62 678.768L1318.59 645.173C1318.59 645.173 1349.06 604.433 1322.39 515.716C1295.77 427.024 1320.25 387.794 1320.25 387.794C1320.25 387.794 1257.61 378.016 1212.41 310.812C1167.18 243.606 1106.26 197.722 1074.73 209.384L906.072 419.302L1023.62 678.768Z" fill="#C77964"/>
<path id="path85" d="M1021.71 672.137L1304.9 640.215C1304.9 640.215 1334.09 601.186 1308.5 516.215C1283 431.222 1306.44 393.675 1306.44 393.675C1306.44 393.675 1246.47 384.282 1203.17 319.91C1159.84 255.529 1101.46 211.557 1071.28 222.746L909.619 423.463L1021.71 672.137Z" fill="#E8DBD4"/>
<path id="path97" d="M905.979 917.649L1090.51 1109.95C1090.51 1109.95 1138.3 1110.84 1191.31 1041.84C1244.33 972.875 1303.75 941.651 1303.75 941.651C1303.75 941.651 1276.86 888.565 1303.29 817.224C1329.72 745.879 1344.79 662.815 1318.59 645.173L1021.33 669.447L905.979 917.649Z" fill="#C77964"/>
<path id="path99" d="M909.98 912.567L1090.34 1101.14C1090.34 1101.14 1136.08 1101.98 1186.9 1035.91C1237.67 969.813 1295.24 938.733 1295.24 938.733C1295.24 938.733 1269.5 887.871 1294.83 819.511C1320.14 751.165 1335.14 671.11 1310.04 654.239L1023.62 678.769L909.98 912.567Z" fill="#E8DBD4"/>
<path id="path115" d="M643.261 321.421L613.16 48.1798C613.16 48.1798 575.367 11.7704 490.52 34.5798C405.664 57.4024 369.164 33.1144 369.164 33.1144C369.164 33.1144 358.144 92.1918 293.16 133.222C228.184 174.257 177.167 224.385 187.368 254.592L387.562 426.705L643.261 321.421Z" fill="#C77964"/>
<path id="path117" d="M636.91 323.038L608.092 61.0216C608.092 61.0216 571.896 25.8762 490.606 47.7389C409.315 69.6016 374.346 46.3322 374.346 46.3322C374.346 46.3322 363.772 102.93 301.527 142.244C239.29 181.535 190.172 229.307 199.927 258.239L391.65 423.463L636.91 323.038Z" fill="#E8DBD4"/>
</g>
<g id="ring4">
<g id="ring4-C">
<path id="path5" d="M418.899 941.926L269.666 1112.97C269.666 1112.97 272.509 1153.56 335.022 1193.35C397.535 1233.13 403.241 1269.67 403.241 1269.67C403.241 1269.67 446.223 1242.88 508.765 1259.92C571.278 1276.98 632.166 1272.92 645.163 1249.37L631.347 1030.17L621.5 820L549 801L418.899 941.926Z" fill="#8AB0B0"/>
<path id="path51" d="M378.111 444.926L204.739 298.365C204.739 298.365 164.207 301.84 125.398 364.952C86.5965 428.098 50.1445 434.33 50.1445 434.33C50.1445 434.33 77.6112 476.938 61.5432 539.718C45.4659 602.493 50.4672 663.298 74.2085 675.925L293.161 658.725L467 651L519.5 564L378.111 444.926Z" fill="#8AB0B0"/>
<path id="path69" d="M886.582 416.798L1034.19 225.385C1034.19 225.385 1028.54 182.415 959.524 144.161C890.518 105.911 882.103 67.4432 882.103 67.4432C882.103 67.4432 838.12 98.7005 770.568 84.6099C703.016 70.5232 638.574 78.7712 626.262 104.642L655.088 336.725L674 520L761 570L886.582 416.798Z" fill="#8AB0B0"/>
<path id="path101" d="M920.61 900.834L1077.78 1064.61C1077.78 1064.61 1118.45 1065.37 1163.63 1006.63C1208.79 947.854 1261.76 917.083 1261.76 917.083C1261.76 917.083 1238.87 871.868 1261.36 811.09C1283.86 750.327 1285.23 689.326 1262.9 674.299L1027.26 697.018L820.5 714L787 765.5L920.61 900.834Z" fill="#8AB0B0"/>
</g>
<g id="ring4-B">
<path id="path7" d="M455.399 952.717L356.006 1120.72C356.006 1120.72 358.877 1140.75 393.894 1156.47C428.939 1172.2 436.099 1191.5 436.099 1191.5C436.099 1191.5 458.974 1181.49 489.713 1197.22C520.45 1212.96 542.631 1208.65 558.338 1208.65L611.962 1017.77L455.399 952.717Z" fill="#C77964"/>
<path id="path9" d="M463.118 952.637L371.217 1108.01C371.217 1108.01 373.851 1126.52 406.253 1141.07C438.646 1155.61 445.273 1173.45 445.273 1173.45C445.273 1173.45 466.418 1164.2 494.827 1178.75C523.254 1193.3 543.762 1189.32 558.319 1189.32L607.901 1012.8L463.118 952.637Z" fill="#E8DBD4"/>
<path id="path11" d="M477.6 961.94L397.488 1118.57L529.759 1176.49L585.103 1006.61L477.6 961.94Z" fill="#B7B5C1"/>
<path id="path13" d="M492.079 967.949L426.086 1103.57L506.141 1137.88L565.269 995.397L492.079 967.949Z" fill="#C77964"/>
<path id="path15" d="M494.522 969.984L433.549 1095.35L507.547 1127.07L562.207 995.345L494.522 969.984Z" fill="#E8DBD4"/>
<path id="path17" d="M516.903 978.412L461.111 1094.98L491.138 1108.57L544.001 988.571L516.903 978.412Z" fill="#8AB0B0"/>
<path id="path53" d="M367.88 481.588L198.348 384.837C198.348 384.837 178.364 388.004 163.18 423.277C148.015 458.551 128.819 465.995 128.819 465.995C128.819 465.995 139.192 488.713 123.943 519.695C108.672 550.685 113.312 572.771 113.55 588.497L305.263 639.149L367.88 481.588Z" fill="#C77964"/>
<path id="path55" d="M368.09 489.299L211.309 399.817C211.309 399.817 192.845 402.764 178.792 435.38C164.74 467.992 147.008 474.867 147.008 474.867C147.008 474.867 156.592 495.892 142.473 524.539C128.393 553.18 132.67 573.613 132.909 588.16L310.16 635.004L368.09 489.299Z" fill="#E8DBD4"/>
<path id="path57" d="M359.02 503.931L201.153 426.263L145.277 559.408L315.988 612.109L359.02 503.931Z" fill="#B7B5C1"/>
<path id="path59" d="M353.211 518.496L216.576 454.619L183.518 535.216L326.894 592.119L353.211 518.496Z" fill="#C77964"/>
<path id="path61" d="M351.232 520.978L224.912 461.945L194.346 536.447L326.892 589.049L351.232 520.978Z" fill="#E8DBD4"/>
<path id="path63" d="M343.132 543.483L225.712 489.518L212.592 519.747L333.396 570.747L343.132 543.483Z" fill="#8AB0B0"/>
<path id="path71" d="M847.106 407.703L941.898 222.712C941.898 222.712 937.552 201.62 899.312 187.168C861.063 172.702 852.22 152.64 852.22 152.64C852.22 152.64 828.536 164.768 794.851 150.022C761.175 135.29 737.9 141.279 721.158 142.296L676.48 348.651L847.106 407.703Z" fill="#C77964"/>
<path id="path73" d="M838.919 408.27L926.58 237.207C926.58 237.207 922.576 217.718 887.18 204.326C851.822 190.972 843.644 172.422 843.644 172.422C843.644 172.422 821.758 183.627 790.61 169.994C759.444 156.368 737.928 161.911 722.44 162.852L681.148 353.659L838.919 408.27Z" fill="#E8DBD4"/>
<path id="path75" d="M822.918 399.328L897.962 227.667L753.645 174.652L705.754 358.781L822.918 399.328Z" fill="#B7B5C1"/>
<path id="path77" d="M807.145 393.866L868.526 245.47L781.217 214.161L727.566 369.417L807.145 393.866Z" fill="#C77964"/>
<path id="path79" d="M804.406 391.869L861.149 254.686L780.428 225.741L730.826 369.264L804.406 391.869Z" fill="#E8DBD4"/>
<path id="path81" d="M780.086 384.348L831.837 256.854L799.063 244.338L750.611 375.297L780.086 384.348Z" fill="#8AB0B0"/>
<path id="path103" d="M934.566 865.437L1093.12 979.277C1093.12 979.277 1113.31 978.199 1132.08 944.688C1150.86 911.188 1186.76 877.416 1186.76 877.416C1186.76 877.416 1178.82 853.757 1197.22 824.516C1215.58 795.284 1213.27 772.833 1214.65 757.164L1013.2 715.225L934.566 865.437Z" fill="#C77964"/>
<path id="path105" d="M935.166 857.751L1081.8 963.029C1081.8 963.029 1100.49 962.027 1117.83 931.041C1135.18 900.055 1169.62 866.712 1169.62 866.712C1169.62 866.712 1162.27 844.816 1179.27 817.776C1196.26 790.751 1194.12 769.985 1195.4 755.505L1007.9 718.848L935.166 857.751Z" fill="#E8DBD4"/>
<path id="path107" d="M949.713 837.804L1103.3 923.625L1166.05 793.584L998.317 732.017L949.713 837.804Z" fill="#B7B5C1"/>
<path id="path109" d="M956.254 823.575L1089.36 894.502L1126.58 815.737L986.394 751.415L956.254 823.575Z" fill="#C77964"/>
<path id="path111" d="M958.375 821.188L1081.4 886.744L1115.86 813.948L986.223 754.487L958.375 821.188Z" fill="#E8DBD4"/>
<path id="path113" d="M967.615 799.135L1082.06 859.162L1096.76 829.661L978.778 772.425L967.615 799.135Z" fill="#8AB0B0"/>
</g>
<g id="ring4-A">
<path id="path23" d="M853.447 943.777L960.533 1106.99C960.533 1106.99 958.602 1127.11 924.337 1144.46C890.071 1161.8 883.825 1181.41 883.825 1181.41C883.825 1181.41 860.522 1172.47 830.515 1189.62C800.557 1206.75 778.223 1203.49 762.506 1204.24L700.061 1016.04L853.447 943.777Z" fill="#C77964"/>
<path id="path119" d="M588.439 339.297L531.079 150.679C531.079 150.679 514.241 139.155 478.587 154.533C442.991 169.899 423.719 162.045 423.719 162.045C423.719 162.045 415.579 185.92 382.902 198.103C350.234 210.273 338.293 229.693 327.578 241.424L433.189 411.555L588.439 339.297Z" fill="#C77964"/>
<path id="path121" d="M583.258 345.087L530.205 170.659C530.205 170.659 514.594 160.009 481.65 174.219C448.744 188.443 430.945 181.197 430.945 181.197C430.945 181.197 423.397 203.256 393.172 214.508C362.956 225.769 351.926 243.744 341.99 254.583L439.673 411.912L583.258 345.087Z" fill="#E8DBD4"/>
<path id="path123" d="M566.448 349.541L504.402 183.029L371.047 242.063L459.848 399.157L566.448 349.541Z" fill="#78514E"/>
<path id="path125" d="M552.091 356.23L496.082 214.565L415.885 250.82L481.706 392.06L552.091 356.23Z" fill="#C77964"/>
<path id="path127" d="M527.381 367.582L478.559 246.517L447.973 259.609L501.321 380.845L527.381 367.582Z" fill="#E8DBD4"/>
<path id="path25" d="M845.747 944.057L944.769 1094.98C944.769 1094.98 942.992 1113.6 911.292 1129.64C879.623 1145.67 873.833 1163.81 873.833 1163.81C873.833 1163.81 852.269 1155.54 824.545 1171.4C796.82 1187.24 776.169 1184.23 761.651 1184.91L703.912 1010.89L845.747 944.057Z" fill="#E8DBD4"/>
<path id="path27" d="M831.714 954.015L919.014 1106.78L789.586 1170.76L726.379 1003.64L831.714 954.015Z" fill="#78514E"/>
<path id="path29" d="M817.528 960.699L889.748 1093.1L811.348 1131.1L745.668 991.514L817.528 960.699Z" fill="#C77964"/>
<path id="path31" d="M793.226 972.295L854.36 1086.16L824.991 1101.13L766.594 983.708L793.226 972.295Z" fill="#E8DBD4"/>
<path id="path37" d="M314.438 741.034L124.057 792.29C124.057 792.29 112.01 808.762 126.214 844.858C140.438 880.948 131.966 899.927 131.966 899.927C131.966 899.927 155.565 908.835 166.689 941.898C177.793 974.956 196.828 987.507 208.19 998.616L381.638 898.534L314.438 741.034Z" fill="#C77964"/>
<path id="path39" d="M320.067 746.416L144.014 793.816C144.014 793.816 132.87 809.048 146.019 842.444C159.159 875.792 151.343 893.356 151.343 893.356C151.343 893.356 173.144 901.594 183.414 932.172C193.71 962.744 211.327 974.348 221.815 984.606L382.219 892.082L320.067 746.416Z" fill="#E8DBD4"/>
<path id="path41" d="M323.983 763.358L155.564 820.005L210.243 955.19L370.104 871.504L323.983 763.358Z" fill="#78514E"/>
<path id="path43" d="M330.191 777.914L186.816 829.327L220.424 910.633L363.726 849.417L330.191 777.914Z" fill="#C77964"/>
<path id="path45" d="M340.736 802.996L218.174 847.868L230.267 878.862L353.163 829.461L340.736 802.996Z" fill="#E8DBD4"/>
<path id="path87" d="M1004.36 628.259L1201.3 562.013C1201.3 562.013 1212.94 543.912 1195.66 506.851C1178.37 469.804 1186.05 449.277 1186.05 449.277C1186.05 449.277 1160.63 441.428 1146.82 407.368C1132.97 373.32 1112.14 361.335 1099.46 350.387L923.443 466.915L1004.36 628.259Z" fill="#C77964"/>
<path id="path89" d="M998.078 622.964L1180.24 561.701C1180.24 561.701 1190.97 544.948 1175.01 510.679C1159 476.441 1166.09 457.444 1166.09 457.444C1166.09 457.444 1142.59 450.185 1129.83 418.687C1117.02 387.183 1097.74 376.121 1086.04 366.015L923.262 473.736L998.078 622.964Z" fill="#E8DBD4"/>
<path id="path91" d="M992.859 605.394L1166.39 534.89L1100.13 396.202L937.324 494.606L992.859 605.394Z" fill="#78514E"/>
<path id="path93" d="M985.396 590.485L1132.92 527.112L1092.27 443.739L945.492 517.419L985.396 590.485Z" fill="#C77964"/>
<path id="path95" d="M972.664 564.781L1098.71 509.632L1083.96 477.809L957.879 537.732L972.664 564.781Z" fill="#E8DBD4"/>
</g>
</g>
<g id="ring3">
<path id="path129" d="M914.65 953.502C769.096 1099.06 533.078 1099.06 387.524 953.502C241.971 807.949 241.971 571.958 387.524 426.397C533.078 280.843 769.078 280.843 914.65 426.397C1060.2 571.958 1060.2 807.949 914.65 953.502Z" fill="#C77964"/>
<path id="path131" d="M900.312 939.179C762.66 1076.83 539.514 1076.83 401.853 939.179C264.21 801.531 264.21 578.362 401.853 440.72C539.496 303.078 762.66 303.078 900.312 440.72C1037.97 578.372 1037.97 801.542 900.312 939.179Z" fill="#E8DBD4"/>
<path id="path133" d="M874.832 913.688C751.252 1037.25 550.934 1037.25 427.353 913.688C303.773 790.127 303.773 589.776 427.353 466.219C550.934 342.647 751.252 342.647 874.832 466.214C998.393 589.786 998.393 790.116 874.832 913.688Z" fill="#C77964"/>
<path id="path135" d="M862.69 901.528C745.822 1018.38 556.371 1018.37 439.522 901.528C322.68 784.693 322.68 595.229 439.522 478.379C556.371 361.525 745.822 361.525 862.68 478.369C979.51 595.219 979.528 784.693 862.69 901.528Z" fill="#8AB0B0"/>
</g>
<g id="ring2">
<g id="leaf2">
<path id="path137" d="M674.712 638.356C674.712 638.356 777.756 601.832 773.373 550.148C768.981 498.431 732.357 498.288 714.559 503.66C714.559 503.66 718.971 445.198 654.604 441.076C590.275 436.931 577.781 485.891 577.781 485.891C577.781 485.891 516.001 494.054 516.296 546.982C516.581 599.916 583.857 627.212 583.857 627.212L674.712 638.356Z" fill="#C77964"/>
<path id="path139" d="M671.67 639.496C671.67 639.496 767.233 605.625 763.163 557.673C759.103 509.717 725.133 509.56 708.598 514.528C708.598 514.528 712.725 460.329 653.017 456.493C593.318 452.671 581.757 498.065 581.757 498.065C581.757 498.065 524.454 505.643 524.71 554.736C524.947 603.843 587.385 629.161 587.385 629.161L671.67 639.496Z" fill="#E8DBD4"/>
<path id="path141" d="M667.716 641.332C667.716 641.332 755.253 610.295 751.506 566.388C747.789 522.476 716.68 522.348 701.564 526.897C701.564 526.897 705.298 477.248 650.65 473.736C595.989 470.217 585.398 511.819 585.398 511.819C585.398 511.819 532.925 518.735 533.153 563.703C533.39 608.66 590.57 631.868 590.57 631.868L667.716 641.332Z" fill="#78514E"/>
<path id="path143" d="M649.164 551.746C649.164 551.746 694.203 503.053 649.982 499.967C605.724 496.871 649.164 551.746 649.164 551.746Z" fill="#C77964"/>
<path id="path145" d="M596.968 576.023C596.968 576.023 597.976 509.693 562.979 536.946C527.999 564.186 596.968 576.023 596.968 576.023Z" fill="#C77964"/>
<path id="path147" d="M681.102 584.504C681.102 584.504 742.008 610.736 730.18 568.004C718.334 525.282 681.102 584.504 681.102 584.504Z" fill="#C77964"/>
<path id="path149" d="M618.598 585.541C614.623 572.32 622.126 558.359 635.331 554.36C648.586 550.376 662.542 557.877 666.516 571.113C670.499 584.343 663.008 598.3 649.783 602.275C636.567 606.281 622.582 598.78 618.598 585.541Z" fill="#C77964"/>
<path id="path151" d="M629.551 582.246C627.374 575.058 631.471 567.486 638.641 565.317C645.827 563.145 653.406 567.224 655.563 574.406C657.722 581.59 653.682 589.173 646.475 591.326C639.287 593.489 631.729 589.438 629.551 582.246Z" fill="#8AB0B0"/>
</g>
<g id="leaf3">
<path id="path153" d="M691.379 652.784C691.379 652.784 727.907 549.755 779.572 554.123C831.303 558.524 831.446 595.154 826.083 612.932C826.083 612.932 884.547 608.531 888.672 672.883C892.808 737.218 843.854 749.73 843.854 749.73C843.854 749.73 835.686 811.491 782.758 811.192C729.799 810.944 702.522 743.644 702.522 743.644L691.379 652.784Z" fill="#C77964"/>
<path id="path155" d="M690.258 655.845C690.258 655.845 724.106 560.265 772.062 564.333C820.028 568.408 820.18 602.378 815.218 618.898C815.218 618.898 869.402 614.79 873.234 674.476C877.084 734.174 831.684 745.769 831.684 745.769C831.684 745.769 824.098 803.062 774.999 802.801C725.903 802.544 700.574 740.112 700.574 740.112L690.258 655.845Z" fill="#E8DBD4"/>
<path id="path157" d="M688.422 659.772C688.422 659.772 719.446 572.259 763.343 575.986C807.259 579.712 807.402 610.831 802.847 625.944C802.847 625.944 852.497 622.203 856.005 676.834C859.523 731.502 817.926 742.104 817.926 742.104C817.926 742.104 811.006 794.586 766.034 794.335C721.073 794.106 697.874 736.946 697.874 736.946L688.422 659.772Z" fill="#78514E"/>
<path id="path159" d="M777.975 678.341C777.975 678.341 826.683 633.285 829.783 677.533C832.863 721.772 777.975 678.341 777.975 678.341Z" fill="#C77964"/>
<path id="path161" d="M753.711 730.552C753.711 730.552 820.046 729.526 792.778 764.523C765.558 799.511 753.711 730.552 753.711 730.552Z" fill="#C77964"/>
<path id="path163" d="M745.241 646.414C745.241 646.414 718.991 585.498 761.737 597.335C804.475 609.177 745.241 646.414 745.241 646.414Z" fill="#C77964"/>
<path id="path165" d="M748.235 708.894C761.461 712.891 775.427 705.395 779.421 692.175C783.405 678.944 775.913 664.963 762.658 660.984C749.453 657 735.467 664.487 731.502 677.727C727.489 690.952 735.01 704.915 748.235 708.894Z" fill="#C77964"/>
<path id="path167" d="M751.525 697.95C758.713 700.123 766.29 696.043 768.449 688.857C770.615 681.678 766.566 674.101 759.378 671.933C752.19 669.779 744.603 673.839 742.455 681.018C740.297 688.214 744.346 695.787 751.525 697.95Z" fill="#8AB0B0"/>
</g>
<g id="leaf4">
<path id="path169" d="M695.316 742.584C695.316 742.584 791.552 794.472 779.335 844.873C767.041 895.292 730.847 889.825 714.075 881.805C714.075 881.805 709.473 940.249 645.259 934.462C581.052 928.706 576.193 878.416 576.193 878.416C576.193 878.416 516.409 860.864 524.795 808.624C533.163 756.352 603.861 739.685 603.861 739.685L695.316 742.584Z" fill="#C77964"/>
<path id="path171" d="M692.491 741C692.491 741 781.759 789.113 770.377 835.877C759.016 882.636 725.425 877.577 709.861 870.144C709.861 870.144 705.601 924.332 646.027 918.984C586.471 913.617 581.955 866.983 581.955 866.983C581.955 866.983 526.505 850.723 534.273 802.248C542.051 753.773 607.625 738.295 607.625 738.295L692.491 741Z" fill="#E8DBD4"/>
<path id="path173" d="M688.87 738.581C688.87 738.581 770.608 782.653 760.216 825.477C749.796 868.304 719.008 863.673 704.806 856.852C704.806 856.852 700.878 906.482 646.36 901.59C591.796 896.684 587.69 853.952 587.69 853.952C587.69 853.952 536.899 839.081 544.02 794.686C551.123 750.294 611.174 736.114 611.174 736.114L688.87 738.581Z" fill="#78514E"/>
<path id="path175" d="M656.8 824.27C656.8 824.27 693.898 879.28 649.697 875.558C605.505 871.855 656.8 824.27 656.8 824.27Z" fill="#C77964"/>
<path id="path177" d="M608.947 792.28C608.947 792.28 599.81 857.982 569.377 825.69C538.971 793.421 608.947 792.28 608.947 792.28Z" fill="#C77964"/>
<path id="path179" d="M693.385 796.792C693.385 796.792 757.599 780.181 739.354 820.604C721.11 861.012 693.385 796.792 693.385 796.792Z" fill="#C77964"/>
<path id="path181" d="M633.877 790.374C627.907 802.843 633.183 817.788 645.639 823.755C658.093 829.726 673.059 824.454 679.011 811.98C684.963 799.52 679.713 784.588 667.24 778.608C654.793 772.636 639.82 777.914 633.877 790.374Z" fill="#C77964"/>
<path id="path183" d="M644.183 795.318C640.931 802.087 643.821 810.202 650.581 813.435C657.36 816.678 665.441 813.821 668.675 807.05C671.945 800.267 669.083 792.171 662.304 788.939C655.525 785.693 647.435 788.554 644.183 795.318Z" fill="#8AB0B0"/>
</g>
<g id="leaf1">
<path id="path185" d="M595.513 736.541C595.513 736.541 542.137 831.937 491.936 818.92C441.707 805.872 447.736 769.733 456.017 753.109C456.017 753.109 397.659 747.599 404.457 683.479C411.197 619.364 461.54 615.275 461.54 615.275C461.54 615.275 480.024 555.767 532.155 564.989C584.265 574.164 599.839 645.111 599.839 645.111L595.513 736.541Z" fill="#C77964"/>
<path id="path187" d="M597.157 733.709C597.157 733.709 547.641 822.206 501.064 810.108C454.494 798.024 460.057 764.514 467.757 749.068C467.757 749.068 413.621 743.973 419.906 684.502C426.19 625.004 472.892 621.238 472.892 621.238C472.892 621.238 490.034 566.041 538.37 574.58C586.718 583.108 601.161 648.901 601.161 648.901L597.157 733.709Z" fill="#E8DBD4"/>
<path id="path189" d="M599.621 730.153C599.621 730.153 554.288 811.177 511.617 800.105C468.976 789.038 474.09 758.338 481.108 744.192C481.108 744.192 431.562 739.528 437.296 685.082C443.057 630.608 485.842 627.161 485.842 627.161C485.842 627.161 501.501 576.594 545.778 584.418C590.065 592.216 603.3 652.48 603.3 652.48L599.621 730.153Z" fill="#78514E"/>
<path id="path191" d="M514.441 696.738C514.441 696.738 458.858 732.948 463.251 688.823C467.673 644.679 514.441 696.738 514.441 696.738Z" fill="#C77964"/>
<path id="path193" d="M547.185 649.375C547.185 649.375 481.62 639.22 514.393 609.3C547.109 579.394 547.185 649.375 547.185 649.375Z" fill="#C77964"/>
<path id="path195" d="M541.348 733.718C541.348 733.718 556.95 798.213 516.81 779.336C476.706 760.449 541.348 733.718 541.348 733.718Z" fill="#C77964"/>
<path id="path197" d="M549.011 674.609C536.642 668.438 521.611 673.463 515.449 685.833C509.287 698.206 514.337 713.242 526.717 719.394C539.066 725.546 554.098 720.531 560.259 708.142C566.421 695.787 561.39 680.759 549.011 674.609Z" fill="#C77964"/>
<path id="path199" d="M543.915 684.834C537.201 681.497 529.025 684.236 525.688 690.953C522.332 697.65 525.069 705.813 531.783 709.146C538.524 712.488 546.672 709.777 550.009 703.061C553.356 696.333 550.636 688.196 543.915 684.834Z" fill="#8AB0B0"/>
</g>
</g>
<g id="ring1">
<path id="path201" d="M683.669 703.65C652.465 706.912 624.551 684.278 621.271 653.093C617.98 621.904 640.628 593.96 671.841 590.685C703.017 587.429 730.971 610.046 734.24 641.252C737.492 672.441 714.844 700.376 683.669 703.65Z" fill="#C77964"/>
<path id="path203" d="M682.985 696.956C655.479 699.841 630.834 679.88 627.963 652.389C625.063 624.888 645.039 600.253 672.545 597.373C700.041 594.483 724.666 614.444 727.566 641.964C730.418 669.455 710.481 694.065 682.985 696.956Z" fill="#E8DBD4"/>
<path id="path205" d="M687.568 791.391C656.353 794.671 628.42 772.038 625.169 740.839C621.889 709.639 644.527 681.711 675.721 678.448C706.925 675.17 734.849 697.812 738.12 729.002C741.391 760.191 718.753 788.13 687.568 791.391Z" fill="#C77964"/>
<path id="path207" d="M686.865 784.708C659.369 787.593 634.734 767.645 631.843 740.136C628.973 712.644 648.91 688.011 676.406 685.115C703.93 682.249 728.537 702.196 731.446 729.707C734.327 757.207 714.37 781.841 686.865 784.708Z" fill="#E8DBD4"/>
<path id="path209" d="M612.162 799.307C580.967 802.568 553.014 779.935 549.763 748.744C546.483 717.545 569.12 689.607 600.324 686.347C631.519 683.08 659.454 705.703 662.714 736.903C666.004 768.103 643.366 796.04 612.162 799.307Z" fill="#C77964"/>
<path id="path211" d="M611.459 792.618C583.963 795.499 559.319 775.547 556.458 748.037C553.567 720.541 573.523 695.906 601.019 693.03C628.525 690.139 653.15 710.101 656.041 737.602C658.922 765.107 638.946 789.722 611.459 792.618Z" fill="#E8DBD4"/>
<path id="path213" d="M608.929 711.48C577.734 714.75 549.801 692.122 546.512 660.922C543.25 629.722 565.888 601.794 597.082 598.52C628.268 595.253 656.201 617.896 659.481 649.076C662.772 680.28 640.124 708.218 608.929 711.48Z" fill="#C77964"/>
<path id="path215" d="M608.206 704.796C580.738 707.672 556.095 687.725 553.205 660.214C550.333 632.713 570.29 608.088 597.786 605.202C625.291 602.322 649.917 622.288 652.787 649.78C655.687 677.276 635.711 701.905 608.206 704.796Z" fill="#E8DBD4"/>
</g>
</g>
<defs>
<clipPath id="clip0_4117_2300">
<rect width="1333.33" height="1333.33" fill="white"/>
</clipPath>
</defs>
</svg>
