<svg xmlns="http://www.w3.org/2000/svg" xmlns:xlink="http://www.w3.org/1999/xlink" width="20" height="20" viewBox="0 0 20 20">
  <defs>
    <clipPath id="a">
      <circle cx="10" cy="10" r="10" fill="none"/>
    </clipPath>
  </defs>
  <title>people</title>
  <g clip-path="url(#a)">
    <rect width="20" height="20" fill="#e0adda"/>
    <polygon points="16 10 16 6 11 6 4 6 4 10 2 17 10 18 18 17 16 10" fill="#f1dbf3"/>
    <polygon points="14.333 20 15 16 13 15 12 15 10 16 8 15 7 15 5 16 5.667 20 14.333 20" fill="#9585a6"/>
    <polygon points="6.5 20 7.5 20 8 19 7.5 18 8 17 7.5 16 8 15 7.5 14 8 13 7 11 6 13 6.5 14 6 15 6.5 16 6 17 6.5 18 6 19 6.5 20" fill="#1a1a1a"/>
    <polygon points="12.5 20 13.5 20 14 19 13.5 18 14 17 13.5 16 14 15 13.5 14 14 13 13 11 12 13 12.5 14 12 15 12.5 16 12 17 12.5 18 12 19 12.5 20" fill="#1a1a1a"/>
    <polygon points="10 15 9 14.5 8 14 7.998 15 10 16 10 15" fill="#f5acc7"/>
    <polyline points="10 15 10 16 11.998 15 12 14 11 14.5 11 14.5 11 14.5 10 15" fill="#f7bcd2"/>
    <polyline points="10 6 6 6 6 11 8 14 10 15" fill="#f9e5d8"/>
    <polyline points="10 15 12 14 14 11 14 6 10 6" fill="#faeadf"/>
    <polygon points="8 7 10 8 12 7 8 7" fill="#f9cdde"/>
    <polygon points="10 1 8 2 7 5 13 5 12 2 10 1" fill="#1a1a1a"/>
    <polygon points="6 4 5 7 5 10 6 11 6 9 7 8 10 7 13 8 14 9 14 11 15 10 15 7 14 4 6 4" fill="#1a1a1a"/>
    <polygon points="13 3 7 3 2 6 18 6 13 3" fill="#6a5935"/>
  </g>
</svg>
