<svg xmlns="http://www.w3.org/2000/svg" xmlns:xlink="http://www.w3.org/1999/xlink" width="20" height="20" viewBox="0 0 20 20">
  <defs>
    <clipPath id="a">
      <circle cx="10" cy="10" r="10" fill="none"/>
    </clipPath>
  </defs>
  <title>people</title>
  <g clip-path="url(#a)">
    <rect width="20" height="20" fill="#ceccc4"/>
    <polygon points="15 9.286 15 8 5 8 5 9.286 3 19 13 19 15 9.286" fill="#333"/>
    <polygon points="12 15 14 16 15 18 14 20 6 20 5 18 6 16 8 15 12 15" fill="#e4f4bd"/>
    <rect x="8" y="13" width="4" height="2" fill="#d8b8a3"/>
    <polyline points="10 4 7 4 6 6 6 9 5 9 6 11 6.667 11 7 12 9 14 10 14" fill="#efcfb9"/>
    <polyline points="10 14 11 14 13 12 13.333 11 14 11 15 9 14 9 14 7 13 4 10 4" fill="#f2d6c2"/>
    <polygon points="14 9 15 8 15 7 16 6 16 4 15 2 14 1 11 2 9 2 6 1 5 2 4 4 4 6 5 7 5 8 6 9 6 8 7 6 7 8 13 8 13 6 14 8 14 9" fill="#333"/>
    <polygon points="15 3 14 13 13 16 12 18 13 14 14 8 15 3" fill="#333"/>
    <polygon points="5 3 6 13 7.021 16 8 18 7.036 14 6.018 8 5 3" fill="#333"/>
    <polygon points="10 16 8 14 8 15 9.5 16.5 7 19 7.042 20 12 15 12 14 10 16" fill="#f4d967"/>
    <polygon points="8 13 10 15 12 13 12 14 10 16 8 14 8 13" fill="#fff"/>
    <polygon points="14 4 15 4 15 5 14 4" fill="#e4f4bd"/>
    <polygon points="6 5 6 4 7 4 6 5" fill="#f4d967"/>
    <polygon points="7 4 7 3 8 3 7 4" fill="#f4d967"/>
  </g>
</svg>
