<svg xmlns="http://www.w3.org/2000/svg" xmlns:xlink="http://www.w3.org/1999/xlink" width="20" height="20" viewBox="0 0 20 20">
  <defs>
    <clipPath id="a">
      <circle cx="10" cy="10" r="10" fill="none"/>
    </clipPath>
  </defs>
  <title>people</title>
  <g clip-path="url(#a)">
    <rect width="20" height="20" fill="#789bb5"/>
    <polygon points="7 15 10 13 13 15 10 18 7 15" fill="#c6c8ce"/>
    <polygon points="12 16 12 18 10 19 8 18 8 16 8 14 9 14 12 14 12 16" fill="#e5d4cc"/>
    <polygon points="15.4 20 16 17 13 16 10 17 7 16 4 17 4.6 20 15.4 20" fill="#eaeaea"/>
    <polyline points="10 2 8 2 5.833 4 5 6 5.278 8 5 8 5 9 5.833 11 6.25 11 7 13 9 15 10 15" fill="#f2e0d6"/>
    <polyline points="10 15 11 15 13 13 13.75 11 14.167 11 15 9 15 8 14.722 8 15 6 14.167 4 12 2 10 2" fill="#f7e8df"/>
    <polyline points="10 18 12 16 12 15 10 17" fill="#f9f9f9"/>
    <polygon points="10 17 8 15 8 16 10 18 10 17" fill="#eaeaea"/>
    <polygon points="10 18 7.999 15.999 7 15 7 16 9.5 18.5 7.906 20 8.969 20 13 16 13 15 12 16 10 18" fill="#d1d3db"/>
    <polyline points="10 2 8 2 5.836 4 5 6 5.286 8 5.5 8 6 7 6.751 6 8.335 5 10 5" fill="#d5d6d4"/>
    <polyline points="10 5 11.665 5 13.249 6 14 7 14.5 8 14.714 8 15 6 14.123 4 12 2 10 2" fill="#d5d6d4" opacity="0.7"/>
  </g>
</svg>
