<svg id="Layer_1" data-name="Layer 1" xmlns="http://www.w3.org/2000/svg" width="36" height="36" viewBox="0 0 36 36"><title>XAJH</title><path d="M24.3451,21.9965l-5.248-9a1,1,0,0,0-.8449-.4961h-.019a1,1,0,0,0-.8442.4639l-5.7145,9.0005a1,1,0,0,0,.8443,1.536h1.7431a.9987.9987,0,0,0,.5453-.1618.9991.9991,0,0,0,.5453.1618h8.1287a1,1,0,0,0,.8639-1.5037ZM15.3525,22.5l1.9542-5.09L14.2619,22.5H12.5188l5.7144-9,5.248,9Z" fill="#fff"/><polyline points="18.233 13.5 23.481 22.5 15.353 22.5 17.307 17.41 14.262 22.5 12.519 22.5 18.233 13.5" fill="#232b4d"/></svg>