<svg xmlns="http://www.w3.org/2000/svg" xmlns:xlink="http://www.w3.org/1999/xlink" width="36" height="36" viewBox="0 0 36 36">
  <defs>
    <path id="xajh-city-a" d="M25.7331288,17.5644172 L25.7331288,20.6441718 L27.4969325,20.6441718 L27.4969325,23.1104294 L25.7331288,23.1104294 L25.7331288,29.0736196 L10.3773006,29.0736196 L10.3773006,23.1104294 L8.65030675,23.1104294 L8.65030675,20.6441718 L10.3773006,20.6441718 L10.3773006,17.5644172 L7.58282209,17.5644172 C6.92088639,17.5644172 6.39327903,17.2331288 6,16.5705521 C13.803681,15.392638 18,7 18,7 C18,7 22.196319,15.392638 30,16.5705521 C29.606721,17.2331288 29.0791136,17.5644172 28.4171779,17.5644172 C27.3654234,17.5644172 26.4829979,17.5644172 25.7331288,17.5644172 Z M21.5337423,17.5644172 C20.5842087,17.5644172 19.866183,17.5644172 18,17.5644172 L14.392638,17.5644172 L14.392638,20.6441718 L21.5337423,20.6441718 L21.5337423,17.5644172 Z"/>
  </defs>
  <g fill="none" fill-rule="evenodd" stroke-linecap="round" stroke-linejoin="round">
    <use fill="#4A4A4A" xlink:href="#xajh-city-a"/>
    <path stroke="#FFF" d="M26.2331288,18.0644172 L26.2331288,20.1441718 L27.9969325,20.1441718 L27.9969325,23.6104294 L26.2331288,23.6104294 L26.2331288,29.5736196 L9.87730061,29.5736196 L9.87730061,23.6104294 L8.15030675,23.6104294 L8.15030675,20.1441718 L9.87730061,20.1441718 L9.87730061,18.0644172 L7.58282209,18.0644172 C6.7356207,18.0644172 6.04955734,17.6336332 5.57003677,16.8257611 L5.19090324,16.1870161 L5.92537365,16.0761526 C8.99378569,15.6129961 11.7224498,13.968446 14.0910712,11.5069376 C15.089579,10.4692726 15.9550159,9.35596789 16.6829536,8.2430631 C16.9373458,7.85413657 17.1561091,7.49354347 17.3387887,7.17080953 C17.4471325,6.97940202 17.5186047,6.84475664 17.5527864,6.7763932 L18,5.88196601 L18.4472136,6.7763932 C18.4813953,6.84475664 18.5528675,6.97940202 18.6612113,7.17080953 C18.8438909,7.49354347 19.0626542,7.85413657 19.3170464,8.2430631 C20.0449841,9.35596789 20.910421,10.4692726 21.9089288,11.5069376 C24.2775502,13.968446 27.0062143,15.6129961 30.0746263,16.0761526 L30.8090968,16.1870161 L30.4299632,16.8257611 C29.9504427,17.6336332 29.2643793,18.0644172 28.4171779,18.0644172 C27.1680624,18.0644172 26.9640398,18.0644172 26.2331288,18.0644172 Z M21.0337423,18.0644172 C19.9317659,18.0644172 19.911917,18.0644172 18,18.0644172 L14.892638,18.0644172 L14.892638,20.1441718 L21.0337423,20.1441718 L21.0337423,18.0644172 Z"/>
  </g>
</svg>
