<svg xmlns="http://www.w3.org/2000/svg" xmlns:xlink="http://www.w3.org/1999/xlink" width="36" height="36" viewBox="0 0 36 36">
  <defs>
    <path id="xajh-mountain-a" d="M8.68059662,27 L5,27 L9.37426901,18.002924 L11.4619883,20.2894737 L17.128655,10 L20.8070175,15.3684211 L23.4415205,13.9269006 L28.9093567,19.494152 L31.7426901,27 L29.1946351,27 L27.119883,21.0350877 L24.0380117,18.251462 L26.7719298,21.2836257 L28.2305908,27 L9.73722829,27 L11.1637427,23.122807 L8.68059662,27 Z"/>
  </defs>
  <g fill="none" fill-rule="evenodd" stroke-linecap="round" stroke-linejoin="round">
    <use fill="#4A4A4A" xlink:href="#xajh-mountain-a"/>
    <path stroke="#FFF" d="M11.3606743,19.4369673 L17.0822835,9.04772939 L20.963817,14.7126701 L23.5332628,13.306747 L29.2660808,19.143798 L29.3771383,19.3175723 L32.4658693,27.5 L9.02049768,27.5 L9.11010338,27.2564563 L8.95412595,27.5 L4.20094326,27.5 L9.2467424,17.1217086 L11.3606743,19.4369673 Z"/>
  </g>
</svg>
