<svg id="Layer_1" data-name="Layer 1" xmlns="http://www.w3.org/2000/svg" width="36" height="36" viewBox="0 0 36 36"><title>XAJH</title><path d="M26.2331,18.3366v2.08h1.7638v3.4662H26.2331v5.9632H9.8773V23.8826H8.15V20.4164h1.727v-2.08H7.5828A2.2771,2.2771,0,0,1,5.57,17.098l-.3791-.6388.7345-.1108a14.3732,14.3732,0,0,0,8.1657-4.5693A22.4251,22.4251,0,0,0,16.683,8.5153c.2543-.389.4731-.75.6558-1.0723.1083-.1914.18-.326.214-.3944L18,6.1542l.4472.8944c.0342.0684.1057.203.214.3944.1827.3228.4015.6833.6558,1.0723a22.4251,22.4251,0,0,0,2.5919,3.2638,14.3732,14.3732,0,0,0,8.1657,4.5693l.7345.1108-.3791.6388a2.2771,2.2771,0,0,1-2.0128,1.2386Zm-5.1994,0H14.8926v2.08h6.1411Z" fill="#fff"/><path id="xajh-city-a" d="M25.7331,17.8642v3.08h1.7638V23.41H25.7331v5.9632H10.3773V23.41H8.65V20.944h1.727v-3.08H7.5828A1.7825,1.7825,0,0,1,6,16.87C13.8037,15.6925,18,7.3,18,7.3s4.1963,8.3927,12,9.5706a1.7825,1.7825,0,0,1-1.5828.9938Zm-4.1994,0H14.3926v3.08h7.1411Z" fill="#232b4d"/></svg>