<svg id="Layer_1" data-name="Layer 1" xmlns="http://www.w3.org/2000/svg" viewBox="0 0 400.42 400"><defs><style>.cls-1{fill:none;}.cls-2{fill:#3a3659;}.cls-3{fill:#2f2759;}.cls-4{fill:#1f1f52;}.cls-5{fill:#373259;}.cls-6{fill:#2a2359;}.cls-7{fill:#191a52;}.cls-8{fill:#352e59;}.cls-9{fill:#212353;}.cls-10{fill:#332b59;}.cls-11{fill:#1c1d52;}.cls-12{fill:#1f2053;}.cls-13{fill:#352f59;}.cls-14{fill:#363259;}.cls-15{fill:#232353;}.cls-16{fill:#231c59;}.cls-17{fill:#2f3052;}.cls-18{fill:#2f2859;}.cls-19{fill:#1d1d52;}.cls-20{fill:#261f59;}</style></defs><title>icon</title><polyline class="cls-1" points="212.64 320.58 212.86 321.32 213.17 320.3"/><path class="cls-1" d="M237.59,240.25l.31.26.15-.47Zm0,0,.31.26.15-.47Zm0,0,.31.26.15-.47Zm0,0,.31.26.15-.47Zm0,0,.31.26.15-.47Zm0,0,.31.26.15-.47Zm0,0,.31.26.15-.47Zm0,0,.31.26.15-.47Zm0,0,.31.26.15-.47Zm0,0,.31.26.15-.47Zm0,0,.31.26.15-.47Zm0,0,.31.26.15-.47Zm0,0,.31.26.15-.47Zm0,0,.31.26.15-.47Zm0,0,.31.26.15-.47Zm0,0,.31.26.15-.47Zm0,0,.31.26.15-.47Zm0,0,.31.26.15-.47Zm0,0,.31.26.15-.47Zm0,0,.31.26.15-.47Zm0,0,.31.26.15-.47Zm0,0,.31.26.15-.47Zm0,0,.31.26.15-.47Zm0,0,.31.26.15-.47Zm0,0,.31.26.15-.47Zm0,0,.31.26.15-.47Zm0,0,.31.26.15-.47Zm0,0,.31.26.15-.47Zm0,0,.31.26.15-.47Zm0,0,.31.26.15-.47Zm0,0,.31.26.15-.47Zm0,0,.31.26.15-.47Zm0,0,.31.26.15-.47Zm0,0,.31.26.15-.47Zm38-154.1-92-23-1,.23-1,.23-86,45L43.81,159.19l51.17-50-31.05,66.7L90.39,285.1l92,54,88.55-17.25,59.22-68.42L333,162.05ZM288.19,282.8l-75,37.5h0l-.53.28-88.91-25.13L80,201.15,139.84,96.5l94.3-10.35,62.67,43.13,24.73,73Zm-50-43.12-68.43-65,42.91,145.88-42.33-145.3Zm-.26.83.15-.47-.46.21Zm-.31-.26.31.26.15-.47Zm0,0,.31.26.15-.47Zm0,0,.31.26.15-.47Zm0,0,.31.26.15-.47Zm0,0,.31.26.15-.47Zm0,0,.31.26.15-.47Zm0,0,.31.26.15-.47Zm0,0,.31.26.15-.47Zm0,0,.31.26.15-.47Zm0,0,.31.26.15-.47Zm0,0,.31.26.15-.47Zm0,0,.31.26.15-.47Zm0,0,.31.26.15-.47Zm0,0,.31.26.15-.47Zm0,0,.31.26.15-.47Zm0,0,.31.26.15-.47Zm0,0,.31.26.15-.47Zm0,0,.31.26.15-.47Zm0,0,.31.26.15-.47Zm0,0,.31.26.15-.47Zm0,0,.31.26.15-.47Zm0,0,.31.26.15-.47Zm0,0,.31.26.15-.47Zm0,0,.31.26.15-.47Zm0,0,.31.26.15-.47Zm0,0,.31.26.15-.47Zm0,0,.31.26.15-.47Zm0,0,.31.26.15-.47Zm0,0,.31.26.15-.47Zm0,0,.31.26.15-.47Zm0,0,.31.26.15-.47Zm0,0,.31.26.15-.47Zm0,0,.31.26.15-.47Zm0,0,.31.26.15-.47Z"/><polygon class="cls-2" points="43.81 159.19 43.81 159.18 28.85 101.79 95.56 108.58 43.81 159.19"/><polygon class="cls-3" points="398.01 201.72 357.19 242.55 333.04 162.05 398.01 201.72"/><polygon class="cls-4" points="398.01 201.72 333.04 162.05 357.17 159.75 398.01 201.72"/><polygon class="cls-5" points="44.38 242.55 2.41 201.72 43.25 159.76 43.56 159.44 43.81 159.19 44.38 242.55"/><polygon class="cls-6" points="90.39 285.1 30.19 301 30.18 301 28.86 300.63 44.38 242.55 90.39 285.1"/><polygon class="cls-7" points="315.79 315 301.41 371.93 271.77 321.77 315.79 315"/><polygon class="cls-8" points="357.19 242.55 315.79 315 330.16 253.47 357.19 242.55"/><polygon class="cls-9" points="372.71 298.32 315.79 315 357.19 242.55 372.71 298.32"/><polygon class="cls-10" points="157.2 44.63 157.09 44.75 87.58 85.77 87.51 85.58 102.46 28.07 156.51 44.17 157.2 44.63"/><polygon class="cls-11" points="242.76 43.02 184.11 62.58 184.19 62.25 184.2 62.25 200.21 2.77 242.76 43.02"/><polygon class="cls-8" points="90.39 285.1 85.89 316.59 30.19 301 90.39 285.1"/><polygon class="cls-12" points="157.71 358.4 102.46 371.93 86.68 317.82 157.71 358.4"/><polygon class="cls-3" points="201.36 397.23 158.88 358.18 182.38 339.15 201.36 397.23"/><polygon class="cls-2" points="271.1 321.88 243.91 358.13 182.38 339.15 270.94 321.9 271.1 321.88"/><polygon class="cls-13" points="373.29 102.25 357.17 159.75 333.04 162.05 373.29 102.25"/><polygon class="cls-14" points="95.56 108.58 28.85 101.79 86.94 86.15 87.65 85.98 95.56 108.58"/><polygon class="cls-3" points="314.06 86.72 275.54 86.15 300.26 31.52 314.06 86.72"/><polygon class="cls-11" points="373.29 102.25 333.04 162.05 314.06 86.72 373.29 102.25"/><polygon class="cls-2" points="275.54 86.15 183.53 63.15 182.57 63.38 184.11 62.58 242.76 43.02 275.54 86.15"/><polygon class="cls-6" points="182.38 339.15 158.88 358.18 158.81 358.13 157.71 358.4 86.68 317.82 86.68 317.81 86.58 317.48 182.38 339.15"/><polyline class="cls-1" points="157.71 358.4 158.24 358.7 158.88 358.18"/><polygon class="cls-2" points="90.39 285.1 44.38 242.55 63.94 175.85 90.39 285.1"/><polygon class="cls-15" points="95.56 108.58 63.94 175.85 43.81 159.19 95.56 108.58"/><polygon class="cls-8" points="181.6 63.61 95.56 108.58 87.65 85.98 181.6 63.61"/><line class="cls-1" x1="184.68" y1="62" x2="184.2" y2="62.25"/><line class="cls-1" x1="183.88" y1="62.43" x2="181.6" y2="63.61"/><polyline class="cls-1" points="43.81 160.2 43.25 159.76 43.23 159.75 43.56 159.44"/><polyline class="cls-1" points="85.89 316.59 85.78 317.3 86.68 317.81"/><line class="cls-1" x1="86.58" y1="317.48" x2="85.78" y2="317.3"/><polygon class="cls-5" points="300.26 31.52 275.54 86.15 242.76 43.02 300.26 31.52"/><polygon class="cls-16" points="184.11 62.58 182.57 63.38 181.6 63.61 87.65 85.98 87.58 85.77 157.09 44.75 157.2 44.63 183.88 62.42 184.11 62.58"/><line class="cls-1" x1="87.58" y1="85.77" x2="86.93" y2="86.15"/><polygon class="cls-17" points="200.21 2.77 184.2 62.25 184.19 62.25 183.88 62.42 157.2 44.63 200.21 2.77"/><polygon class="cls-3" points="238.04 240.04 237.59 240.25 237.9 240.51 210.27 297.13 210.27 297.13 210.27 297.13 175.94 180.43 238.16 239.68 238.04 240.04"/><polygon class="cls-8" points="175.94 180.43 139.15 277.03 104.19 201.59 175.94 180.43"/><polygon class="cls-11" points="230.69 232.41 175.94 180.43 227.47 109.59 230.69 232.41"/><polygon class="cls-16" points="210.27 297.13 139.15 277.03 175.94 180.43 210.27 297.13"/><polygon class="cls-3" points="277.61 144.09 230.69 232.41 227.47 109.59 277.61 144.09"/><polygon class="cls-18" points="227.47 109.59 175.94 180.43 152.03 117.87 227.47 109.59"/><polygon class="cls-2" points="175.94 180.43 104.19 201.59 152.03 117.87 175.94 180.43"/><polygon class="cls-18" points="270.7 266.91 210.27 297.13 230.47 233.08 270.7 266.91"/><polygon class="cls-11" points="297.38 202.51 270.7 266.91 230.47 233.08 230.59 232.71 297.38 202.51"/><polygon class="cls-16" points="297.38 202.51 230.59 232.71 230.69 232.41 277.61 144.09 297.38 202.51"/><polygon class="cls-19" points="182.38 339.15 86.58 317.48 86.36 316.73 85.89 316.59 90.39 285.1 182.38 339.15"/><polygon class="cls-11" points="63.94 175.85 44.38 242.55 43.81 159.19 63.94 175.85"/><line class="cls-1" x1="30.18" y1="301" x2="29.43" y2="301.2"/><polygon class="cls-20" points="357.19 242.55 330.16 253.47 333.04 162.05 357.19 242.55"/><polygon class="cls-3" points="330.16 253.47 315.79 315 271.77 321.77 271.51 321.32 271.1 321.88 270.94 321.9 330.16 253.47"/><polygon class="cls-10" points="301.41 371.93 243.91 358.13 271.1 321.88 271.77 321.77 301.41 371.93"/><polygon class="cls-9" points="243.91 358.13 201.36 397.23 182.38 339.15 243.91 358.13"/><polygon class="cls-12" points="333.04 162.05 275.54 86.15 314.06 86.72 333.04 162.05"/></svg>