<svg xmlns="http://www.w3.org/2000/svg" viewBox="0 0 111.104 285.884"><title>patterns</title><g id="de8f0d66-be57-473a-9c2e-2bc80f42e94d" data-name="contents"><path d="M58.524,65.388l.61,1.946c.661-.074,1.446-.155,2.229-.252,3.465-.43,6.927-.879,10.394-1.29a5.263,5.263,0,0,1,4.463,2.87c.371,1.106-.13,1.877-1.454,1.919-1.936.062-3.878-.086-5.816-.047-3.256.066-6.511.208-9.911.323,0,.888,0,1.587,0,2.285-.024,4.43-.016,8.861-.089,13.29a7.044,7.044,0,0,1-1.661,5.038,4.3,4.3,0,0,1-3.713,1.514c-2.537-.274-5.078-.518-7.611-.823a10.347,10.347,0,0,1-1.719-.509l0-.255c.471-.173.951-.323,1.41-.523,1.622-.707,3.271-1.364,4.845-2.167a6.17,6.17,0,0,0,3.335-5.022A38.6,38.6,0,0,0,53.685,71.5c-1.619.172-3.184.323-4.746.506q-7.177.841-14.352,1.7a.478.478,0,0,0-.1.008c-2.311.8-4.277.019-6.151-1.3-.657-.463-1.417-.779-2.091-1.22a.829.829,0,0,1-.279-.682c.022-.156.344-.38.537-.385,1.933-.053,3.878.053,5.8-.113,6.732-.581,13.456-1.252,20.183-1.891a4.822,4.822,0,0,0,.477-.094c-.05-1.926-1.564-3-2.671-4.3l.273-.367,6.185,1.584c1.107-1.852,2.3-3.766,3.4-5.733.484-.865.166-1.33-.842-1.192-2.528.346-5.043.784-7.558,1.219-1.623.281-3.247.574-4.85.949a3.777,3.777,0,0,1-3.456-.689c-.739-.589-1.558-1.079-2.341-1.613l.1-.351c1.1-.16,2.2-.338,3.3-.476,2.021-.253,4.043-.5,6.069-.709.592-.06.846-.265.892-.872.228-3.02.49-6.037.575-9.141-5.106,4-10.248,7.762-16.283,10.081a106.747,106.747,0,0,1-18.136,5.5l-.146-.389c.372-.19.737-.395,1.117-.567a131.7,131.7,0,0,0,22.464-12.4A85.661,85.661,0,0,0,48.694,42a19,19,0,0,0,2.056-2.637l-.156-.252c-1.543.228-3.088.449-4.63.686-3.45.529-6.891,1.124-10.353,1.553a4.9,4.9,0,0,1-2.367-.634c-1.176-.526-2.294-1.183-3.427-1.8-.146-.079-.336-.272-.324-.393.014-.143.2-.318.36-.386a1.41,1.41,0,0,1,.657-.106c4.2.35,8.31-.517,12.439-1.043,2.723-.347,5.424-.866,8.139-1.288.472-.073.762-.165.736-.758a68.347,68.347,0,0,0-1.877-14.784,17.816,17.816,0,0,0-1.125-2.549c-.112-.249-.214-.5-.321-.754l.156-.275A6.51,6.51,0,0,1,50.322,17c2.166,1.224,4.284,2.532,6.434,3.785a1.967,1.967,0,0,1,1,2.172c-.349,3.7-.594,7.412-.874,11.12a5.21,5.21,0,0,0,.041.569c1.5-.277,2.965-.456,4.379-.829,2.372-.625,4.733-1.31,7.058-2.093a3.717,3.717,0,0,1,3.739.407c1.11.834,2.282,1.585,3.421,2.381.366.256.713.542,1.07.816A2.4,2.4,0,0,1,74.226,36.4a58.9,58.9,0,0,0-10.04.8c-2.05.259-4.1.543-6.407.85a69.391,69.391,0,0,0,16.7,12.715A148.527,148.527,0,0,0,93.623,59.14c-.112.1-.158.184-.22.2-4.009,1-8.02,1.979-12.027,2.983a2.38,2.38,0,0,1-2.439-.744q-8.1-7.962-16.252-15.87C61.13,44.2,59.507,42.76,57.9,41.3c-.372-.338-.8-.618-1.377-1.062L55.705,55.6c2.118-.407,4.2-.207,5.968-1.414a1.181,1.181,0,0,1,1.7.08c1.067.986,2.179,1.923,3.243,2.912.6.559.637.989-.149,1.591C64,60.654,61.631,62.66,59.234,64.634A6.557,6.557,0,0,0,58.524,65.388Z" fill="#ccc"/><path d="M66.5,230.162c3.524-.573,6.9-1,10.209-1.7,2.874-.606,4.788.75,6.517,2.668.77.854.511,1.651-.658,1.768a42.69,42.69,0,0,1-6.943.333c-5.95-.384-11.811.331-17.682,1.058-2.342.29-4.686.557-7.025.871a1.379,1.379,0,0,1-1.481-.641c-.522-.768-1.08-1.512-1.69-2.361L61.8,231.1V218.861c-1.878.152-3.645.259-5.4.444-3.825.4-7.644.861-11.471,1.242a1.888,1.888,0,0,1-1.278-.446c-1.013-.889-1.96-1.856-2.894-2.829a.691.691,0,0,1,.147-.647,2.081,2.081,0,0,1,.852-.081q9.84-.3,19.68-.591a.549.549,0,0,0,.16-.051c0-1.061.073-2.12-.014-3.165-.276-3.317-.524-6.64-.97-9.935a17.378,17.378,0,0,0-1.3-3.486c-.19-.509-.325-1.039-.485-1.559a5.54,5.54,0,0,1,1.612.216c2.284,1.051,4.537,2.169,6.793,3.282.541.267.668.674.624,1.339-.282,4.22-.475,8.446-.708,12.886,1.493-.194,2.867-.287,4.2-.562,3.637-.748,7.255-1.59,10.891-2.347a2.43,2.43,0,0,1,1.574.134c1.476.856,2.884,1.829,4.3,2.78a2.305,2.305,0,0,1,.575.651c.511.767.325,1.326-.564,1.5a9.62,9.62,0,0,1-2.309.215,121.8,121.8,0,0,0-17.436.4c-1.347.121-1.348.08-1.407,1.4C66.825,223.092,66.667,226.54,66.5,230.162Z" fill="#ccc"/><path d="M76.827,238.888c1.255,1.5,2.719,3.214,4.122,4.977a1.174,1.174,0,0,1-.1,1c-1.744,3.061-3.523,6.1-5.289,9.15a1.618,1.618,0,0,0-.14.338c.629.282,1.492.39,1.706.821a15.466,15.466,0,0,1,1.025,3.374c.021.092-.577.447-.909.484-2.633.291-5.266.591-7.908.779-4.286.3-8.578.526-13.028.792a10.418,10.418,0,0,1-.025,1.946,6.48,6.48,0,0,1-.751,2.138c-.534.862-.846.793-1.379-.064a13.587,13.587,0,0,1-1.507-5.458c-.655-4.472-1.343-8.94-2.127-13.39a26.984,26.984,0,0,0-1.216-3.456,3.417,3.417,0,0,1,.012-1.082,3.2,3.2,0,0,1,1.036.19,14.186,14.186,0,0,1,2.174,1.451,2.108,2.108,0,0,0,1.936.473c6.2-1.122,12.407-2.185,18.6-3.324A35.967,35.967,0,0,0,76.827,238.888Zm-20.45,19a4.881,4.881,0,0,0,.774-.005c4.7-.879,9.392-1.792,14.1-2.627.782-.139,1.11-.423,1.2-1.185.338-2.791.719-5.576,1.073-8.364a4.61,4.61,0,0,0-.029-.76,3.731,3.731,0,0,0-.456-.021c-5.309.5-10.616,1.019-15.926,1.5-.685.062-.745.425-.742.97.014,2.685.006,5.37.006,8.056C56.377,256.26,56.377,257.061,56.377,257.892Z" fill="#ccc"/><path d="M43.627,231.6a5.808,5.808,0,0,1-.092,1.541c-2.49,7.335-4.973,14.673-7.548,21.978-1.072,3.042-2.329,6.02-3.559,9-.5,1.2-.946,1.307-1.792.324-1.41-1.638-2.694-3.385-4.127-5.21.447-.442.879-.849,1.288-1.279a12.139,12.139,0,0,0,1.933-2.12c3.479-6.122,6.894-12.28,10.315-18.435,1.079-1.942,2.117-3.908,3.173-5.863Z" fill="#ccc"/><path d="M22.127,221.475l.69-.486c1.968,1,4.042,2.038,6.1,3.107A3.568,3.568,0,0,1,31,227.639q-.342,6.677-.76,13.349a3.059,3.059,0,0,1-.376.906l-.308.014c-.2-.615-.4-1.228-.59-1.846-1.3-4.325-2.478-8.691-3.937-12.961A42.069,42.069,0,0,0,22.127,221.475Z" fill="#ccc"/><path d="M27.709,217.758c.929-1.873,1.82-3.622,2.668-5.39a5.223,5.223,0,0,0-.7-5.893c-1.024-1.283-2.118-2.511-3.3-3.9.327-.047.6-.179.795-.1,3.294,1.322,6.619,2.577,9.848,4.044,2.074.942,2.144,1.459.48,3.054-2.658,2.548-5.439,4.969-8.2,7.4A6.862,6.862,0,0,1,27.709,217.758Z" fill="#ccc"/><path d="M51.472,152.165c.661-1.88,1.247-3.477,1.785-5.089a20.665,20.665,0,0,0,1.4-8.546,14.382,14.382,0,0,0-.878-2.818c-.08-.251-.13-.511-.193-.767.3.027.664-.049.882.1q1.733,1.159,3.4,2.416c.953.72,1.872,1.486,2.788,2.252a1.349,1.349,0,0,1,.272,1.97c-.494.79-.915,1.625-1.46,2.605,1.364-.274,2.579-.5,3.785-.765,2.712-.6,5.418-1.232,8.13-1.829a20.782,20.782,0,0,0,7.8-3.287,1.648,1.648,0,0,1,2.335.109c1.187,1.048,2.428,2.038,3.562,3.139a1.762,1.762,0,0,1,.391,1.359q-3.049,18.061-6.175,36.11a37.829,37.829,0,0,1-.8,3.79c-.36,1.285-.942,1.413-2.026.63-2.28-1.647-4.575-3.274-6.858-4.916-.443-.318-.862-.669-1.446-1.125a14.387,14.387,0,0,1,1.275-.844,10.091,10.091,0,0,0,5.728-7.338,135.251,135.251,0,0,0,3-21.479,8.274,8.274,0,0,0-.374-2.659,1.379,1.379,0,0,0-1.811-.993c-6.087,1.183-12.185,2.31-18.272,3.5a2.136,2.136,0,0,0-1.129.76,8.68,8.68,0,0,1-3.862,3.268C52.4,151.821,52.072,151.946,51.472,152.165Z" fill="#ccc"/><path d="M20.17,173.365a2.563,2.563,0,0,1,.443-.279q8.53-2.9,17.066-5.784c.491-.165.757-.385.754-.942-.016-3.194-.008-6.387-.008-9.73-1.355.441-2.551.812-3.735,1.218-2.474.848-4.937,1.731-7.419,2.554a1.661,1.661,0,0,1-1.182-.066c-1.046-.562-2.038-1.226-3.05-1.85l.022-.268c.5-.159,1-.333,1.5-.474,4.383-1.221,8.769-2.43,13.145-3.673a.861.861,0,0,0,.512-.627c-.146-3.88-.3-7.772-1.742-11.446-.4-1.007-1.071-1.9-1.561-2.876a3.943,3.943,0,0,1-.2-1.092c.374-.014.838-.179,1.108-.019,2,1.186,3.962,2.439,5.939,3.666a1.675,1.675,0,0,1,.821,1.617c-.04,2.973-.016,5.947-.016,9.107,2.364-.728,4.682-2.187,6.676.644a9.272,9.272,0,0,1-1.4.7c-1.45.446-2.929.8-4.374,1.263-.312.1-.747.5-.751.77-.052,3.2-.034,6.4-.034,9.711,2.01-.721,3.983-1.407,5.939-2.138a2.211,2.211,0,0,1,2.367.27c.758.619.752.971-.148,1.374-3.538,1.585-7.076,3.171-10.641,4.693-4.16,1.776-8.342,3.5-12.53,5.207a2.64,2.64,0,0,1-1.486.125c-1.89-.426-3.761-.933-5.637-1.419A1.711,1.711,0,0,1,20.17,173.365Z" fill="#ccc"/><path d="M47.778,140.258a16.914,16.914,0,0,0-.72-1.735q-2.817-4.974-5.684-9.919c-.109-.188-.422-.426-.584-.39-1.258.279-2.581.179-3.651,1.256a40.663,40.663,0,0,1-13.53,9.052c-.349.143-.7.277-1.046.412,1.834-1.731,3.758-3.345,5.443-5.178a45.127,45.127,0,0,0,9.223-13.783,28.79,28.79,0,0,0,.828-3.554,3.2,3.2,0,0,1,.5-.817c.21.19.5.341.616.577.956,1.94,1.859,3.907,2.823,5.843a2.267,2.267,0,0,1-.5,3.031c-.478.426-.871.946-1.46,1.6,3.36-.9,6.563-1.554,9.51-3.049.892-.452,1.813-.849,2.735-1.238.252-.107.665-.236.814-.117a6.731,6.731,0,0,1,2.514,3.171l-12.029,2.266c.367.234.632.388.881.565,2.052,1.457,4.111,2.9,6.148,4.384a1.471,1.471,0,0,1,.407,2.252c-.854,1.367-1.569,2.822-2.364,4.227A12.45,12.45,0,0,1,47.778,140.258Z" fill="#ccc"/><path d="M62.235,109.378c1.74,1.91,3.509,3.8,5.21,5.739,1.091,1.246,1.1,1.482.259,2.91-2.412,4.076-4.967,8.044-8.887,10.891-.418.3-.854.583-1.295.852a7.156,7.156,0,0,1-.75.345c.921-1.909,1.842-3.73,2.687-5.586a24.47,24.47,0,0,0,2.583-11.136c-.035-.932-.22-1.858-.284-2.79a6.88,6.88,0,0,1,.125-1.213Z" fill="#ccc"/><path d="M85.188,121.415c-2.079.47-3.914.954-5.776,1.291-3.747.678-7.511,1.264-11.264,1.914-1.406.244-2.478-.38-3.691-1.261,1.484-.433,2.819-.78,4.125-1.211,3.737-1.233,7.471-2.477,11.187-3.772a2.52,2.52,0,0,1,2.213.136A7.965,7.965,0,0,1,85.188,121.415Z" fill="#ccc"/><path d="M62.348,139c1.893-4.257,4.841-7.776,5.012-12.458.222.05.371.039.454.108,1.609,1.35,3.235,2.681,4.8,4.078.944.842.924.967-.006,1.823a28.2,28.2,0,0,1-8.246,5.54C63.774,138.338,63.2,138.617,62.348,139Z" fill="#ccc"/><path d="M60.25,159.584a5.567,5.567,0,0,1-1.193-.562.849.849,0,0,1,.049-1.52c2.549-1.646,5.121-3.257,7.7-4.858a.8.8,0,0,1,.705-.031c.96.642,1.91,1.3,2.81,2.026a.639.639,0,0,1-.043,1.135A30.543,30.543,0,0,1,60.25,159.584Z" fill="#ccc"/><path d="M69.62,167.328c-3.06.908-5.92,1.77-8.79,2.6a8.092,8.092,0,0,1-2.176.4,1.353,1.353,0,0,1-1.065-.68,1.328,1.328,0,0,1,.531-1.125c2.2-1.412,4.447-2.744,6.669-4.119a1.623,1.623,0,0,1,1.82-.02A7.967,7.967,0,0,1,69.62,167.328Z" fill="#ccc"/></g></svg>