<svg xmlns="http://www.w3.org/2000/svg" viewBox="0 0 396.288 83.458"><title>patterns</title><g id="56743476-2d4e-4acd-be65-e2120a4291a5" data-name="contents"><path d="M104.039,10.543c-1.676,1.122-2.654,2.261-3.674,2.3-.757.029-1.569-1.371-2.356-2.134.947-.729,1.809-1.787,2.874-2.062C101.517,8.482,102.47,9.548,104.039,10.543Z" fill="#fff"/><path d="M51.632,61.546C52.9,57.965,54.225,54.4,55.42,50.8,58.792,40.63,62,30.4,65.527,20.288a21.771,21.771,0,0,1,4.1-6.754c2.58-3.008,6.379-2.617,8.7.593,2.815,3.9,3.434,8.434,3.475,13.049.1,11.332.017,22.666.186,34a12.824,12.824,0,0,0,1.525,5.68c1.819,3.368,4.923,3.853,7.548,1.072A96.268,96.268,0,0,0,100.51,56.66a201.357,201.357,0,0,1,25.053-29.434,14.594,14.594,0,0,1,6.167-3.455c1.225-.335,3.04.8,4.315,1.675.507.347.272,1.776.419,3.107-.766-.408-.983-.449-1.023-.556-.508-1.372-.818-3.35-2.644-3.015a8.857,8.857,0,0,0-4.826,2.491c-2.42,2.768-3.865,12.034-2.824,16.283a10.262,10.262,0,0,0,2.631-1.6q3.222-3.79,6.166-7.812c1.028-1.4,1.652-3.1,2.714-4.471a12.88,12.88,0,0,1,2.774-2.085c.489,1.03,1.434,2.079,1.391,3.087-.242,5.8-.73,11.593-1.108,17.39-.119,1.822-.213,3.65-.212,5.475,0,1.609,1.029,2.1,2.341,1.495a10.667,10.667,0,0,0,3.253-2.218c4.005-4.23,7.89-8.574,11.846-12.851q6.6-7.138,13.25-14.234A2.978,2.978,0,0,1,175.2,27.6a82.079,82.079,0,0,1,1.2,8.88,7.828,7.828,0,0,0,.836,3.165c1.391-2.81,2.67-5.682,4.214-8.406a17.634,17.634,0,0,1,3.457-4.481c2.309-2.054,4.869-1.571,6.066,1.317a20.3,20.3,0,0,1,1.211,6.769c.209,4.645-.051,9.316.272,13.949.122,1.745,1.325,3.415,2.036,5.119a31.806,31.806,0,0,0,3.579-2.837q9.485-9.945,18.834-20.021c1.223-1.321,1.943-3.145,3.261-4.329a5.638,5.638,0,0,1,3.936-1.583c.766.115,1.686,2.182,1.762,3.42.367,5.973.483,11.962.662,17.946.049,1.635.007,3.273.007,5.671,1.61-1.915,2.723-3.3,3.9-4.624,5.136-5.793,10.3-11.558,15.426-17.363.811-.919,1.411-2.023,2.186-2.978a7.321,7.321,0,0,1,2.051-2.072c2.087-1.049,3.414-.151,3.3,2.182-.29,5.735-.707,11.465-.97,17.2a13.676,13.676,0,0,0,.608,3.18l.831.3c1.6-1.5,3.294-2.91,4.8-4.5,4.8-5.08,9.539-10.225,14.3-15.346a7.709,7.709,0,0,1,1.19-1.262c.93-.621,2.068-1.714,2.879-1.533a4.071,4.071,0,0,1,2.684,2.382,75.894,75.894,0,0,1,1.183,8.631,8.154,8.154,0,0,0,.832,3.259c1.379-2.775,2.64-5.618,4.18-8.3a18.627,18.627,0,0,1,3.613-4.668c2.139-1.9,4.646-1.489,5.769,1.107a20.4,20.4,0,0,1,1.388,6.967c.235,4.643.133,9.3.177,13.955a2.6,2.6,0,0,0,.113.989c.617,1.409,1.28,2.8,1.926,4.193A22.141,22.141,0,0,0,302.14,51.5C309.2,44.072,316.181,36.58,323.2,29.121c2.284-2.427,4.5-5.149,8.121-5.332,1.476-.075,3,.844,4.505,1.285a6.238,6.238,0,0,0,2.514.591c2.7-.481,4.146.232,4.31,2.927.226,3.73.076,7.484.053,11.228-.007,1.08-.183,2.159-.195,3.24-.03,2.743-.01,5.486-.01,9.054l22.8-24.989.84.67c-.692.9-1.326,1.849-2.084,2.686-6.649,7.343-13.4,14.6-19.92,22.051a13.858,13.858,0,0,0-2.668,5.709c-1.4,5.683-2.712,11.337-6.8,15.857-2.005,2.216-4.3,3.576-7.422,3.362-2.9-.2-4.61-1.439-4.3-4.293a14.935,14.935,0,0,1,2.47-6.315,29.479,29.479,0,0,1,5.333-5.919,7.1,7.1,0,0,0,2.563-5.577c.171-4.571.559-9.135.84-13.7a10.556,10.556,0,0,0-.275-1.615c-1.829,1.913-3.306,3.541-4.874,5.077-1.953,1.912-4.249,3.865-7.036,2.594-2.9-1.323-2.88-4.463-2.714-7.231.123-2.045.628-4.067,1.055-6.664-1.982,2.216-3.651,4.109-5.349,5.975q-6.727,7.389-13.489,14.747a13.636,13.636,0,0,1-2.3,1.913c-2.211,1.525-4.474,1.388-5.845-.891a15.654,15.654,0,0,1-2.368-6.663c-.4-5.894-.291-11.823-.38-17.738-.013-.877,0-1.754,0-2.631L289.9,28.2a10.535,10.535,0,0,0-1.953,2.219c-2.6,5.562-5.045,11.2-7.695,16.74a4.045,4.045,0,0,1-2.518,2.117c-1.528.2-2.226-1.045-2.332-2.6-.294-4.316-.658-8.627-1-12.94-.116-1.47-.244-2.939-.418-5.029-4.354,4.582-8.326,8.7-12.227,12.892-1.929,2.071-3.69,4.3-5.593,6.394-2.515,2.771-4.849,3.531-7.214,2.468-2.446-1.1-4.453-4.633-4.2-7.641.281-3.389.681-6.768,1.117-11-2.177,2.355-4.012,4.207-5.7,6.188-4.039,4.753-7.99,9.582-12.013,14.349-1.371,1.624-1.511,3.514-1.809,5.521a78.274,78.274,0,0,1-2.729,12.811c-.9,2.765-2.633,5.581-5.884,6.308-1.378.308-3.484.193-4.309-.654s-.955-3.045-.469-4.294c.982-2.525,2.731-4.741,3.885-7.215a12.719,12.719,0,0,0,1.485-5.307c-.171-8.975-.6-17.945-.948-27.191-2.077,2.216-4.267,4.5-6.4,6.838-4.436,4.858-8.778,9.8-13.292,14.587-1.827,1.936-3.715,4.621-6.914,3.3s-4.178-4.492-4.333-7.619c-.3-6.072-.263-12.16-.361-18.241-.014-.886,0-1.773,0-2.66l-.633-.341a10.036,10.036,0,0,0-1.972,2.17q-3.876,8.221-7.542,16.539c-.6,1.35-1.092,2.987-2.834,2.348a4.032,4.032,0,0,1-2.1-2.8c-.542-4.2-.753-8.448-1.087-12.678-.117-1.479-.237-2.958-.426-5.3-5.592,6.116-10.7,11.662-15.759,17.252-2.849,3.149-5.381,6.632-8.506,9.468a18.4,18.4,0,0,1-7.306,3.921c-3.754,1.024-5.951-.922-5.921-4.845.026-3.4.477-6.792.73-10.188.121-1.626.219-3.254.328-4.882l-.615-.36c-2.4,2.474-4.79,4.96-7.208,7.417-1.46,1.483-3.48,2.4-5.153,1.27-1.177-.8-1.915-2.816-2.084-4.372-.179-1.647.5-3.4.9-5.089a25.127,25.127,0,0,1,1-2.768l-.521-.388c-3.3,3.952-6.688,7.834-9.879,11.872-5.929,7.5-11.507,15.3-17.687,22.582-4.263,5.026-11.556,5.141-15.4.574a14.331,14.331,0,0,1-2.844-6.735,53.738,53.738,0,0,1-.345-10.192c.368-10.989.911-21.972,1.282-32.96a14.582,14.582,0,0,0-.784-4.623c-.6-1.953-1.947-1.967-3.148-.6a11.151,11.151,0,0,0-2.173,3.588c-4.023,11.7-7.912,23.446-11.94,35.144a77.221,77.221,0,0,1-3.919,9.414c-.541,1.081-2.055,2.42-3.03,2.348a4.765,4.765,0,0,1-3.247-2.47A13.062,13.062,0,0,1,44.984,57.1c.25-7.979.875-15.945,1.141-23.924.193-5.771.038-11.555.038-16.908-4.473,4.251-10.362,8.9-15.25,13.541l-.765-.792c2.039-2.1,4.2-4.108,6.09-6.337,3.217-3.789,7.32-7.678,10.347-11.62.727-.947.913-2.293,1.458-3.4a10.879,10.879,0,0,1,1.264-1.684c.621.486,1.586.854,1.8,1.48a26.694,26.694,0,0,1,1.785,6.707,174.128,174.128,0,0,1-1.685,41.582c-.227,1.308-.306,2.645-.4,3.972A12.6,12.6,0,0,0,50.9,61.4ZM326.417,44.286c.663.042.873.124.985.052,5.932-3.822,8.182-9.517,8.133-16.3-.016-2.175-1.635-3.059-3.63-2.15a2.926,2.926,0,0,0-1.366,1.009C327.616,32.3,325.7,37.946,326.417,44.286Zm6.439,17.74-.911-.508c-2.4,3.021-4.954,5.939-7.147,9.1a3.585,3.585,0,0,0,.985,5.128c1.672,1.135,3.217.2,4.475-1.366C333.27,70.636,332.239,66.188,332.856,62.026ZM218.973,66.037l-.836-.321a69.151,69.151,0,0,0-3.461,6.972c-.326.866.443,2.145.713,3.235a16.49,16.49,0,0,0,2.918-1.823,3.272,3.272,0,0,0,.637-2.09C219.027,70.022,218.973,68.029,218.973,66.037ZM255.461,9.707c-1.676,1.122-2.654,2.261-3.674,2.3-.757.029-1.569-1.37-2.356-2.134.947-.729,1.809-1.787,2.874-2.062C252.939,7.646,253.892,8.712,255.461,9.707Zm-32.39-.388a36.9,36.9,0,0,1-4.211,3.263c-.179.1-1.746-1.263-1.764-1.972-.051-2,1.577-2.553,3.257-2.558C220.978,8.051,221.6,8.609,223.071,9.318Z" fill="#999"/></g></svg>