<svg xmlns="http://www.w3.org/2000/svg" viewBox="0 0 111.104 285.884"><title>patterns</title><g id="6057df2d-7204-4c1a-92e1-995730b01051" data-name="contents"><path d="M58.4,138.3c-2.881.316-5.678.572-8.461.939-6.922.913-13.837,1.876-20.755,2.821a9.053,9.053,0,0,0-.955.163,6.839,6.839,0,0,1-4.961-.688c-1.978-1.026-4-1.967-5.987-2.978-.238-.121-.368-.452-.549-.686a3.059,3.059,0,0,1,.783-.234c3.784-.078,7.574-.026,11.35-.23,3.969-.214,7.926-.656,11.886-1.02q7.872-.723,15.742-1.48c.312-.029.623-.066,1.131-.12a19.911,19.911,0,0,0-7.061-9.078,2.614,2.614,0,0,1,.7-.139c1.846.259,3.686.556,5.535.792a1.031,1.031,0,0,0,.849-.31,22.742,22.742,0,0,0,2-3.638c1.068-2.838,1.972-5.737,2.922-8.619a2.3,2.3,0,0,0,.1-1.045c-.151-.931-.511-1.077-1.4-.8q-7.439,2.346-14.89,4.654c-2.591.8-5.184,1.6-7.788,2.358a1.554,1.554,0,0,1-1.176-.082c-1.989-1.44-3.933-2.943-5.884-4.434-.086-.066-.111-.211-.244-.479.739,0,1.365-.028,1.988,0a54.534,54.534,0,0,0,15.775-1.461c3.3-.8,6.621-1.479,9.915-2.286a6.987,6.987,0,0,0,2.347-1.066c1.551-1.107,3.034-2.314,4.507-3.527a2.14,2.14,0,0,1,3.381.408c1.308,2.228,2.522,4.516,3.65,6.84a1.936,1.936,0,0,1-.39,1.649,71.472,71.472,0,0,1-5.13,5.68c-2.758,2.627-5.683,5.079-8.574,7.639.75,1.123,1.617,2.354,2.409,3.632a15.274,15.274,0,0,1,1.114,2.253.776.776,0,0,0,.929.594c5.234-.594,10.48-1.1,15.7-1.793a53.828,53.828,0,0,0,5.344-1.371,4,4,0,0,1,1.815-.084c2.254.558,4.5,1.155,6.715,1.855,1.43.452,1.749,1.031,1.5,2.073a2.3,2.3,0,0,1-2.373,1.6c-3.23,0-6.465-.068-9.689.088-6.072.294-12.137.727-18.2,1.106-.252.016-.5.078-.785.124.1,2.005.3,3.968.282,5.929-.039,4.2-.08,8.405-.323,12.6a57.118,57.118,0,0,1-2.681,13.375c-1.037,3.387-.879,2.96-3.952,2.57-3.909-.5-7.8-1.138-11.68-1.833A35.774,35.774,0,0,1,40.68,169.3l.04-.282c1.169-.169,2.34-.328,3.508-.508a24.317,24.317,0,0,0,8.425-2.76c2.878-1.633,4.2-4.249,4.89-7.338a61.222,61.222,0,0,0,1.049-19C58.561,139.087,58.485,138.773,58.4,138.3Z" fill="#ccc"/><path d="M63.961,33.225c2.141-.293,4.116-.533,6.081-.839,3.8-.59,7.59-1.219,11.386-1.824a1.141,1.141,0,0,1,.666.028,13.754,13.754,0,0,1,4.594,3.823c-1.1.108-2.207.305-3.31.308-6.851.017-13.576,1.251-20.348,2.033a1.3,1.3,0,0,0-1.14.862c-1.718,3.69-3.473,7.364-5.232,11.036a11.968,11.968,0,0,1-.882,1.5c-.516.766-.393,1.1.561,1.125a18.838,18.838,0,0,0,2.514-.149c2.051-.216,4.1-.462,6.424-.727l-1.512-9.171a1.09,1.09,0,0,1,.381.118c1.935,1.294,3.854,2.613,5.8,3.894a1.289,1.289,0,0,1,.618,1.368c-.082,1.019-.022,2.05-.022,3.2,1.745-.226,3.495-.45,5.243-.681,2.5-.331,5-.672,7.5-.992a.888.888,0,0,1,.622.123,9.479,9.479,0,0,1,2.925,4.276c-1.63.109-3.132.2-4.633.312-3.644.271-7.285.569-10.931.815-.782.053-.926.4-.928,1.1-.016,7.637-.029,15.274-.121,22.91-.024,1.961-.319,3.92-.508,5.878a3.471,3.471,0,0,1-.24.835c-.62,1.69-.99,1.788-2.474.891-2.405-1.453-4.849-2.842-7.271-4.269-.321-.189-.605-.439-1.072-.782.493-.3.818-.534,1.172-.707,1.306-.637,2.626-1.245,3.932-1.881a1.722,1.722,0,0,0,1.112-1.571q.185-10.476.366-20.952a9.108,9.108,0,0,0-.093-.931c-1.685.234-3.356.344-4.966.72-2.387.556-4.739,1.269-7.086,1.982a1.331,1.331,0,0,1-1.736-.552c-.193-.3-.419-.576-.615-.873-1.686-2.556-1.686-2.84.21-5.16a36.037,36.037,0,0,0,6.449-12.069c.065-.2.1-.419.176-.776-1.591.278-3.071.579-4.564.773a2.5,2.5,0,0,1-1.537-.253c-1.2-.752-2.336-1.621-3.478-2.468a2.276,2.276,0,0,1-.411-.592,2.853,2.853,0,0,1,.746-.286c3.213-.264,6.427-.526,9.644-.74.6-.04.742-.347.856-.821a55.358,55.358,0,0,0,1.692-11,25.388,25.388,0,0,0-.2-2.8c-.028-.372-.055-.744-.094-1.26a5.713,5.713,0,0,1,.914.377c2.044,1.362,4.106,2.7,6.1,4.128,1.187.849,1.145.946.555,2.236q-1.7,3.7-3.39,7.4C64.273,32.441,64.163,32.736,63.961,33.225Z" fill="#ccc"/><path d="M27.671,32.466a4.778,4.778,0,0,1-4.418-2.023c.436-.16.834-.328,1.246-.455,2.623-.812,5.274-1.542,7.864-2.448a24.949,24.949,0,0,0,4.463-2.075A49.233,49.233,0,0,0,40.864,22.5c1.123,1.038,2.34,2.1,3.458,3.248a1.606,1.606,0,0,1,.208,1.289c-.407,1.66-.933,3.291-1.364,4.946a9.186,9.186,0,0,0,.039,4.606A25.57,25.57,0,0,0,46.835,45.2c1.076,1.548,1.042,1.6-.285,2.88-.836.806-1.717,1.568-2.6,2.319a1.484,1.484,0,0,1-2.015.031c-2.022-1.39-4.093-2.711-6.155-4.066l3.333-2.112a2.235,2.235,0,0,0,1.013-2.574c-.446-2.577-.785-5.174-1.1-7.771a17.448,17.448,0,0,1,.028-2.519,2.21,2.21,0,0,0-2.755-2.132,28.856,28.856,0,0,0-3.083,1.158,1.051,1.051,0,0,0-.445.814c0,4.952.011,9.9.064,14.855.043,3.979.164,7.956.217,11.935.081,6.115.169,12.229.184,18.344.007,2.742-.131,5.485-.256,8.226a5.632,5.632,0,0,1-.443,1.778c-.409,1.026-1.1,1.136-1.648.193a34.793,34.793,0,0,1-1.733-3.668c-1.695-3.93-1.357-8-.931-12.118A117.516,117.516,0,0,0,28.8,51.882q-.528-9.152-1.03-18.306C27.753,33.229,27.71,32.883,27.671,32.466Z" fill="#ccc"/><path d="M42.9,78.457A51.6,51.6,0,0,0,46.631,74.7c1.876-2.3,3.658-4.678,5.344-7.117A5.253,5.253,0,0,0,53,62.833a4.139,4.139,0,0,1-.01-.984A14.9,14.9,0,0,1,54.6,62.991c1.058,1,2.03,2.084,3.106,3.059a1.053,1.053,0,0,1,.027,1.786c-1.65,1.638-3.258,3.321-4.966,4.9-1.35,1.247-2.823,2.362-4.24,3.536A12.827,12.827,0,0,1,43.042,78.7Z" fill="#ccc"/><path d="M83.943,77.123c-1.872-4.1-3.674-8.068-5.495-12.025-.31-.674-.724-1.3-1.038-1.971a2.284,2.284,0,0,1-.06-.79c.235.028.527-.024.7.1,2.852,2.006,5.761,3.941,8.5,6.091,1.543,1.211,1.623,2.095.718,3.852a44.45,44.45,0,0,1-2.578,4.083A3.761,3.761,0,0,1,83.943,77.123Z" fill="#ccc"/><path d="M90.017,256.686l-8.244,2.974a1.409,1.409,0,0,0-.277.085c-1.909,1.211-3.475.763-5.262-.564-5.5-4.087-11.145-7.981-16.738-11.943-.912-.646-1.848-1.258-2.919-1.984-.083,2.529-.092,4.847-.249,7.156-.271,3.965-.619,7.926-.968,11.885a4.8,4.8,0,0,1-2.059,3.379,1.214,1.214,0,0,1-1.124.1c-2.057-1.537-4.063-3.142-6.064-4.712,1.073-.291,2.108-.506,3.094-.857a3.691,3.691,0,0,0,2.438-2.463c1.06-3.62.875-7.331.817-11.34-.471.44-.732.692-1,.935-4.476,4.017-8.921,8.067-13.441,12.033a15.491,15.491,0,0,1-8.207,3.673,3.632,3.632,0,0,1-1.383-.027c.308-.208.607-.43.925-.622A72.079,72.079,0,0,0,42.627,254.34a31.326,31.326,0,0,0,6.549-9.2,1.724,1.724,0,0,0,.155-.831c-5.5,4.827-11.985,7.682-18.846,9.787l-.218-.242a3.516,3.516,0,0,1,.688-.683,80.394,80.394,0,0,0,13.893-9.867,7.878,7.878,0,0,0,2.805-5.826c-5.215,3.2-10.335,6.311-16.48,7.044A67.343,67.343,0,0,0,47.99,232.748l-.134-.272c-2.968.616-5.954,1.155-8.9,1.877a4.557,4.557,0,0,1-4.707-1.117,7.635,7.635,0,0,1,1.172-.444c4.689-.936,9.392-1.806,14.066-2.809a14.066,14.066,0,0,0,3.374-1.4c2.051-1.057,3.152-.969,5.035.679l-8.8,7.458c.836,2.237,2.061,4.2,4.8,4.837,1.428-1.371,3-2.851,4.541-4.371s3.081-3.054,4.542-4.654a10.921,10.921,0,0,0,1.495-2.308c.3-.564.631-.691,1.021-.245,1.042,1.191,2.04,2.421,3.031,3.655.448.559.039.874-.415,1.131q-6.323,3.586-12.648,7.169l-.594.334a88.313,88.313,0,0,0,16.054,7.55c6.214,2.087,12.358,4.382,18.532,6.589C89.6,256.459,89.73,256.542,90.017,256.686Z" fill="#ccc"/><path d="M76.176,222.465c-2.03,0-3.775-.095-5.508.015-13.328.843-26.421,3.263-39.475,5.939-.221.045-.438.121-.66.156a3.188,3.188,0,0,0-2.858,2.693c-.621,2.538-1.46,5.023-2.227,7.525a4.067,4.067,0,0,1-2.15,2.39,19.486,19.486,0,0,1-1.53-1.823,3.519,3.519,0,0,1-.256-3.751c1.235-2.507,1.42-5.287,1.834-8,.19-1.244.212-2.512.364-3.762a.966.966,0,0,1,.471-.7,1.036,1.036,0,0,1,.813.265,19.587,19.587,0,0,1,1.962,1.873,3.144,3.144,0,0,0,3.15.995c6.092-.993,12.183-1.991,18.282-2.937,5.109-.793,10.231-1.5,15.344-2.274,4.634-.7,9.28-1.34,13.885-2.2a5.187,5.187,0,0,1,3.5.407c1.212.608,2.444,1.176,3.648,1.8.646.334.752.794.089,1.243-2.433,1.648-4.845,3.331-7.325,4.906-.981.623-1.377.292-1.36-.851C76.191,225.081,76.176,223.792,76.176,222.465Z" fill="#ccc"/><path d="M61.678,213.931a14.876,14.876,0,0,1,1.849,1.056,1.364,1.364,0,0,1,.506.994c-.016.22-.51.538-.824.586-5.656.865-11.317,1.7-16.977,2.535a4.241,4.241,0,0,1-.764.125c-.99-.041-1.322.355-1.454,1.39a3.846,3.846,0,0,1-1.355,2c-.735.663-1.493.176-1.666-.8-.707-3.973-1.468-7.936-2.231-11.9a11.25,11.25,0,0,0-.56-1.517c.506.045,1-.064,1.247.137,1.695,1.4,3.534,1.351,5.558.9,4.069-.9,8.183-1.593,12.251-2.5a12.706,12.706,0,0,0,3.14-1.459,1.078,1.078,0,0,1,1.385.084c.8.655,1.63,1.274,2.453,1.9a.885.885,0,0,1,.24,1.329C63.521,210.48,62.621,212.192,61.678,213.931ZM44.11,217.681c1.94-.378,3.747-.709,5.545-1.086,3.03-.636,6.057-1.288,9.076-1.975.3-.068.766-.427.763-.646-.019-1.633-.137-3.265-.229-5l-2.237.381c-4.166.712-8.334,1.415-12.494,2.159-.276.049-.71.424-.7.639C43.873,213.956,44,215.753,44.11,217.681Z" fill="#ccc"/><path d="M30.413,203.733c1.327-.178,2.66-.314,3.979-.54,9.779-1.68,19.558-3.356,29.325-5.1a21.327,21.327,0,0,0,3.332-1.256A6.377,6.377,0,0,1,68.7,196.4a7.069,7.069,0,0,1,4.229,1.183c.391.238.617.747.918,1.132-.371.269-.709.691-1.119.779-1.7.366-3.422.669-5.146.925-6.458.962-12.927,1.85-19.377,2.859-4.885.764-9.747,1.67-14.621,2.5a1.032,1.032,0,0,1-.649-.034c-.889-.555-1.752-1.152-2.623-1.734Z" fill="#ccc"/><path d="M51.2,199.718c-2.026-2.741-3.99-5.377-5.916-8.041a1.2,1.2,0,0,1-.12-1c.069-.164.642-.278.893-.176,2.06.835,4.135,1.647,6.131,2.62,2.152,1.048,2.284,1.628,1.134,3.69-.438.786-.958,1.528-1.463,2.274A5.013,5.013,0,0,1,51.2,199.718Z" fill="#ccc"/></g></svg>