<?xml version="1.0" encoding="UTF-8"?>
<svg width="24px" height="24px" viewBox="0 0 24 24" version="1.1" xmlns="http://www.w3.org/2000/svg" xmlns:xlink="http://www.w3.org/1999/xlink">
    <!-- Generator: Sketch 52.4 (67378) - http://www.bohemiancoding.com/sketch -->
    <title>iconClose24</title>
    <desc>Created with Sketch.</desc>
    <g id="iconClose24" stroke="none" stroke-width="1" fill="none" fill-rule="evenodd">
        <g id="IconClose24" transform="translate(5.000000, 4.000000)" fill="#54656C" fill-rule="nonzero">
            <path d="M8.466,8 L13.7,13.235 C14.0530874,13.6472295 14.0293772,14.2617785 13.6455779,14.6455779 C13.2617785,15.0293772 12.6472295,15.0530874 12.235,14.7 L7,9.466 L1.787,14.674 C1.5276612,14.944006 1.1426295,15.0527387 0.780364231,14.9582731 C0.418098961,14.8638076 0.135192445,14.580901 0.0407268974,14.2186358 C-0.0537386507,13.8563705 0.0549939798,13.4713388 0.325,13.212 L5.535,8 L0.3,2.765 C-0.0530874234,2.35277045 -0.0293772302,1.73822153 0.354422149,1.35442215 C0.738221529,0.97062277 1.35277045,0.946912577 1.765,1.3 L7,6.535 L12.24,1.295 C12.4993388,1.02499398 12.8843705,0.916261349 13.2466358,1.0107269 C13.608901,1.10519245 13.8918076,1.38809896 13.9862731,1.75036423 C14.0807387,2.1126295 13.972006,2.4976612 13.702,2.757 L8.466,8 Z" id="Shape"></path>
        </g>
    </g>
</svg>