<svg xmlns="http://www.w3.org/2000/svg" xmlns:xlink="http://www.w3.org/1999/xlink" viewBox="0 0 3600 1800"><defs><linearGradient id="ddc9fb35-1d04-4baf-aac2-70371db55bd3" y1="900" x2="3600" y2="900" gradientUnits="userSpaceOnUse"><stop offset="0" stop-color="#161414"/><stop offset="1"/></linearGradient></defs><title>patterns</title><g id="85be603c-4462-4c37-9d82-aeb1f603ef4d" data-name="bg"><rect width="3600" height="1800" fill="url(#ddc9fb35-1d04-4baf-aac2-70371db55bd3)"/></g><g id="2c376331-e2ec-424b-819f-87df4f093df6" data-name="contents"><path d="M2019.319,159.365V169.8h-91.786l-3.968,30.333h88.907V340.446H1821.308V200.188h72.536c3.552,0,3.621.008,4.093-3.425,1.124-8.163,2.183-16.335,3.248-24.506a20.352,20.352,0,0,0,.011-2.308h-86.73V159.365Zm-32.747,51.642H1847.305v54.1h139.267Zm-139.251,64.878v53.759h139.213V275.885Z" fill="#fff"/><path d="M1921.569,557.822v-42.2H1814.515V504.772h16.76V429.689h90.07V392.475H1824.5V373.36h25.819v8.167h168.886v10.811h-71.365v37.214h71.427v10.585H1947.8V504.68h71.428v10.857h-71.492v42.285Zm-.2-117.452c-.817-.075-1.467-.185-2.117-.186-19.833-.009-39.666.023-59.5-.053-2.131-.008-2.425.867-2.421,2.671q.069,29.625.034,59.249c0,.807.07,1.614.11,2.477h63.893Z" fill="#fff"/><path d="M1683.054,349.873c0,3.348.069,6.416-.075,9.474-.021.456-1.039,1.237-1.6,1.241q-13.872.116-27.744-.006a4.493,4.493,0,0,1-2.514-1.336c-6.251-5.622-12.453-11.3-18.853-17.125-2.074,1.895-4.093,3.714-6.084,5.564-4.15,3.857-8.256,7.762-12.454,11.565a4.757,4.757,0,0,1-2.769,1.336c-9.5.094-19,.054-28.495.04a6.352,6.352,0,0,1-1.069-.2V349.873c3.422,0,6.808.059,10.19-.039a4.4,4.4,0,0,0,2.689-.853c7.256-6.755,14.434-13.594,21.627-20.417a5.1,5.1,0,0,0,.519-.787q-7.128-6.606-14.258-13.212c-3.363-3.112-6.677-6.281-10.127-9.295a5.877,5.877,0,0,1-2.192-4.921q.113-50.242.053-100.484v-3.5h-8.484v-10.7h8.45v-7.972h25.3v7.84h33.686v-8.055h6.953c5.332,0,10.667.08,16-.042,1.922-.044,2.5.611,2.355,2.441-.139,1.811-.03,3.641-.03,5.776h8.78v10.629h-8.62c-.059,1.229-.152,2.268-.153,3.307q-.012,50.242.031,100.484a5.273,5.273,0,0,1-1.848,4.315c-8.26,7.625-16.431,15.346-24.74,23.137a14.086,14.086,0,0,0,1.151,1.375c7.189,6.583,14.361,13.185,21.626,19.683a5.735,5.735,0,0,0,3.3,1.237C1676.626,349.985,1679.628,349.873,1683.054,349.873ZM1632,313.4c5.165-4.862,10.161-9.633,15.25-14.3a4.766,4.766,0,0,0,1.647-3.9q-.061-48.091-.035-96.182c0-.809-.076-1.618-.12-2.488h-33.414a7.2,7.2,0,0,0-.156.953q-.017,49.465,0,98.93a3.024,3.024,0,0,0,.634,2.02C1621.144,303.441,1626.543,308.374,1632,313.4Z" fill="#cb081a"/><path d="M1751.633,250.913h34.495v10.769h-23.746v98.778h-69.36V349.907h42.033V261.8h-42.662V250.873h2.683c8.75,0,17.5-.014,26.249.015,1.246,0,2.117-.129,2.739-1.5q13.167-29.1,26.454-58.156c.132-.29.192-.612.408-1.323h-58.564V179.415h86.8c-.2,5.126.426,9.989-1.9,14.94-8.32,17.688-16.216,35.576-24.268,53.39C1752.578,248.643,1752.21,249.557,1751.633,250.913Z" fill="#cb081a"/><path d="M1778.834,494.2c0,.992,0,1.888,0,2.783,0,25.41-.038,50.819.058,76.228.01,2.554-.691,3.158-3.209,3.155q-92.724-.112-185.448-.058h-2.843V494.2Zm-165.442,71.175h139.219v-60.78h-2.85q-66.721,0-133.442-.048c-2.348,0-3.125.555-3.112,3.016.1,18.408.053,36.817.06,55.226C1613.266,563.6,1613.343,564.413,1613.392,565.371Z" fill="#fff"/><path d="M1785.4,449.808h-37.388c-.606-4.666-1.214-9.268-1.8-13.873-1.206-9.493-2.422-18.984-3.579-28.483-.19-1.562-.872-2.016-2.422-2.014q-57.1.059-114.2,0c-1.619,0-2.279.375-2.493,2.151-1.575,13.052-3.285,26.088-4.961,39.128-.127.986-.326,1.963-.51,3.057H1580.7V439.344c3.088,0,6.139-.127,9.174.045,1.984.113,2.56-.72,2.78-2.509,1.645-13.379,3.389-26.746,5.016-40.127.186-1.531.787-2.041,2.208-1.914.578.052,1.165.006,1.748.006h166.46c.5,3.648,1.02,7.153,1.47,10.666,1.365,10.647,2.74,21.293,4.015,31.95.187,1.567.865,1.922,2.249,1.9,3.151-.055,6.3-.017,9.577-.017Z" fill="#fff"/><path d="M1580.681,475.7V465.543H1785.46V475.7Z" fill="#fff"/><image width="732" height="1331" transform="translate(248.633 469)" xlink:href="yunjie.png"/><image width="742" height="1331" transform="translate(2572.949 469)" xlink:href="zihao.png"/><path d="M1916.127,1030.94c-4.166.712-8.334,1.415-12.494,2.159-.276.049-.71.424-.7.639.042,1.8.17,3.6.28,5.524,1.94-.378,3.747-.709,5.545-1.086,3.03-.636,6.057-1.288,9.076-1.975.3-.068.766-.427.763-.646-.019-1.633-.137-3.265-.229-5Z" fill="none"/><path d="M1680.526,1162.616a5.873,5.873,0,0,0-5.869,5.872,5.746,5.746,0,0,0,5.869,5.866,5.869,5.869,0,1,0,0-11.738Z" fill="none"/><path d="M1702.092,1067.946c-5.309.5-10.616,1.018-15.926,1.5-.685.062-.745.425-.742.97.014,2.685.006,5.37.006,8.056,0,.8,0,1.6,0,2.434a4.883,4.883,0,0,0,.774-.005c4.7-.879,9.392-1.792,14.1-2.627.782-.139,1.11-.423,1.2-1.185.338-2.79.719-5.576,1.073-8.364a4.613,4.613,0,0,0-.029-.76A3.727,3.727,0,0,0,1702.092,1067.946Z" fill="none"/><path d="M1913.139,1162.616a5.873,5.873,0,0,0-5.869,5.872,5.746,5.746,0,0,0,5.869,5.866,5.869,5.869,0,1,0,0-11.738Z" fill="none"/><path d="M1951.889,954.522c-2.213-.7-4.461-1.3-6.715-1.855a4,4,0,0,0-1.815.084,53.831,53.831,0,0,1-5.344,1.371c-5.222.689-10.467,1.2-15.7,1.793a.776.776,0,0,1-.929-.594,15.279,15.279,0,0,0-1.114-2.253c-.792-1.277-1.659-2.508-2.409-3.632,2.892-2.56,5.817-5.012,8.574-7.639a71.487,71.487,0,0,0,5.13-5.68,1.936,1.936,0,0,0,.39-1.649c-1.128-2.324-2.342-4.612-3.65-6.84a2.14,2.14,0,0,0-3.381-.408c-1.472,1.213-2.955,2.42-4.507,3.527a6.987,6.987,0,0,1-2.347,1.066c-3.294.807-6.62,1.483-9.915,2.286a54.532,54.532,0,0,1-15.775,1.461c-.623-.032-1.249,0-1.988,0,.133.268.158.413.244.479,1.952,1.491,3.9,2.995,5.884,4.434a1.554,1.554,0,0,0,1.176.082c2.6-.758,5.2-1.554,7.788-2.358q7.449-2.313,14.89-4.654c.891-.281,1.251-.134,1.4.8a2.3,2.3,0,0,1-.1,1.045c-.95,2.881-1.854,5.781-2.922,8.619a22.737,22.737,0,0,1-2,3.638,1.031,1.031,0,0,1-.849.31c-1.848-.236-3.689-.533-5.535-.792a2.614,2.614,0,0,0-.7.139,19.912,19.912,0,0,1,7.061,9.078c-.508.054-.819.091-1.131.12q-7.871.742-15.742,1.48c-3.96.364-7.917.806-11.886,1.02-3.776.2-7.567.152-11.35.23a3.059,3.059,0,0,0-.783.234c.18.234.311.565.549.686,1.986,1.011,4.008,1.953,5.987,2.979a6.839,6.839,0,0,0,4.961.688,9.067,9.067,0,0,1,.955-.163c6.918-.945,13.833-1.908,20.755-2.821,2.783-.367,5.581-.623,8.461-.939.08.469.156.783.185,1.1a61.221,61.221,0,0,1-1.049,19c-.689,3.089-2.012,5.706-4.89,7.338a24.315,24.315,0,0,1-8.425,2.76c-1.168.18-2.338.339-3.508.508l-.04.282a35.783,35.783,0,0,0,4.206,1.276c3.879.695,7.772,1.337,11.68,1.833,3.073.39,2.914.817,3.952-2.57a57.119,57.119,0,0,0,2.681-13.375c.243-4.191.285-8.4.323-12.6.018-1.961-.18-3.924-.282-5.929.285-.046.533-.109.785-.124,6.068-.379,12.133-.812,18.2-1.106,3.224-.156,6.459-.085,9.689-.088a2.3,2.3,0,0,0,2.373-1.6C1953.638,955.553,1953.319,954.974,1951.889,954.522Z" fill="#ccc"/><path d="M1910.565,859.559a2.5,2.5,0,0,0,1.537.253c1.493-.194,2.973-.5,4.564-.773-.08.357-.111.572-.175.776a36.038,36.038,0,0,1-6.449,12.069c-1.9,2.32-1.9,2.6-.21,5.16.2.3.421.574.615.873a1.331,1.331,0,0,0,1.736.552c2.347-.712,4.7-1.426,7.086-1.982,1.61-.375,3.281-.485,4.966-.72a9.092,9.092,0,0,1,.093.931q-.177,10.476-.366,20.952a1.722,1.722,0,0,1-1.112,1.571c-1.306.636-2.626,1.244-3.932,1.881-.354.173-.678.406-1.172.707.466.343.751.593,1.072.782,2.422,1.426,4.866,2.815,7.271,4.269,1.484.9,1.854.8,2.474-.891a3.47,3.47,0,0,0,.24-.835c.189-1.958.484-3.917.508-5.878.093-7.636.1-15.273.121-22.91,0-.7.146-1.051.928-1.1,3.645-.246,7.287-.544,10.931-.815,1.5-.112,3-.2,4.633-.312a9.48,9.48,0,0,0-2.925-4.276.888.888,0,0,0-.622-.123c-2.5.321-5,.662-7.5.992-1.748.231-3.5.455-5.243.681,0-1.146-.06-2.177.022-3.2a1.289,1.289,0,0,0-.617-1.368c-1.944-1.28-3.863-2.6-5.8-3.894a1.09,1.09,0,0,0-.381-.118l1.512,9.171c-2.325.265-4.373.51-6.424.727a18.831,18.831,0,0,1-2.514.149c-.953-.028-1.077-.359-.561-1.125a11.964,11.964,0,0,0,.882-1.5c1.759-3.672,3.513-7.345,5.232-11.036a1.3,1.3,0,0,1,1.14-.862c6.772-.782,13.5-2.016,20.348-2.033,1.1,0,2.207-.2,3.31-.308a13.755,13.755,0,0,0-4.594-3.823,1.141,1.141,0,0,0-.666-.028c-3.8.6-7.588,1.233-11.386,1.824-1.965.305-3.94.546-6.081.839.2-.49.312-.784.442-1.07q1.692-3.7,3.39-7.4c.591-1.289.632-1.386-.555-2.235-2-1.428-4.059-2.765-6.1-4.128a5.712,5.712,0,0,0-.914-.378c.038.516.065.888.094,1.26a25.375,25.375,0,0,1,.2,2.8,55.359,55.359,0,0,1-1.692,11c-.114.473-.256.781-.856.821-3.217.214-6.431.476-9.644.74a2.853,2.853,0,0,0-.746.286,2.277,2.277,0,0,0,.411.592C1908.229,857.937,1909.361,858.807,1910.565,859.559Z" fill="#ccc"/><path d="M1886.77,854.048c.039.417.082.763.1,1.11q.516,9.153,1.03,18.305a117.519,117.519,0,0,1-.582,18.892c-.426,4.114-.764,8.188.931,12.118a34.808,34.808,0,0,0,1.733,3.668c.545.943,1.24.833,1.648-.193a5.631,5.631,0,0,0,.443-1.778c.125-2.74.263-5.484.256-8.226-.016-6.115-.1-12.23-.184-18.344-.053-3.979-.174-7.956-.217-11.935-.054-4.952-.066-9.9-.064-14.855a1.051,1.051,0,0,1,.445-.814,28.838,28.838,0,0,1,3.083-1.158,2.21,2.21,0,0,1,2.755,2.132,17.452,17.452,0,0,0-.028,2.52c.315,2.6.655,5.194,1.1,7.771a2.235,2.235,0,0,1-1.013,2.574l-3.333,2.112c2.063,1.355,4.133,2.676,6.155,4.066a1.484,1.484,0,0,0,2.015-.031c.887-.751,1.768-1.512,2.6-2.319,1.326-1.279,1.361-1.332.284-2.88a25.572,25.572,0,0,1-3.628-8.613,9.186,9.186,0,0,1-.039-4.606c.43-1.655.957-3.285,1.364-4.946a1.607,1.607,0,0,0-.208-1.289c-1.118-1.153-2.335-2.21-3.458-3.248a49.233,49.233,0,0,1-4.038,2.965,24.947,24.947,0,0,1-4.463,2.076c-2.59.906-5.241,1.636-7.864,2.448-.411.127-.81.295-1.246.455A4.779,4.779,0,0,0,1886.77,854.048Z" fill="#ccc"/><path d="M1905.729,896.284a51.6,51.6,0,0,1-3.727,3.754l.138.246a12.827,12.827,0,0,0,5.487-2.433c1.418-1.174,2.89-2.289,4.24-3.536,1.707-1.576,3.316-3.259,4.966-4.9a1.053,1.053,0,0,0-.027-1.786c-1.076-.975-2.048-2.063-3.106-3.059a14.9,14.9,0,0,0-1.613-1.142,4.138,4.138,0,0,0,.01.984,5.253,5.253,0,0,1-1.024,4.753C1909.387,891.606,1907.6,893.987,1905.729,896.284Z" fill="#ccc"/><path d="M1937.147,884.014c-.171-.12-.462-.068-.7-.1a2.286,2.286,0,0,0,.06.79c.314.672.728,1.3,1.038,1.971,1.821,3.958,3.623,7.924,5.495,12.025a3.762,3.762,0,0,0,.746-.663,44.455,44.455,0,0,0,2.578-4.083c.905-1.757.825-2.641-.718-3.852C1942.908,887.956,1940,886.02,1937.147,884.014Z" fill="#ccc"/><path d="M1930.026,1071.4a88.309,88.309,0,0,1-16.054-7.55l.594-.334q6.324-3.584,12.648-7.169c.454-.258.863-.573.415-1.131-.991-1.234-1.989-2.465-3.031-3.655-.39-.446-.725-.319-1.021.245a10.922,10.922,0,0,1-1.495,2.308c-1.461,1.6-3,3.129-4.542,4.654s-3.113,3-4.541,4.371c-2.741-.636-3.966-2.6-4.8-4.837l8.8-7.458c-1.882-1.647-2.984-1.736-5.035-.678a14.068,14.068,0,0,1-3.374,1.4c-4.675,1-9.377,1.873-14.066,2.809a7.635,7.635,0,0,0-1.172.444,4.556,4.556,0,0,0,4.707,1.117c2.942-.722,5.928-1.261,8.9-1.877l.134.272a67.343,67.343,0,0,1-16.815,11.775c6.144-.732,11.264-3.846,16.48-7.044a7.879,7.879,0,0,1-2.805,5.826,80.394,80.394,0,0,1-13.893,9.867,3.518,3.518,0,0,0-.688.683l.218.242c6.861-2.105,13.342-4.959,18.846-9.787a1.723,1.723,0,0,1-.155.831,31.325,31.325,0,0,1-6.549,9.2,72.078,72.078,0,0,1-13.276,10.055c-.317.192-.617.414-.925.622a3.634,3.634,0,0,0,1.383.027,15.491,15.491,0,0,0,8.207-3.673c4.52-3.966,8.966-8.017,13.441-12.033.27-.243.532-.5,1-.935.058,4.009.242,7.719-.817,11.34a3.691,3.691,0,0,1-2.438,2.463c-.986.351-2.021.565-3.094.857,2,1.569,4.007,3.175,6.064,4.712a1.214,1.214,0,0,0,1.124-.1,4.8,4.8,0,0,0,2.059-3.379c.348-3.96.7-7.92.968-11.885.158-2.308.167-4.627.249-7.156,1.071.727,2.008,1.338,2.919,1.984,5.593,3.962,11.238,7.856,16.738,11.943,1.787,1.328,3.353,1.775,5.262.564a1.412,1.412,0,0,1,.277-.085l8.244-2.974c-.287-.144-.416-.226-.557-.277C1942.385,1075.783,1936.241,1073.487,1930.026,1071.4Z" fill="#ccc"/><path d="M1889.632,1050.156c.223-.035.439-.111.66-.156,13.054-2.676,26.147-5.1,39.475-5.939,1.733-.11,3.478-.015,5.508-.015,0,1.327.015,2.617,0,3.906-.017,1.143.379,1.474,1.36.851,2.48-1.575,4.892-3.258,7.325-4.906.663-.449.557-.909-.089-1.243-1.2-.622-2.437-1.19-3.648-1.8a5.187,5.187,0,0,0-3.5-.407c-4.6.86-9.251,1.5-13.885,2.2-5.113.771-10.235,1.482-15.344,2.274-6.1.946-12.191,1.944-18.283,2.937a3.144,3.144,0,0,1-3.15-.995,19.6,19.6,0,0,0-1.962-1.873,1.036,1.036,0,0,0-.813-.265.966.966,0,0,0-.471.7c-.152,1.251-.174,2.519-.364,3.763-.413,2.709-.6,5.489-1.834,8a3.519,3.519,0,0,0,.256,3.751,19.482,19.482,0,0,0,1.53,1.823,4.067,4.067,0,0,0,2.15-2.39c.767-2.5,1.606-4.987,2.227-7.525A3.188,3.188,0,0,1,1889.632,1050.156Z" fill="#ccc"/><path d="M1923.335,1029.051c-.823-.627-1.654-1.245-2.453-1.9a1.079,1.079,0,0,0-1.385-.084,12.7,12.7,0,0,1-3.14,1.459c-4.067.906-8.182,1.6-12.251,2.5-2.024.448-3.863.5-5.558-.9-.243-.2-.741-.091-1.247-.137a11.252,11.252,0,0,1,.56,1.517c.763,3.962,1.524,7.926,2.231,11.9.174.976.932,1.463,1.666.8a3.845,3.845,0,0,0,1.355-2c.132-1.035.464-1.431,1.454-1.39a4.242,4.242,0,0,0,.764-.125c5.66-.839,11.321-1.669,16.977-2.534.315-.048.808-.366.824-.586a1.364,1.364,0,0,0-.506-.994,14.878,14.878,0,0,0-1.849-1.056c.943-1.739,1.843-3.451,2.8-5.132A.885.885,0,0,0,1923.335,1029.051Zm-5.5,7.15c-3.019.687-6.046,1.339-9.076,1.975-1.8.377-3.606.708-5.545,1.086-.109-1.929-.237-3.726-.28-5.524-.005-.215.429-.59.7-.639,4.16-.745,8.328-1.447,12.494-2.159l2.237-.381c.092,1.731.21,3.363.229,5C1918.6,1035.775,1918.131,1036.133,1917.83,1036.2Z" fill="#ccc"/><path d="M1889.511,1025.315l-.1.279c.872.582,1.734,1.179,2.623,1.734a1.032,1.032,0,0,0,.649.034c4.874-.835,9.736-1.741,14.621-2.5,6.45-1.009,12.919-1.9,19.377-2.859,1.724-.257,3.443-.56,5.146-.925.41-.088.748-.51,1.119-.779-.3-.385-.527-.895-.918-1.132a7.069,7.069,0,0,0-4.229-1.183,6.378,6.378,0,0,0-1.652.438,21.321,21.321,0,0,1-3.332,1.256c-9.767,1.746-19.546,3.422-29.325,5.1C1892.172,1025,1890.838,1025.137,1889.511,1025.315Z" fill="#ccc"/><path d="M1910.957,1020.664c.506-.746,1.025-1.488,1.463-2.274,1.151-2.062,1.018-2.642-1.134-3.69-2-.972-4.071-1.785-6.131-2.62-.25-.1-.824.013-.893.176a1.2,1.2,0,0,0,.12,1c1.926,2.664,3.89,5.3,5.916,8.041A5.011,5.011,0,0,0,1910.957,1020.664Z" fill="#ccc"/><path d="M1686.831,861.069c2.309-.307,4.357-.591,6.407-.85a58.9,58.9,0,0,1,10.04-.8,2.4,2.4,0,0,0,2.366-1.069c-.358-.274-.7-.559-1.07-.816-1.139-.8-2.311-1.547-3.421-2.381a3.717,3.717,0,0,0-3.739-.407c-2.324.783-4.685,1.468-7.058,2.093-1.414.373-2.88.552-4.379.829a5.192,5.192,0,0,1-.041-.569c.281-3.708.525-7.419.874-11.12a1.967,1.967,0,0,0-1-2.172c-2.15-1.254-4.268-2.561-6.434-3.785a6.512,6.512,0,0,0-1.666-.425l-.156.275c.107.251.209.5.321.754a17.822,17.822,0,0,1,1.125,2.549,68.346,68.346,0,0,1,1.877,14.784c.026.593-.264.685-.736.758-2.714.422-5.415.941-8.139,1.288-4.129.526-8.234,1.393-12.439,1.043a1.41,1.41,0,0,0-.657.106c-.155.068-.345.242-.36.386-.012.122.179.314.324.393,1.133.619,2.251,1.276,3.427,1.8a4.9,4.9,0,0,0,2.367.634c3.462-.429,6.9-1.024,10.353-1.553,1.542-.236,3.086-.458,4.63-.686l.156.252a19.01,19.01,0,0,1-2.056,2.637,85.665,85.665,0,0,1-7.632,6.57,131.706,131.706,0,0,1-22.464,12.4c-.38.172-.745.377-1.117.567l.146.389a106.749,106.749,0,0,0,18.136-5.5c6.036-2.319,11.178-6.079,16.284-10.081-.086,3.1-.347,6.121-.575,9.141-.046.607-.3.812-.892.872-2.026.2-4.048.456-6.069.709-1.1.138-2.2.316-3.3.476l-.1.351c.783.534,1.6,1.023,2.341,1.613a3.777,3.777,0,0,0,3.456.689c1.6-.375,3.227-.668,4.85-.949,2.515-.435,5.03-.873,7.558-1.219,1.008-.138,1.326.327.842,1.192-1.1,1.967-2.3,3.881-3.4,5.733l-6.185-1.584-.273.367c1.107,1.3,2.621,2.375,2.671,4.3a4.817,4.817,0,0,1-.477.094c-6.727.639-13.451,1.31-20.183,1.891-1.922.166-3.866.06-5.8.113-.193.005-.516.229-.537.385a.829.829,0,0,0,.279.682c.674.442,1.434.757,2.091,1.22,1.874,1.321,3.839,2.1,6.151,1.3a.474.474,0,0,1,.1-.008q7.176-.852,14.352-1.7c1.562-.183,3.127-.334,4.746-.506a38.6,38.6,0,0,1,.156,12.181,6.17,6.17,0,0,1-3.335,5.022c-1.574.8-3.223,1.46-4.845,2.167-.459.2-.939.35-1.41.523l0,.255a10.347,10.347,0,0,0,1.719.509c2.533.3,5.074.549,7.611.823a4.3,4.3,0,0,0,3.713-1.514,7.044,7.044,0,0,0,1.66-5.038c.073-4.429.066-8.86.089-13.29,0-.7,0-1.4,0-2.285,3.4-.115,6.655-.257,9.911-.323,1.938-.039,3.88.109,5.816.047,1.323-.042,1.824-.813,1.454-1.919a5.263,5.263,0,0,0-4.463-2.87c-3.467.411-6.93.86-10.394,1.29-.783.1-1.568.178-2.229.252l-.61-1.946a6.558,6.558,0,0,1,.71-.754c2.4-1.974,4.77-3.979,7.233-5.868.785-.6.75-1.032.149-1.591-1.064-.989-2.176-1.926-3.243-2.912a1.181,1.181,0,0,0-1.7-.08c-1.766,1.206-3.85,1.007-5.968,1.414l.821-15.356c.58.445,1,.724,1.377,1.062,1.6,1.457,3.227,2.9,4.782,4.4q8.152,7.909,16.252,15.87a2.38,2.38,0,0,0,2.439.744c4.007-1,8.018-1.987,12.027-2.983.062-.015.108-.1.22-.2a148.519,148.519,0,0,1-19.146-8.371A69.393,69.393,0,0,1,1686.831,861.069Z" fill="#ccc"/><path d="M1717.174,1038.5c-1.418-.952-2.827-1.925-4.3-2.78a2.43,2.43,0,0,0-1.574-.134c-3.636.757-7.253,1.6-10.891,2.347-1.337.275-2.711.368-4.2.562.233-4.44.426-8.666.708-12.886.044-.665-.083-1.072-.624-1.339-2.255-1.113-4.508-2.231-6.793-3.282a5.54,5.54,0,0,0-1.612-.216c.16.52.3,1.05.485,1.559a17.38,17.38,0,0,1,1.3,3.486c.446,3.3.694,6.619.97,9.935.087,1.046.014,2.1.014,3.165a.55.55,0,0,1-.16.051q-9.84.3-19.68.591a2.082,2.082,0,0,0-.853.081.691.691,0,0,0-.147.646c.934.974,1.881,1.94,2.894,2.829a1.889,1.889,0,0,0,1.278.446c3.827-.381,7.646-.84,11.471-1.242,1.759-.185,3.526-.292,5.4-.444v12.24l-14.056,1.062c.61.848,1.168,1.592,1.69,2.361a1.379,1.379,0,0,0,1.481.641c2.338-.314,4.683-.581,7.025-.871,5.871-.727,11.732-1.442,17.682-1.058a42.7,42.7,0,0,0,6.943-.333c1.169-.117,1.428-.914.658-1.768-1.729-1.918-3.643-3.274-6.517-2.668-3.313.7-6.684,1.124-10.209,1.7.165-3.621.323-7.07.478-10.518.059-1.321.06-1.279,1.407-1.4a121.8,121.8,0,0,1,17.436-.4,9.618,9.618,0,0,0,2.309-.215c.889-.172,1.075-.731.564-1.5A2.306,2.306,0,0,0,1717.174,1038.5Z" fill="#ccc"/><path d="M1705.879,1061.9a35.971,35.971,0,0,1-3.764,1.143c-6.195,1.14-12.4,2.2-18.6,3.324a2.108,2.108,0,0,1-1.936-.473,14.188,14.188,0,0,0-2.174-1.451,3.2,3.2,0,0,0-1.036-.19,3.418,3.418,0,0,0-.012,1.082,26.975,26.975,0,0,1,1.216,3.456c.784,4.45,1.473,8.918,2.128,13.39a13.586,13.586,0,0,0,1.507,5.458c.533.857.846.926,1.379.064a6.479,6.479,0,0,0,.751-2.138,10.414,10.414,0,0,0,.025-1.946c4.45-.266,8.742-.488,13.028-.792,2.641-.188,5.275-.488,7.908-.779.332-.037.93-.392.909-.484a15.467,15.467,0,0,0-1.025-3.374c-.214-.431-1.077-.539-1.706-.821a1.617,1.617,0,0,1,.14-.338c1.765-3.049,3.545-6.089,5.289-9.15a1.174,1.174,0,0,0,.1-1C1708.6,1065.117,1707.134,1063.4,1705.879,1061.9Zm-3.3,6.824c-.354,2.789-.735,5.574-1.073,8.364-.092.762-.421,1.046-1.2,1.185-4.707.835-9.4,1.748-14.1,2.627a4.883,4.883,0,0,1-.774.005c0-.832,0-1.633,0-2.434,0-2.685.008-5.371-.006-8.056,0-.545.057-.908.742-.97,5.31-.484,10.618-1,15.926-1.5a3.727,3.727,0,0,1,.456.021A4.613,4.613,0,0,1,1702.577,1068.727Z" fill="#ccc"/><path d="M1672.679,1054.614l-.408-.058c-1.057,1.955-2.094,3.92-3.173,5.863-3.421,6.155-6.836,12.313-10.315,18.435a12.141,12.141,0,0,1-1.933,2.12c-.409.429-.841.837-1.288,1.279,1.434,1.824,2.717,3.572,4.127,5.21.846.983,1.3.881,1.792-.324,1.229-2.984,2.487-5.962,3.559-9,2.575-7.305,5.057-14.644,7.548-21.978A5.809,5.809,0,0,0,1672.679,1054.614Z" fill="#ccc"/><path d="M1658.612,1064.924l.308-.014a3.059,3.059,0,0,0,.376-.906q.408-6.673.76-13.349a3.568,3.568,0,0,0-2.087-3.543c-2.057-1.069-4.131-2.106-6.1-3.107l-.69.486a42.074,42.074,0,0,1,2.906,5.626c1.46,4.27,2.639,8.635,3.937,12.961C1658.208,1063.7,1658.415,1064.308,1658.612,1064.924Z" fill="#ccc"/><path d="M1656.761,1040.773a6.861,6.861,0,0,0,1.586-.788c2.765-2.433,5.546-4.854,8.2-7.4,1.664-1.595,1.594-2.111-.48-3.053-3.229-1.467-6.554-2.722-9.848-4.044-.192-.077-.468.054-.795.1,1.18,1.391,2.274,2.619,3.3,3.9a5.223,5.223,0,0,1,.7,5.893C1658.58,1037.152,1657.69,1038.9,1656.761,1040.773Z" fill="#ccc"/><path d="M1682.642,952.96c.064.256.113.516.193.767a14.381,14.381,0,0,1,.878,2.818,20.664,20.664,0,0,1-1.4,8.546c-.538,1.612-1.123,3.209-1.785,5.089.6-.219.923-.344,1.251-.455a8.68,8.68,0,0,0,3.862-3.268,2.136,2.136,0,0,1,1.129-.76c6.086-1.186,12.184-2.312,18.271-3.5a1.379,1.379,0,0,1,1.811.993,8.275,8.275,0,0,1,.374,2.659,135.257,135.257,0,0,1-3,21.479,10.091,10.091,0,0,1-5.729,7.338,14.384,14.384,0,0,0-1.275.844c.584.456,1,.807,1.446,1.125,2.284,1.642,4.578,3.269,6.858,4.916,1.084.783,1.666.655,2.026-.63a37.832,37.832,0,0,0,.8-3.79q3.112-18.051,6.175-36.11a1.762,1.762,0,0,0-.391-1.359c-1.134-1.1-2.375-2.091-3.562-3.139a1.648,1.648,0,0,0-2.335-.109,20.781,20.781,0,0,1-7.8,3.287c-2.713.6-5.418,1.229-8.13,1.829-1.206.267-2.422.491-3.786.765.545-.98.966-1.816,1.46-2.605a1.349,1.349,0,0,0-.272-1.97c-.917-.766-1.835-1.532-2.788-2.252q-1.664-1.256-3.4-2.416C1683.307,952.911,1682.94,952.986,1682.642,952.96Z" fill="#ccc"/><path d="M1656.718,992.912c4.188-1.708,8.371-3.43,12.53-5.207,3.565-1.522,7.1-3.108,10.641-4.693.9-.4.906-.755.148-1.374a2.211,2.211,0,0,0-2.367-.27c-1.956.731-3.929,1.418-5.939,2.138,0-3.31-.019-6.511.034-9.711,0-.269.44-.67.751-.77,1.444-.463,2.923-.817,4.374-1.263a9.271,9.271,0,0,0,1.4-.7c-1.995-2.831-4.312-1.371-6.676-.644,0-3.16-.023-6.134.016-9.107a1.676,1.676,0,0,0-.821-1.617c-1.977-1.227-3.938-2.48-5.939-3.666-.271-.16-.734,0-1.108.018a3.944,3.944,0,0,0,.2,1.092c.49.975,1.166,1.869,1.561,2.876,1.441,3.674,1.6,7.565,1.742,11.446a.861.861,0,0,1-.512.627c-4.376,1.243-8.762,2.452-13.145,3.673-.505.141-1,.315-1.5.474l-.022.268c1.013.625,2,1.288,3.05,1.85a1.662,1.662,0,0,0,1.182.066c2.483-.823,4.945-1.706,7.419-2.554,1.184-.406,2.381-.778,3.735-1.218,0,3.343-.008,6.537.008,9.73,0,.557-.263.777-.754.942q-8.539,2.874-17.066,5.784a2.565,2.565,0,0,0-.443.279,1.712,1.712,0,0,0,.373.239c1.876.485,3.747.993,5.637,1.419A2.64,2.64,0,0,0,1656.718,992.912Z" fill="#ccc"/><path d="M1670.548,943.068a2.267,2.267,0,0,0,.5-3.031c-.964-1.936-1.866-3.9-2.823-5.843-.117-.236-.407-.387-.616-.577a3.194,3.194,0,0,0-.5.817,28.8,28.8,0,0,1-.828,3.554,45.127,45.127,0,0,1-9.223,13.783c-1.685,1.833-3.609,3.447-5.443,5.178.344-.135.7-.269,1.046-.412a40.663,40.663,0,0,0,13.53-9.052c1.07-1.077,2.393-.977,3.651-1.256.162-.036.475.2.584.39q2.865,4.947,5.684,9.919a16.9,16.9,0,0,1,.72,1.735,12.447,12.447,0,0,0,.873-1.147c.8-1.405,1.51-2.86,2.364-4.227a1.471,1.471,0,0,0-.407-2.252c-2.036-1.479-4.1-2.927-6.148-4.384-.249-.177-.514-.331-.881-.565l12.029-2.266a6.731,6.731,0,0,0-2.514-3.171c-.15-.119-.562.01-.814.117-.922.39-1.843.786-2.735,1.238-2.947,1.495-6.15,2.152-9.509,3.049C1669.677,944.015,1670.07,943.495,1670.548,943.068Z" fill="#ccc"/><path d="M1685.825,948.13a7.151,7.151,0,0,0,.75-.345c.441-.269.877-.549,1.295-.852,3.921-2.847,6.475-6.815,8.887-10.891.845-1.428.831-1.664-.26-2.91-1.7-1.944-3.47-3.829-5.21-5.739l-.35.012a6.881,6.881,0,0,0-.125,1.213c.064.932.248,1.858.284,2.79a24.47,24.47,0,0,1-2.583,11.136C1687.667,944.4,1686.746,946.222,1685.825,948.13Z" fill="#ccc"/><path d="M1714.24,939.43a7.965,7.965,0,0,0-3.2-2.9,2.52,2.52,0,0,0-2.213-.136c-3.716,1.295-7.45,2.539-11.187,3.772-1.307.431-2.641.778-4.125,1.211,1.213.881,2.285,1.5,3.691,1.261,3.753-.65,7.516-1.236,11.264-1.914C1710.326,940.384,1712.161,939.9,1714.24,939.43Z" fill="#ccc"/><path d="M1696.866,944.667c-.082-.069-.232-.059-.454-.109-.171,4.682-3.119,8.2-5.012,12.458.849-.384,1.425-.663,2.015-.908a28.2,28.2,0,0,0,8.246-5.54c.93-.857.949-.982.006-1.823C1700.1,947.348,1698.474,946.017,1696.866,944.667Z" fill="#ccc"/><path d="M1689.3,977.6a30.542,30.542,0,0,0,10.026-3.809.639.639,0,0,0,.043-1.135c-.9-.722-1.85-1.384-2.81-2.026a.8.8,0,0,0-.705.031c-2.578,1.6-5.149,3.212-7.7,4.858a.849.849,0,0,0-.049,1.52A5.566,5.566,0,0,0,1689.3,977.6Z" fill="#ccc"/><path d="M1686.641,987.657a1.353,1.353,0,0,0,1.065.68,8.093,8.093,0,0,0,2.176-.4c2.87-.827,5.729-1.69,8.79-2.6a7.967,7.967,0,0,0-3.01-2.95,1.623,1.623,0,0,0-1.82.02c-2.222,1.374-4.471,2.707-6.669,4.119A1.328,1.328,0,0,0,1686.641,987.657Z" fill="#ccc"/><path d="M1680.526,1160.594a7.9,7.9,0,0,0-7.893,7.893,7.7,7.7,0,0,0,7.893,7.893,7.893,7.893,0,0,0,0-15.786Zm0,13.759a5.746,5.746,0,0,1-5.869-5.866,5.873,5.873,0,0,1,5.869-5.872,5.869,5.869,0,1,1,0,11.738Z" fill="#ccc"/><path d="M1913.139,1160.594a7.9,7.9,0,0,0-7.893,7.893,7.7,7.7,0,0,0,7.893,7.893,7.893,7.893,0,0,0,0-15.786Zm0,13.759a5.746,5.746,0,0,1-5.869-5.866,5.873,5.873,0,0,1,5.869-5.872,5.869,5.869,0,1,1,0,11.738Z" fill="#ccc"/><path d="M1680.526,778.453a7.7,7.7,0,0,1-7.893-7.893,7.9,7.9,0,0,1,7.893-7.893,7.893,7.893,0,0,1,0,15.786Zm0-13.764a5.873,5.873,0,0,0-5.869,5.872,5.746,5.746,0,0,0,5.869,5.866,5.869,5.869,0,1,0,0-11.738Z" fill="#ccc"/><path d="M1913.139,778.453a7.7,7.7,0,0,1-7.893-7.893,7.9,7.9,0,0,1,7.893-7.893,7.893,7.893,0,0,1,0,15.786Zm0-13.764a5.873,5.873,0,0,0-5.869,5.872,5.746,5.746,0,0,0,5.869,5.866,5.869,5.869,0,1,0,0-11.738Z" fill="#ccc"/><path d="M1864.927,1694.529c.34-.783.7-1.557,1.016-2.351.7-1.765,1.282-3.579,2.073-5.3a20.179,20.179,0,0,1,2.182-3.609,4.129,4.129,0,0,1,1.79-1.186,1.561,1.561,0,0,1,2.117,1.378,24.127,24.127,0,0,1,.287,2.761c.129,2.021.19,4.048.363,6.065a5.32,5.32,0,0,0,.621,1.49c.461-.273,1.069-.438,1.357-.836,1.295-1.791,2.486-3.656,3.739-5.478a23.792,23.792,0,0,1,2.319-3.158,2.225,2.225,0,0,1,3.527.476,5.449,5.449,0,0,1,.511,1.956c.58,3.979.131,7.954-.057,11.932a33.957,33.957,0,0,0,.185,3.934,7.431,7.431,0,0,0,.272,1.583c.089.3.3.7.549.776a1.02,1.02,0,0,0,.863-.343c1.177-1.491,2.37-2.977,3.435-4.547a87.668,87.668,0,0,1,9.391-11.581,38.225,38.225,0,0,0,2.924-3.441,10,10,0,0,1,4.47-3.528,8.753,8.753,0,0,1,2.664-.416,39.039,39.039,0,0,1,9.389.83,27.682,27.682,0,0,0,7.811.389,1.3,1.3,0,0,0,.5-.1c1.093-.589,2.149-.126,3.166.188a1.43,1.43,0,0,1,.689,1.068c.163,1.923.289,3.853.312,5.782.031,2.566-.051,5.133-.071,7.7-.009,1.191.258,1.344,1.346.9a3.732,3.732,0,0,0,2.46-3.371,16.789,16.789,0,0,1,1.952-6.762,6.786,6.786,0,0,1,3.283-3.1,3.983,3.983,0,0,1,1.018-.127,3.77,3.77,0,0,1,.02,1.061c-.195.726-.5,1.422-.725,2.14a3.047,3.047,0,0,0-.139.863q-.119,6.858-.216,13.717a10.6,10.6,0,0,0,.114,1.091c5.88-7.022,11.408-14.067,17.994-20.149l.239.139a1.917,1.917,0,0,1-.211.665c-.67.8-1.331,1.624-2.074,2.359a121.049,121.049,0,0,0-11.912,13.474c-1.139,1.521-2.309,3.018-3.463,4.528a5.448,5.448,0,0,0-.883,2.662,15.291,15.291,0,0,1-4.682,9.179,2.979,2.979,0,0,1-1.4.732c-1.643.31-2.8-.621-2.492-2.5a10.348,10.348,0,0,1,1.069-2.759,8.719,8.719,0,0,1,1.286-1.947,3.7,3.7,0,0,0,.877-2.751c-.053-2.762-.017-5.526-.02-8.29,0-.284-.031-.568-.059-1.039-.736.4-1.356.706-1.946,1.062-.709.428-1.392.9-2.087,1.349a2.347,2.347,0,0,1-2.407.424,2.623,2.623,0,0,1-1.3-2.311,51.2,51.2,0,0,1,.127-8.276c.191-2.258.395-4.516.6-6.892-.335,0-.587,0-.84,0-2.246-.024-4.5.047-6.735-.1-1.844-.123-3.664-.569-5.506-.754-1.176-.118-2.373-.022-3.559-.022.283,1.01.637,1.994.82,3.008a22.653,22.653,0,0,1,.334,3.34,17.516,17.516,0,0,1-.719,6.147c-1.134,3.376-2.89,4.865-6.5,5.084a3.637,3.637,0,0,1-3.318-1.61,9.85,9.85,0,0,1-1.878-7.237c.056-.507.171-1.007.259-1.51l-.211-.079a50.271,50.271,0,0,0-3.5,3.789c-2.546,3.358-4.959,6.816-7.455,10.213a25.7,25.7,0,0,1-2.277,2.744c-1.553,1.592-4.432.565-5.109-1.364a22.4,22.4,0,0,1-.866-9.4c.236-2.895.383-5.8.56-8.7a6.861,6.861,0,0,0-.054-.836,1.664,1.664,0,0,0-1.319,1c-1.228,2.014-2.395,4.067-3.675,6.047a6.275,6.275,0,0,1-2.746,2.552c-1.2.507-3.135.27-3.6-.648a7.924,7.924,0,0,1-.691-2.727c-.21-2.016-.293-4.045-.451-6.068a6.964,6.964,0,0,0-.252-1.072l-.3-.044c-.474,1.017-.978,2.021-1.416,3.053-.931,2.192-1.748,4.437-2.777,6.581a7.748,7.748,0,0,1-1.952,2.3,1.686,1.686,0,0,1-2.636-.486,5.812,5.812,0,0,1-.99-3.02c-.085-2.883-.184-5.766-.28-8.709a1.866,1.866,0,0,0-.376.229,100.567,100.567,0,0,0-9.188,10.7c-3.346,4.434-6.89,8.724-10.477,12.968a31.342,31.342,0,0,1-4.52,4.148,4.505,4.505,0,0,1-4.819.739,3.682,3.682,0,0,1-2.065-3.1c-.263-2.618-.53-5.243-.6-7.87-.1-3.984-.022-7.972-.028-11.958,0-1.922-.01-1.922-1.915-1.922-1.223,0-2.447.034-3.668-.015a1.042,1.042,0,0,0-1.162.725c-.784,1.887-1.534,3.792-2.421,5.631-1.606,3.332-3.176,6.7-5.987,9.26a2.661,2.661,0,0,1-2.354.909c-.285-.056-.527-.329-.789-.5a2.8,2.8,0,0,1,.67-.5,6.973,6.973,0,0,0,3.349-2.831,50.754,50.754,0,0,0,4.562-8.308c1.144-2.523,2.111-5.126,3.213-7.668,1.141-2.633,2.38-5.223,3.519-7.857.791-1.83,1.472-3.706,2.233-5.549.117-.284.376-.667.614-.7a.971.971,0,0,1,.765.507c.48,1.141.922,2.3,1.294,3.484.971,3.085,1.211,6.307,1.758,9.474,1.246,7.219,1.145,14.508,1.446,21.78a12.892,12.892,0,0,0,.463,2.875c.554,2,2.033,2.039,3.3.784,1.452-1.437,2.774-3.007,4.145-4.525.671-.743,1.354-1.477,1.983-2.254,1.517-1.875,3-3.777,4.508-5.66,2.286-2.855,4.489-5.785,6.9-8.528,1.816-2.064,3.911-3.881,5.875-5.816a5.521,5.521,0,0,0,.815-.933,2.377,2.377,0,0,1,1.984-1.056c1.038-.091,1.529.305,1.536,1.352.02,3.178.012,6.357.015,9.536q0,1.19,0,2.381Zm48.333-6.065a13.574,13.574,0,0,0-.819-4.619,1.849,1.849,0,0,0-2.474-1.274c-1.567.432-2.168,1.69-2.543,3.035a18.288,18.288,0,0,0-.24,7.556,6.217,6.217,0,0,0,1.8,3.746,1.356,1.356,0,0,0,1.74.187,6.25,6.25,0,0,0,1.393-1.66C1913.118,1693.473,1913.217,1691.32,1913.259,1688.464Zm-86.47-11.515a46.921,46.921,0,0,0-4.6,10.006h5.671Zm109.984,33.892-.358-.147a22.862,22.862,0,0,0-1.633,2.606,4.139,4.139,0,0,0-.132,1.782.768.768,0,0,0,.833.751.782.782,0,0,0,.862-.729C1936.523,1713.687,1936.636,1712.262,1936.773,1710.841Z" fill="#86666b"/><path d="M1675.671,1685.594c-.819.922-1.682,1.809-2.448,2.773-3.308,4.161-6.611,8.327-9.866,12.53a18.612,18.612,0,0,1-4.268,4.477,5.228,5.228,0,0,1-2.328.911,20.369,20.369,0,0,1-8.344-1.2c-1.4-.492-2.829-.9-4.258-1.306a1.026,1.026,0,0,0-.758.229c-.384.3-.689.692-1.06,1.008a1.8,1.8,0,0,1-2.934-.712,1.519,1.519,0,0,1,.034-1.031,3.113,3.113,0,0,1,2.546-1.976,2.7,2.7,0,0,0,2.4-1.7,39.557,39.557,0,0,1,7.054-9.1,18.534,18.534,0,0,0,4.019-5.7,10.5,10.5,0,0,0,.721-5.933,9.386,9.386,0,0,0-1.8-4.4,4.117,4.117,0,0,0-5.88-.152,7.679,7.679,0,0,0-1.942,7.171c.077.393.406.735.493,1.128.076.346.109.95-.07,1.058-.519.314-.771-.2-.96-.591a8.719,8.719,0,0,1-.722-4.926,7.463,7.463,0,0,1,4.566-6.321,6.944,6.944,0,0,1,7.144.662c2.84,1.93,3.634,4.78,3.333,8.006a7.713,7.713,0,0,1-2.139,4.551c-2.365,2.566-4.758,5.112-7.027,7.762-1.868,2.181-3.635,4.457-5.329,6.776-1.007,1.38-.846,1.4.805,1.69,2.149.38,4.26.978,6.381,1.5,1.393.346,2.759.84,4.17,1.068a4.1,4.1,0,0,0,3.656-1.675c1.859-2.062,3.608-4.227,5.353-6.39,2.678-3.318,4.937-6.972,8-9.978a11.465,11.465,0,0,1,1.179-1.1c.969-.712,1.147-1.81,1.512-2.835a42.843,42.843,0,0,1,1.556-4,15.682,15.682,0,0,1,5.688-6.032,11.44,11.44,0,0,1,8.156-1.865,9.958,9.958,0,0,1,7.486,4.825,18.826,18.826,0,0,1,3.071,10.439,40.205,40.205,0,0,1-.417,6.562,22.9,22.9,0,0,1-1.961,5.467,17.845,17.845,0,0,1-5.277,6.892,6.571,6.571,0,0,1-3.636,1.37,14.309,14.309,0,0,1-7.789-1.558,13.891,13.891,0,0,1-4.486-4.341,17.873,17.873,0,0,1-3.052-7.669,52.151,52.151,0,0,1-.331-5.463q-.022-.415-.045-.83Zm25.864,1.578a19.749,19.749,0,0,0-.97-6.572c-.819-2.977-2.082-5.634-4.721-7.483a7.6,7.6,0,0,0-7.87-.842,8.59,8.59,0,0,0-4.248,3.76,23.979,23.979,0,0,0-2.706,9.336,22.4,22.4,0,0,0,.6,7.908,22.155,22.155,0,0,0,4.2,8.347,6.108,6.108,0,0,0,1.712,1.32,8.319,8.319,0,0,0,4.068.684,4.951,4.951,0,0,0,3.666-1.52,19.173,19.173,0,0,0,4.8-7.5A17.125,17.125,0,0,0,1701.535,1687.172Zm-59.114,16.3-.075-.191a3.836,3.836,0,0,0-1.191.031c-.258.089-.468.44-.6.721-.057.121.134.514.221.517a1.429,1.429,0,0,0,.85-.188A5.453,5.453,0,0,0,1642.421,1703.473Z" fill="#86666b"/><path d="M1731.492,1701.478c0,.366.068.594-.01.669a30.547,30.547,0,0,1-3.387,3.094,4.587,4.587,0,0,1-2.459.482c-2.567.025-5.139-.165-7.7-.05-1.986.089-3.957.508-5.933.787a2.28,2.28,0,0,1-2.162-.39c.677-.149,1.16-.261,1.645-.362,2.1-.438,4.2-.888,6.3-1.3.494-.1.731-.3.73-.809,0-1.219.029-2.437.023-3.656-.008-1.49-.052-2.979-.058-4.469-.01-2.3,0-4.592,0-6.888q0-5.282,0-10.564c0-.3-.059-.6-.111-1.086-.626.867-1.093,1.6-1.643,2.26-1.138,1.368-2.312,2.707-3.491,4.04a2.4,2.4,0,0,1-.814.606,2.183,2.183,0,0,1-.791.025,2.022,2.022,0,0,1,.226-.7c.5-.6,1.038-1.17,1.584-1.729,2.017-2.061,3.327-4.621,4.9-6.99a10.7,10.7,0,0,0,.673-1.845,4.643,4.643,0,0,1,.626-1.05.856.856,0,0,1,1.4-.066,6.9,6.9,0,0,1,2.431,4.741c.557,8.965.3,17.937.348,26.906.007,1.419-.355,1.39,1.45,1.512a6.075,6.075,0,0,0,5.133-2.146C1730.686,1702.183,1731.025,1701.91,1731.492,1701.478Z" fill="#86666b"/><path d="M1785.74,1685.675a8.561,8.561,0,0,0-1.84.333,6.643,6.643,0,0,0-1.3.985l-.254-.13a2.7,2.7,0,0,1,.271-.894,2.914,2.914,0,0,1,2.384-1.228,1.04,1.04,0,0,0,1.172-.9,27.283,27.283,0,0,1,4.4-8.68,4.631,4.631,0,0,0,.292-.416c.033-.056.017-.14.029-.266a2.235,2.235,0,0,0-.47-.1,13.082,13.082,0,0,1-5.857-1.63c-1.736-.841-2.462-.277-3.125,1.085a34.26,34.26,0,0,1-8.364,10.7c-.166.146-.506.1-.765.137.07-.246.062-.578.222-.724a27.661,27.661,0,0,0,5.314-6.386c1.131-1.925,2.121-3.933,3.2-5.892a3.7,3.7,0,0,1,4.749-1.612c1.305.438,2.52,1.137,3.8,1.652a16.588,16.588,0,0,0,2.515.76,1.332,1.332,0,0,0,.9-.258c.643-.431,1.233-.942,1.864-1.392a1.088,1.088,0,0,1,1.529.119,1.179,1.179,0,0,1,.046,1.561c-.391.533-.923,1.219-1.487,1.319-1.322.234-1.736,1.127-2.027,2.171-.771,2.766-1.5,5.545-2.241,8.319a2.522,2.522,0,0,0-.036.344,2.8,2.8,0,0,0,2.474-.779c.271-.2.465-.518.75-.69a1.83,1.83,0,0,1,.719-.088c-.043.212-.018.483-.14.628a5.474,5.474,0,0,1-3.625,2.259c-.485.048-.61.315-.717.753-.776,3.176-.576,6.41-.63,9.629-.021,1.271.015,2.549-.117,3.809a3.576,3.576,0,0,1-.734,1.678,32.966,32.966,0,0,1-2.262,2.57c-.2.212-.568.482-.764.42-.216-.068-.424-.472-.46-.753-.179-1.4-.376-2.808-.424-4.218-.07-2.076,0-4.156-.023-6.234A24.3,24.3,0,0,1,1785.74,1685.675Zm9.994-14.274a1.679,1.679,0,0,0-1.444,1.413A1.357,1.357,0,0,0,1795.735,1671.4Z" fill="#86666b"/><path d="M1745.828,1685.237a46.035,46.035,0,0,1,3.6,5.243,12.5,12.5,0,0,1,.6,10.481,6.746,6.746,0,0,1-3.238,3.652,8.039,8.039,0,0,1-4.8.49c-2.609-.362-3.945-2.064-4.449-4.482a11.78,11.78,0,0,1,2.233-9.8,16.662,16.662,0,0,1,1.547-1.852c.486-.487.489-.829.1-1.412a37.288,37.288,0,0,1-2.863-4.734,9.006,9.006,0,0,1-.394-7.037c1.061-2.984,4.664-5.457,7.8-5.152a5.667,5.667,0,0,1,2.25.766,2.851,2.851,0,0,1,1.267,3.414,5.094,5.094,0,0,0-.165,1.886,5.321,5.321,0,0,1-.492,2.608C1747.9,1681.32,1746.835,1683.261,1745.828,1685.237Zm-2.879,4.2a5.9,5.9,0,0,0-.564.373,11.069,11.069,0,0,0-3.419,5.33,9.915,9.915,0,0,0-.037,6.114c1.173,3.148,4.364,3.526,6.676,2.555,1.7-.713,2.6-3.368,1.931-5.421a25.488,25.488,0,0,0-1.575-3.979C1745.072,1692.716,1743.987,1691.128,1742.948,1689.434Zm5.205-11.945-.275-.173c-.282.058-.563.126-.847.173a1.7,1.7,0,0,1-2.106-1.327c-.059-.24-.01-.7.12-.752a1.318,1.318,0,0,1,.875.046c.211.074.34.372.551.458a1.574,1.574,0,0,0,.929.169,2.107,2.107,0,0,0,.73-3.514,3.71,3.71,0,0,0-3.869-.888,3.166,3.166,0,0,0-2.74,3.373,9.9,9.9,0,0,0,.773,4.354c.692,1.439,1.446,2.85,2.212,4.251.3.543.668.505.955-.057.662-1.3,1.363-2.577,1.971-3.9A18.978,18.978,0,0,0,1748.154,1677.489Z" fill="#86666b"/><path d="M1759.714,1693.886c-1.092.009-1.659-.43-1.667-1.291a2.229,2.229,0,0,1,2.225-2.075,1.375,1.375,0,0,1,1.529,1.388A2.01,2.01,0,0,1,1759.714,1693.886Z" fill="#86666b"/></g></svg>