<svg xmlns="http://www.w3.org/2000/svg" viewBox="0 0 396.288 83.458"><title>patterns</title><g id="42714d98-6e62-440f-937c-e7a9845ab29e" data-name="contents"><path d="M303.387,41.395c1.388-2.822,2.656-5.711,4.208-8.439a17.236,17.236,0,0,1,3.507-4.443c2.156-1.883,4.649-1.485,5.772,1.111a20.4,20.4,0,0,1,1.388,6.967c.235,4.643.133,9.3.177,13.955a2.6,2.6,0,0,0,.113.989c.617,1.409,1.279,2.8,1.926,4.193a22.633,22.633,0,0,0,3.245-2.381c7.146-7.454,14.225-13.972,21.339-21.457a5.164,5.164,0,0,1,2.455-1.535,15.494,15.494,0,0,1-1.455,2.238c-7.392,8.021-14.808,15.02-22.239,23.005a20.759,20.759,0,0,1-2.588,2.343c-2.8,2.134-5.41,1.7-7.021-1.448-.919-1.8-1.611.1-1.714-1.895-.3-5.821-.257-15.659-.344-21.491-.013-.9,0-1.794,0-2.692l-.693-.4a13.773,13.773,0,0,0-2.108,2.608c-2.568,5.487-4.957,11.058-7.578,16.519-.433.9-1.793,2.026-2.564,1.916a3.419,3.419,0,0,1-2.118-2.439c-.542-4.287-.765-8.614-1.1-12.927-.116-1.478-.233-2.957-.328-4.153-2.834,2.641-5.736,5.227-8.5,7.956-2.13,2.105-4.014,4.458-6.13,6.58a13.816,13.816,0,0,1-15.043,2.777c-4.4-1.9-6.309-6.113-5.48-12.144a4.445,4.445,0,0,0-.077-2.313c-3.764,4.252-7.71,8.358-11.238,12.8-3.307,4.163-6.167,8.68-9.231,13.036a15.637,15.637,0,0,1-1.216,1.58c-1.4,1.535-2.937,2.658-5.244,2.049a4.862,4.862,0,0,1-3.9-4.358,108.624,108.624,0,0,1-.8-12.622c.045-4.624.6-9.243.94-13.864l-.723-.332a19.975,19.975,0,0,0-1.9,2.254c-1.675,2.676-3.207,5.442-4.917,8.094-.712,1.1-1.554,2.429-2.659,2.907a10.337,10.337,0,0,1-5.567,1.034c-.933-.17-1.894-2.345-2.131-3.736-.516-3.024-.568-6.126-.826-9.2a4.864,4.864,0,0,0-.847-2.571c-.7,1.413-1.443,2.806-2.087,4.243-1.661,3.706-3.076,7.542-5.017,11.091-.709,1.3-2.644,2.717-3.992,2.69-2.3-.045-3.081-2.472-3.261-4.433-.38-4.142-.392-8.317-.552-12.479-.012-.319,0-.638,0-1.713-4.333,4.58-8.312,8.649-12.134,12.861-3.972,4.378-7.571,9.119-11.775,13.252a17.53,17.53,0,0,1-7.514,4.008c-3.633.984-5.778-.947-5.765-4.761.011-3.4.456-6.793.71-10.19a18.987,18.987,0,0,0-.121-5.253l-6.4,6.386c-2.42,2.415-4.651,3.214-6.328,2.267-1.759-.993-2.489-3.64-1.763-6.79a23.8,23.8,0,0,0,.948-4.986l-7.416,8.32c-1.164,1.306-2.3,2.637-3.5,3.913-1.9,2.022-3.977,3.654-7,2.465-2.507-.988-4.656-4.527-4.4-7.51.313-3.716.812-7.417,1.261-11.4-1.086,1.2-2.2,2.315-3.183,3.539-6.4,7.983-12.733,16.022-19.175,23.972-2.408,2.971-4.97,5.829-7.612,8.6-2.441,2.556-4.879,2.663-6.967-.214A40.2,40.2,0,0,1,81.56,59.153c-1.9-5.471-3.026-11.208-4.477-16.833-.2-.791-.383-1.588-.643-2.667C70.017,44.4,65.511,50.143,63.5,57.715a22.386,22.386,0,0,0-.206,12.31c.445,1.525.685,3.311-1.435,3.909a2.861,2.861,0,0,1-3.763-2.644,35.385,35.385,0,0,1,.362-10.074c1.659-7.7,6.778-13.395,12.019-18.92a14.562,14.562,0,0,1,2.771-2.512c2.612-1.6,3-3.694,2.271-6.538A59.052,59.052,0,0,0,68.509,16,15.3,15.3,0,0,0,67.5,14.576a4.853,4.853,0,0,0-.733-.617c-2.818,3.125-5.5,6.293-8.4,9.257-2.847,2.914-5.907,5.619-8.874,8.416l-.724-.681c.532-.61,1.055-1.227,1.6-1.828,4.272-4.754,8.568-9.488,12.8-14.277a17.209,17.209,0,0,0,1.5-2.581c2.058-3.4,4.745-3.935,7.106-.828a76.867,76.867,0,0,1,7.268,11.816c1.549,3.063,2.326,6.515,3.577,10.176,5.448-6.015,9.156-12.317,8.516-20.5a3.535,3.535,0,0,1,.786-2.139,1.578,1.578,0,0,1,1.5.043,3.352,3.352,0,0,1,.651,2.193c-1.521,7.23-3.783,14.183-8.894,19.767-1.665,1.819-2.257,3.363-1.508,5.914,1.285,4.371,1.717,8.989,2.938,13.383a81.254,81.254,0,0,0,4.332,11.874c1.354,2.974,3.006,3.159,5.079.719,4.3-5.068,8.284-10.409,12.6-15.469,5.291-6.209,10.8-12.235,16.178-18.369.758-.865,1.134-2.184,2.029-2.779a14.827,14.827,0,0,1,3.8-1.28,9.773,9.773,0,0,1,.8,2.886c-.239,5.57-.661,11.133-.914,16.7a13.7,13.7,0,0,0,.608,3.18l.841.307c1.653-1.562,3.4-3.037,4.941-4.7,4.973-5.378,9.754-10.939,14.865-16.18a13.33,13.33,0,0,1,5.95-3.334c1.256-.33,3.067.725,4.351,1.575.537.355.354,1.8.525,2.918-.725-.155-.957-.142-1-.222-.651-1.353-.774-3.2-2.883-3.2a5.241,5.241,0,0,0-4.926,2.885c-2.408,4.85-3.22,10.047-2.971,16.262,1.457-.915,2.659-1.315,3.316-2.146,2.52-3.183,4.889-6.487,7.261-9.785a35.563,35.563,0,0,1,1.959-3.17,3.177,3.177,0,0,1,2.3-.984c.445.037,1.159,1.214,1.134,1.854-.245,6.13-.626,12.255-.96,18.382-.1,1.823-.233,3.647-.242,5.471-.008,1.745,1.026,2.233,2.476,1.536a10.338,10.338,0,0,0,3.052-2.08c4.736-5.029,9.363-10.162,14.074-15.215,3.973-4.261,7.94-8.535,12.086-12.623a4.965,4.965,0,0,1,3.608-.864c.468.047,1.089,1.694,1.106,2.623.1,5.535.051,11.073.641,16.788,1.278-3.259,2.441-6.57,3.871-9.761a31.073,31.073,0,0,1,3.78-6.679,5.124,5.124,0,0,1,4.019-1.74c.853.129,1.854,2.2,2.005,3.494.425,3.627.4,7.3.651,10.956a22.338,22.338,0,0,0,.915,3.492,32.707,32.707,0,0,0,3.539-3.655c1.793-2.6,3.356-5.352,5.068-8.006a14.925,14.925,0,0,1,2.268-2.949c2.244-2.067,5.6-1.127,5.782,1.876.389,6.371.193,12.776.349,19.164a72.386,72.386,0,0,0,.675,8.171c.254,1.828,1.381,1.695,2.38.513a44.637,44.637,0,0,0,3.644-4.753c5.944-9.337,13.5-17.295,21.143-25.212,2.966-3.072,5.938-5.81,10.327-6.458.247-.036.518-.206.727-.144,1.676.493,3.341,1.028,5.009,1.549a20.9,20.9,0,0,1-2.381,4.312,7.928,7.928,0,0,1-3.786,2.314c-3.113.762-3.708,3.148-3.883,5.624a26.215,26.215,0,0,0,.458,6.942c.6,3,3.229,4.164,6.466,2.894a12.785,12.785,0,0,0,4.394-2.76c5.471-5.577,10.808-11.287,16.159-16.981a2.957,2.957,0,0,1,5.038,1.507,72.545,72.545,0,0,1,1.227,8.621c.143,1.127.2,2.264.3,3.4ZM270.6,30.135l.941,1.064a51.926,51.926,0,0,0,4.515-3.054c.472-.388.439-1.392.636-2.115-.9-.08-2.176-.572-2.62-.162A34.894,34.894,0,0,0,270.6,30.135ZM131.941,15.64c-1.676,1.122-2.654,2.261-3.674,2.3-.757.029-1.569-1.371-2.356-2.134.947-.729,1.809-1.787,2.874-2.062C129.419,13.579,130.372,14.645,131.941,15.64Z" fill="#999"/><path d="M104.039,10.543c-1.676,1.122-2.654,2.261-3.674,2.3-.757.029-1.569-1.371-2.356-2.134.947-.729,1.809-1.787,2.874-2.062C101.517,8.482,102.47,9.548,104.039,10.543Z" fill="#fff"/></g></svg>