<svg xmlns="http://www.w3.org/2000/svg" viewBox="0 0 458.126 88.967"><title>patterns</title><g id="e6fa9741-4977-4b6b-b2a1-a77656744c86" data-name="contents"><path d="M309.056,45.874c.419-.965.867-1.918,1.252-2.9.857-2.175,1.58-4.409,2.554-6.529A24.862,24.862,0,0,1,315.551,32a5.087,5.087,0,0,1,2.205-1.461,1.924,1.924,0,0,1,2.608,1.7,29.726,29.726,0,0,1,.354,3.4c.159,2.49.234,4.987.448,7.472a6.555,6.555,0,0,0,.765,1.836c.568-.336,1.317-.54,1.672-1.03,1.6-2.207,3.063-4.5,4.607-6.749a29.312,29.312,0,0,1,2.858-3.891,2.742,2.742,0,0,1,4.345.586,6.714,6.714,0,0,1,.629,2.41c.714,4.9.162,9.8-.07,14.7a41.837,41.837,0,0,0,.228,4.847,9.156,9.156,0,0,0,.335,1.951c.109.369.373.858.677.956a1.257,1.257,0,0,0,1.064-.422c1.45-1.837,2.92-3.667,4.232-5.6a108.012,108.012,0,0,1,11.57-14.268,47.1,47.1,0,0,0,3.6-4.24,12.318,12.318,0,0,1,5.508-4.347,10.784,10.784,0,0,1,3.282-.512,48.1,48.1,0,0,1,11.568,1.023,34.1,34.1,0,0,0,9.624.479,1.6,1.6,0,0,0,.616-.123c1.347-.726,2.648-.155,3.9.232a1.762,1.762,0,0,1,.849,1.316c.2,2.369.356,4.747.385,7.123.038,3.162-.063,6.325-.088,9.487-.011,1.467.318,1.656,1.659,1.11a4.6,4.6,0,0,0,3.03-4.153,20.685,20.685,0,0,1,2.4-8.331,8.36,8.36,0,0,1,4.045-3.823,4.907,4.907,0,0,1,1.254-.157,4.645,4.645,0,0,1,.025,1.307c-.24.894-.611,1.752-.893,2.636a3.755,3.755,0,0,0-.171,1.063q-.147,8.45-.267,16.9a13.066,13.066,0,0,0,.141,1.344c7.244-8.652,14.055-17.331,22.17-24.825l.294.171a2.362,2.362,0,0,1-.26.82c-.825.992-1.64,2-2.556,2.907a149.139,149.139,0,0,0-14.676,16.6c-1.4,1.874-2.844,3.719-4.267,5.578a6.712,6.712,0,0,0-1.088,3.28A18.839,18.839,0,0,1,398.4,72.61a3.67,3.67,0,0,1-1.727.9c-2.024.382-3.454-.766-3.07-3.082a12.75,12.75,0,0,1,1.317-3.4,10.743,10.743,0,0,1,1.584-2.4,4.564,4.564,0,0,0,1.081-3.389c-.066-3.4-.02-6.809-.025-10.213,0-.35-.039-.7-.073-1.28-.907.491-1.67.869-2.4,1.308-.873.527-1.716,1.106-2.571,1.662a2.891,2.891,0,0,1-2.965.522,3.231,3.231,0,0,1-1.6-2.847,63.081,63.081,0,0,1,.157-10.2c.236-2.782.487-5.564.743-8.491-.412,0-.723,0-1.034,0-2.767-.029-5.541.058-8.3-.126-2.271-.152-4.514-.7-6.784-.929-1.449-.146-2.924-.027-4.385-.027.348,1.245.785,2.456,1.011,3.706a27.91,27.91,0,0,1,.411,4.115,21.581,21.581,0,0,1-.886,7.573c-1.4,4.159-3.561,5.994-8.013,6.264a4.481,4.481,0,0,1-4.088-1.984,12.136,12.136,0,0,1-2.314-8.917c.069-.624.211-1.241.319-1.86l-.26-.1a61.937,61.937,0,0,0-4.318,4.669c-3.137,4.137-6.11,8.4-9.185,12.583a31.667,31.667,0,0,1-2.805,3.381c-1.913,1.961-5.461.7-6.295-1.681A27.594,27.594,0,0,1,330.862,46.8c.291-3.566.472-7.142.69-10.714a8.453,8.453,0,0,0-.067-1.03,2.051,2.051,0,0,0-1.625,1.233c-1.513,2.481-2.95,5.011-4.528,7.45a7.731,7.731,0,0,1-3.383,3.144c-1.477.625-3.862.333-4.436-.8a9.763,9.763,0,0,1-.851-3.36c-.259-2.484-.361-4.984-.556-7.476a8.58,8.58,0,0,0-.311-1.321l-.365-.055c-.584,1.253-1.205,2.49-1.745,3.762-1.147,2.7-2.153,5.467-3.422,8.108a9.546,9.546,0,0,1-2.405,2.839,2.077,2.077,0,0,1-3.248-.6,7.16,7.16,0,0,1-1.219-3.721c-.105-3.552-.227-7.1-.345-10.73a2.3,2.3,0,0,0-.463.282,123.9,123.9,0,0,0-11.32,13.178c-4.123,5.463-8.489,10.748-12.908,15.977a38.615,38.615,0,0,1-5.569,5.111,5.551,5.551,0,0,1-5.937.911,4.537,4.537,0,0,1-2.545-3.824c-.324-3.225-.653-6.46-.733-9.7-.121-4.908-.027-9.821-.034-14.733,0-2.368-.013-2.368-2.359-2.368-1.506,0-3.015.042-4.519-.018a1.284,1.284,0,0,0-1.432.894c-.966,2.324-1.89,4.672-2.982,6.938-1.978,4.1-3.912,8.256-7.376,11.409a3.278,3.278,0,0,1-2.9,1.12c-.351-.069-.649-.4-.972-.619a3.444,3.444,0,0,1,.825-.618,8.591,8.591,0,0,0,4.126-3.487,62.532,62.532,0,0,0,5.621-10.236c1.41-3.108,2.6-6.315,3.958-9.448,1.406-3.244,2.933-6.435,4.335-9.68.974-2.254,1.813-4.566,2.751-6.837.145-.35.463-.821.756-.864a1.2,1.2,0,0,1,.943.625c.591,1.406,1.136,2.837,1.594,4.292,1.2,3.8,1.492,7.77,2.166,11.672,1.535,8.894,1.41,17.875,1.782,26.834a15.883,15.883,0,0,0,.57,3.542c.683,2.469,2.5,2.512,4.066.967,1.789-1.771,3.417-3.7,5.107-5.575.826-.915,1.668-1.819,2.443-2.777,1.869-2.31,3.7-4.653,5.554-6.973,2.817-3.518,5.531-7.128,8.505-10.507,2.238-2.542,4.819-4.782,7.238-7.165a6.8,6.8,0,0,0,1-1.15,2.929,2.929,0,0,1,2.444-1.3c1.279-.112,1.884.376,1.892,1.665.024,3.916.015,7.832.019,11.749q0,1.467,0,2.933ZM368.6,38.4a16.724,16.724,0,0,0-1.01-5.691,2.279,2.279,0,0,0-3.048-1.57c-1.931.532-2.67,2.083-3.133,3.739a22.531,22.531,0,0,0-.3,9.31,7.66,7.66,0,0,0,2.221,4.615,1.67,1.67,0,0,0,2.144.23A7.7,7.7,0,0,0,367.2,46.99C368.43,44.573,368.552,41.92,368.6,38.4ZM262.068,24.214A57.809,57.809,0,0,0,256.4,36.542h6.988ZM397.575,65.971l-.441-.181A28.167,28.167,0,0,0,395.122,69a5.1,5.1,0,0,0-.163,2.2.946.946,0,0,0,1.026.925.964.964,0,0,0,1.063-.9C397.267,69.478,397.406,67.722,397.575,65.971Z" fill="#86666b"/><path d="M75.883,34.866c-1.009,1.136-2.072,2.229-3.016,3.417-4.076,5.127-8.145,10.259-12.155,15.437a22.932,22.932,0,0,1-5.258,5.515,6.441,6.441,0,0,1-2.869,1.123A25.1,25.1,0,0,1,42.3,58.884c-1.725-.606-3.485-1.115-5.246-1.609a1.264,1.264,0,0,0-.934.282c-.473.365-.848.853-1.306,1.241a2.219,2.219,0,0,1-3.615-.878,1.872,1.872,0,0,1,.042-1.27,3.835,3.835,0,0,1,3.136-2.434,3.325,3.325,0,0,0,2.952-2.1,48.737,48.737,0,0,1,8.691-11.216,22.835,22.835,0,0,0,4.952-7.025,12.937,12.937,0,0,0,.888-7.309,11.565,11.565,0,0,0-2.216-5.418c-1.657-2.114-5.394-2.13-7.245-.187A9.46,9.46,0,0,0,40.01,29.8c.1.484.5.905.607,1.389.094.427.134,1.17-.086,1.3-.639.387-.95-.249-1.183-.729a10.742,10.742,0,0,1-.89-6.069,9.194,9.194,0,0,1,5.625-7.788,8.556,8.556,0,0,1,8.8.815c3.5,2.378,4.478,5.889,4.107,9.863a9.5,9.5,0,0,1-2.635,5.607c-2.914,3.162-5.862,6.3-8.658,9.563-2.3,2.687-4.479,5.491-6.565,8.349-1.241,1.7-1.042,1.723.992,2.083,2.647.468,5.248,1.2,7.862,1.853,1.717.426,3.4,1.035,5.137,1.316,1.866.3,3.356-.791,4.5-2.064,2.291-2.541,4.445-5.208,6.6-7.872,3.3-4.088,6.083-8.59,9.861-12.294a14.126,14.126,0,0,1,1.452-1.352c1.193-.877,1.413-2.23,1.863-3.492a52.785,52.785,0,0,1,1.916-4.923c1.526-3.217,4.114-5.436,7.008-7.432a14.1,14.1,0,0,1,10.048-2.3,12.269,12.269,0,0,1,9.223,5.944,23.194,23.194,0,0,1,3.783,12.862,49.535,49.535,0,0,1-.514,8.084,28.217,28.217,0,0,1-2.416,6.736,21.987,21.987,0,0,1-6.5,8.492,8.1,8.1,0,0,1-4.48,1.688,17.63,17.63,0,0,1-9.6-1.919,17.115,17.115,0,0,1-5.528-5.348,22.021,22.021,0,0,1-3.761-9.449,64.253,64.253,0,0,1-.407-6.73q-.028-.511-.055-1.022Zm31.866,1.945a24.332,24.332,0,0,0-1.195-8.1c-1.009-3.668-2.565-6.942-5.817-9.22a9.366,9.366,0,0,0-9.7-1.038,10.584,10.584,0,0,0-5.234,4.633,29.543,29.543,0,0,0-3.334,11.5,27.6,27.6,0,0,0,.736,9.743,27.3,27.3,0,0,0,5.176,10.284,7.525,7.525,0,0,0,2.11,1.627c1.55.888,3.292.792,5.012.843a6.1,6.1,0,0,0,4.517-1.873,23.622,23.622,0,0,0,5.909-9.245C107.043,42.979,108.03,39.952,107.749,36.81ZM34.917,56.894l-.093-.235a4.726,4.726,0,0,0-1.467.038c-.318.109-.577.542-.739.889-.07.149.165.634.272.637a1.76,1.76,0,0,0,1.048-.231A6.719,6.719,0,0,0,34.917,56.894Z" fill="#86666b"/><path d="M144.658,54.436c0,.451.084.732-.013.824a37.635,37.635,0,0,1-4.173,3.812,5.652,5.652,0,0,1-3.03.594c-3.162.031-6.332-.2-9.486-.062-2.446.11-4.875.626-7.31.97a2.809,2.809,0,0,1-2.664-.48c.834-.184,1.429-.321,2.026-.446,2.586-.54,5.169-1.094,7.761-1.6.608-.119.9-.373.9-1,0-1.5.036-3,.028-4.5-.009-1.835-.064-3.671-.072-5.506-.012-2.829,0-5.657,0-8.486q0-6.508-.005-13.016c0-.369-.073-.739-.137-1.338-.771,1.069-1.346,1.969-2.024,2.784-1.4,1.686-2.848,3.335-4.3,4.978a2.952,2.952,0,0,1-1,.747,2.69,2.69,0,0,1-.975.03,2.491,2.491,0,0,1,.278-.866c.617-.738,1.278-1.442,1.952-2.13,2.486-2.539,4.1-5.693,6.041-8.612a13.18,13.18,0,0,0,.829-2.273,5.721,5.721,0,0,1,.771-1.294,1.055,1.055,0,0,1,1.721-.081,8.505,8.505,0,0,1,2.995,5.842c.686,11.045.373,22.1.428,33.149.009,1.748-.437,1.713,1.787,1.863a7.485,7.485,0,0,0,6.325-2.644C143.664,55.3,144.082,54.968,144.658,54.436Z" fill="#86666b"/><path d="M211.495,34.965a10.548,10.548,0,0,0-2.267.41,8.184,8.184,0,0,0-1.607,1.213l-.314-.161a3.328,3.328,0,0,1,.334-1.1,3.59,3.59,0,0,1,2.938-1.514,1.282,1.282,0,0,0,1.443-1.111,33.614,33.614,0,0,1,5.421-10.694,5.706,5.706,0,0,0,.359-.512c.041-.069.021-.173.035-.327a2.753,2.753,0,0,0-.579-.119,16.118,16.118,0,0,1-7.217-2.009C207.9,18,207.01,18.7,206.192,20.378a42.21,42.21,0,0,1-10.3,13.182c-.2.18-.623.118-.942.169.086-.3.076-.712.274-.892a34.079,34.079,0,0,0,6.547-7.868c1.394-2.372,2.613-4.846,3.937-7.259,1.261-2.3,3.591-2.745,5.851-1.986,1.608.54,3.105,1.4,4.686,2.036a20.438,20.438,0,0,0,3.1.936,1.641,1.641,0,0,0,1.108-.317c.793-.531,1.519-1.16,2.3-1.714a1.341,1.341,0,0,1,1.884.147,1.452,1.452,0,0,1,.056,1.923c-.482.657-1.138,1.5-1.831,1.625-1.629.289-2.138,1.389-2.5,2.674-.951,3.408-1.847,6.831-2.761,10.25a3.107,3.107,0,0,0-.044.424,3.446,3.446,0,0,0,3.048-.96c.334-.249.573-.638.924-.85a2.254,2.254,0,0,1,.886-.108c-.053.262-.022.595-.173.774a6.744,6.744,0,0,1-4.467,2.783c-.6.06-.752.389-.884.927-.956,3.912-.71,7.9-.776,11.864-.026,1.566.019,3.141-.144,4.693a4.406,4.406,0,0,1-.9,2.067,40.616,40.616,0,0,1-2.787,3.166c-.245.261-.7.593-.941.518-.266-.084-.522-.582-.567-.927-.22-1.727-.464-3.46-.522-5.2-.086-2.558,0-5.12-.028-7.681A29.944,29.944,0,0,1,211.495,34.965Zm12.313-17.586a2.069,2.069,0,0,0-1.78,1.741A1.671,1.671,0,0,0,223.808,17.379Z" fill="#86666b"/><path d="M162.32,34.425a56.718,56.718,0,0,1,4.43,6.46,15.4,15.4,0,0,1,.738,12.914,8.311,8.311,0,0,1-3.99,4.5,9.9,9.9,0,0,1-5.92.6c-3.215-.446-4.86-2.543-5.481-5.522a14.513,14.513,0,0,1,2.751-12.07,20.529,20.529,0,0,1,1.906-2.282c.6-.6.6-1.022.126-1.74a45.941,45.941,0,0,1-3.527-5.833,11.1,11.1,0,0,1-.485-8.67c1.307-3.676,5.746-6.724,9.6-6.347a6.982,6.982,0,0,1,2.772.944,3.513,3.513,0,0,1,1.561,4.206,6.276,6.276,0,0,0-.2,2.324A6.556,6.556,0,0,1,166,27.123C164.872,29.6,163.561,31.991,162.32,34.425ZM158.773,39.6a7.273,7.273,0,0,0-.695.46,13.638,13.638,0,0,0-4.213,6.567,12.216,12.216,0,0,0-.046,7.533c1.445,3.879,5.377,4.344,8.225,3.148,2.09-.878,3.2-4.149,2.38-6.679a31.4,31.4,0,0,0-1.94-4.9C161.388,43.64,160.053,41.684,158.773,39.6Zm6.413-14.717-.339-.213c-.348.072-.694.155-1.044.213a2.1,2.1,0,0,1-2.6-1.635c-.072-.3-.012-.857.148-.927a1.623,1.623,0,0,1,1.079.057c.26.091.419.458.679.565a1.94,1.94,0,0,0,1.144.208,2.6,2.6,0,0,0,.9-4.329,4.571,4.571,0,0,0-4.767-1.094c-1.9.487-3.383,1.531-3.376,4.156a12.193,12.193,0,0,0,.953,5.364c.853,1.773,1.781,3.511,2.725,5.237.366.669.823.623,1.177-.07.816-1.6,1.679-3.175,2.429-4.8A23.382,23.382,0,0,0,165.186,24.879Z" fill="#86666b"/><path d="M179.429,45.082c-1.345.011-2.044-.53-2.054-1.591a2.746,2.746,0,0,1,2.741-2.557A1.694,1.694,0,0,1,182,42.644,2.476,2.476,0,0,1,179.429,45.082Z" fill="#86666b"/></g></svg>